<svg id="Capa_1" enable-background="new 0 0 512 512" height="512" viewBox="0 0 512 512" width="512" xmlns="http://www.w3.org/2000/svg"><g><g><path d="m476.367 125.738c-4.222-7.127-13.423-9.481-20.551-5.262-7.128 4.223-9.483 13.423-5.262 20.551 20.573 34.73 31.446 74.487 31.446 114.973 0 124.617-101.383 226-226 226-46.925 0-91.664-14.211-129.312-40.587h15.468c8.284 0 15-6.716 15-15s-6.716-15-15-15h-56.569c-8.284 0-15 6.716-15 15v56.568c0 8.284 6.716 15 15 15s15-6.716 15-15v-23.521c44.418 34.073 98.493 52.54 155.413 52.54 68.38 0 132.667-26.629 181.02-74.98 48.351-48.353 74.98-112.64 74.98-181.02 0-45.862-12.322-90.906-35.633-130.262z" fill="#ff4a4a"/><g><path d="m476.367 125.738c-4.222-7.127-13.423-9.481-20.551-5.262-7.128 4.223-9.483 13.423-5.262 20.551 20.573 34.73 31.446 74.487 31.446 114.973 0 124.617-101.383 226-226 226v30c68.38 0 132.667-26.629 181.02-74.98 48.351-48.353 74.98-112.64 74.98-181.02 0-45.862-12.322-90.906-35.633-130.262z" fill="#ff4a4a"/></g><path d="m426.413 14.02c-8.284 0-15 6.716-15 15v23.809c-44.034-33.455-97.795-52.448-153.643-52.823-69.04-.464-134.02 26.206-182.79 74.975-48.351 48.352-74.98 112.639-74.98 181.019 0 45.86 12.322 90.904 35.634 130.262 4.222 7.128 13.423 9.484 20.551 5.262s9.484-13.423 5.262-20.551c-20.573-34.732-31.447-74.489-31.447-114.973 0-125.121 102.203-226.818 227.511-225.995 45.838.301 90.081 14.823 127.325 40.583h-14.992c-8.284 0-15 6.716-15 15s6.716 15 15 15h56.569c8.284 0 15-6.716 15-15v-56.568c0-8.285-6.716-15-15-15z" fill="#ff4a4a"/><g><path d="m426.413 14.02c-8.284 0-15 6.716-15 15v23.809c-44.034-33.455-97.795-52.448-153.643-52.823-.591-.004-1.179.01-1.77.01v29.999c.504 0 1.006-.013 1.511-.009 45.838.301 90.081 14.823 127.325 40.583h-14.992c-8.284 0-15 6.716-15 15s6.716 15 15 15h56.569c8.284 0 15-6.716 15-15v-56.569c0-8.285-6.716-15-15-15z" fill="#ff4a4a"/></g></g><g><circle cx="256" cy="256" fill="#f9f9f9" r="150"/><g><path d="m256 106v300c82.711 0 150-67.289 150-150s-67.289-150-150-150z" fill="#e2dff4"/></g><g><path d="m241 106v30.001c0 8.284 6.716 15 15 15h.001c8.284 0 15-6.716 15-15v-30.001z" fill="#453d81"/><g><path d="m256 106v45c8.284 0 15-6.716 15-15v-30z" fill="#2b0552"/></g><path d="m256.001 361c-8.285 0-15 6.716-15 15v30.001h30v-30.001c-.001-8.284-6.717-15-15-15z" fill="#453d81"/><g><path d="m271 376c0-8.284-6.716-15-15-15v45h15z" fill="#2b0552"/></g><path d="m181.754 160.541-21.215-21.214-21.212 21.213 21.214 21.214c5.858 5.857 15.355 5.857 21.212 0 5.859-5.858 5.859-15.355.001-21.213z" fill="#453d81"/><path d="m351.459 330.247c-5.858-5.857-15.355-5.857-21.212 0-5.858 5.858-5.858 15.355 0 21.213l21.215 21.214 21.212-21.213z" fill="#2b0552"/><path d="m136.001 241h-30.001v30h30.001c8.284 0 15-6.716 15-15-.001-8.284-6.717-15-15-15z" fill="#453d81"/><path d="m376 241c-8.284 0-15 6.716-15 15v.001c0 8.284 6.716 15 15 15h30.001v-30h-30.001z" fill="#2b0552"/><path d="m181.754 330.247c-5.858-5.858-15.355-5.858-21.213 0l-21.214 21.214 21.212 21.213 21.215-21.214c5.858-5.858 5.858-15.355 0-21.213z" fill="#453d81"/><path d="m351.461 139.328-21.215 21.214c-5.858 5.858-5.858 15.355 0 21.213 5.858 5.858 15.355 5.858 21.212 0l21.214-21.214z" fill="#2b0552"/></g><path d="m256 91c-90.981 0-165 74.019-165 165s74.019 165 165 165 165-74.019 165-165-74.019-165-165-165zm0 300c-74.439 0-135-60.561-135-135s60.561-135 135-135 135 60.561 135 135-60.561 135-135 135z" fill="#0052be"/><g><path d="m256 91v30c74.439 0 135 60.561 135 135s-60.561 135-135 135v30c90.981 0 165-74.019 165-165s-74.019-165-165-165z" fill="#453d81"/></g><g><path d="m199.432 312.568c-5.858-5.858-5.858-15.355 0-21.213l41.568-41.568v-58.787c0-8.284 6.716-15 15-15 8.284 0 15 6.716 15 15v65c0 3.979-1.58 7.794-4.394 10.606l-45.962 45.962c-5.857 5.858-15.355 5.858-21.212 0z" fill="#453d81"/></g><g><path d="m256 176v101.213l10.606-10.606c2.814-2.813 4.394-6.628 4.394-10.607v-65c0-8.284-6.716-15-15-15z" fill="#2b0552"/></g></g></g></svg>