<svg id="Capa_1" enable-background="new 0 0 512 512" height="512" viewBox="0 0 512 512" width="512" xmlns="http://www.w3.org/2000/svg"><g><path d="m498.799 310.786c-10.153-138.73-128.874-231.774-163.701-256.22-4.659-3.27-11.112-.931-12.675 4.542l-13.437 47.029s-42.574-49.669-127.721-89.901c-7.096-3.353-14.454 4.241-10.924 11.251l14.404 28.601c-76.317-38.493-137.9-51.841-162.449-55.97-5.734-.964-10.627 4.146-9.429 9.836 4.653 22.118 18.628 73.386 55.914 129.315l-.514 35.915 69.557 121.357-23.457 33.556c43.004 108.814 103.968 173.428 201.768 173.973 74.796.416 134.035-36.692 162.793-100.452l4.72-2.992c11.858-27.388 17.478-58.043 15.151-89.84z" fill="#ffe077"/><path d="m158.949 127.263 25.793 45.138-46.195 6.599c-5.712.816-8.861 7.077-6.109 12.149l53.739 99.07 202.388-86.352s-108.858-82.468-221.891-89.035c-6.587-.382-10.998 6.703-7.725 12.431z" fill="#fff"/><path d="m466.361 329.776c0 31.609-9.836 60.92-26.615 85.04-26.93 38.713-71.745 54.72-122.477 54.72-82.341 0-139.916-57.419-139.916-139.761 0-50.716 16.146-95.518 54.838-122.451 24.127-16.794 53.452-26.641 85.077-26.641 82.342.001 149.093 66.752 149.093 149.093z" fill="#ffc263"/><path d="m449.11 316.142c-6.202-61.869-56.339-112.006-118.208-118.208-32.439-3.252-62.719 5.252-87.218 21.723-7.63 5.13-17.074-4.347-11.842-11.907l.35-.425c-44.276 30.847-71.095 85.113-62.376 144.869 9.356 64.116 60.92 115.679 125.035 125.035 59.756 8.72 114.048-18.137 144.895-62.413-.128.089-.349.259-.477.348-7.56 5.232-17.011-4.173-11.881-11.804 16.47-24.499 24.974-54.778 21.722-87.218z" fill="#ffaa5a"/><circle cx="317.268" cy="329.776" fill="#fff4d6" r="115.961"/><circle cx="317.268" cy="329.776" fill="#fff" r="99.395"/><path d="m400.097 338.059h-82.829c-2.2 0-4.303-.874-5.856-2.427l-49.697-49.697c-3.236-3.236-3.236-8.477 0-11.713s8.477-3.236 11.713 0l47.271 47.271h79.399c4.578 0 8.283 3.709 8.283 8.283-.001 4.574-3.705 8.283-8.284 8.283z" fill="#4e3d4d"/><g fill="#ff8b57"><path d="m317.268 263.513c-4.578 0-8.283-3.709-8.283-8.283v-8.283c0-4.574 3.705-8.283 8.283-8.283s8.283 3.709 8.283 8.283v8.283c0 4.574-3.704 8.283-8.283 8.283z"/><path d="m317.268 420.888c-4.578 0-8.283-3.709-8.283-8.283v-8.283c0-4.574 3.705-8.283 8.283-8.283s8.283 3.709 8.283 8.283v8.283c0 4.575-3.704 8.283-8.283 8.283z"/><path d="m242.722 338.059h-8.283c-4.578 0-8.283-3.709-8.283-8.283s3.705-8.283 8.283-8.283h8.283c4.578 0 8.283 3.709 8.283 8.283s-3.705 8.283-8.283 8.283z"/></g><circle cx="317.268" cy="329.776" fill="#ffaa5a" r="16.566"/><path d="m483.647 400.627-.47-.1c-8.696-1.478-17.266 2.768-21.594 10.454-29.121 51.702-85.152 86.204-149.138 84.385-69.136-1.966-129.359-48.807-152.035-114.148-9.176-26.441-10.562-51.707-6.973-75.365 2.006-13.22-.731-26.709-7.611-38.175l-77.045-128.409-24.462 6.116c-4.738 1.185-7.428 6.157-5.813 10.766 8.012 22.864 33.222 87.064 79.973 140.494l-39.617 6.603c-5.19.865-8.332 6.352-6.373 11.236 50.565 126.062 145.848 196.97 243.646 197.514 43.482.242 82.898-15.014 113.941-40.346 23.065-19.466 41.839-43.934 53.571-71.025z" fill="#ffd05b"/></g></svg>