<svg id="Capa_1" enable-background="new 0 0 512.007 512.007" height="512" viewBox="0 0 512.007 512.007" width="512" xmlns="http://www.w3.org/2000/svg" xmlns:xlink="http://www.w3.org/1999/xlink"><linearGradient id="SVGID_1_" gradientUnits="userSpaceOnUse" x1="256.003" x2="256.003" y1="421" y2="91"><stop offset="0" stop-color="#5558ff"/><stop offset="1" stop-color="#00c0ff"/></linearGradient><linearGradient id="SVGID_2_" gradientUnits="userSpaceOnUse" x1="256.003" x2="256.003" y1="512.006" y2="0"><stop offset="0" stop-color="#addcff"/><stop offset=".5028" stop-color="#eaf6ff"/><stop offset="1" stop-color="#eaf6ff"/></linearGradient><g><g><g><circle cx="256.003" cy="256" fill="url(#SVGID_1_)" r="165"/></g></g><g><g><path d="m206.609 326.605 59.982-59.981c2.823-2.815 4.413-6.733 4.413-10.624v-90c0-8.291-6.709-15-15-15s-15 6.709-15 15v83.789l-55.605 55.605c-5.859 5.859-5.859 15.352 0 21.211 5.858 5.86 15.35 5.86 21.21 0zm49.394-326.605c-140.596 0-256 115.39-256 256 0 8.291 7.709 15 16 15s15-6.709 15-15c0-124.072 100.928-225 225-225s225 100.928 225 225-100.928 225-225 225c-43.596 0-79.59-15.39-104.236-30h14.236c8.291 0 15-6.709 15-15s-6.709-15-15-15h-60c-12.208 1.744-16.712 9.929-14.561 18.633l15 61c2.024 8.133 10.307 12.933 18.193 10.913 8.057-2.007 12.92-10.151 10.928-18.179l-4.728-19.911c28.086 17.697 71.141 38.544 125.168 38.544 140.596 0 256-115.39 256-256s-115.404-256-256-256z" fill="url(#SVGID_2_)"/></g></g></g></svg>