<svg id="Layer_1" enable-background="new 0 0 512.231 512.231" height="512" viewBox="0 0 512.231 512.231" width="512" xmlns="http://www.w3.org/2000/svg"><g><g><g><g><g><g><path d="m252.944 215.522h100.565v248.535h-100.565z" fill="#ffe177" transform="matrix(-1 0 0 -1 606.453 679.579)"/><path d="m152.38 84.995h100.565v379.062h-100.565z" fill="#fea713" transform="matrix(-1 0 0 -1 405.324 549.053)"/><path d="m51.815 309.899h100.565v154.158h-100.565z" fill="#fe76a8" transform="matrix(-1 0 0 -1 204.195 773.956)"/></g></g><path d="m504.731 427.082v-34.273l-19.799-5.717c-1.456-4.916-3.379-9.631-5.718-14.094l10.128-18.363-24.197-24.235-18.042 9.982c-4.423-2.406-9.104-4.398-13.989-5.925l-5.801-20.152h-34.22l-5.708 19.83c-4.909 1.458-9.616 3.384-14.072 5.727l-18.334-10.144-24.197 24.235 9.966 18.07c-2.402 4.43-4.392 9.118-5.916 14.011l-20.12 5.81v34.273l19.799 5.717c1.456 4.916 3.379 9.631 5.718 14.094l-10.128 18.363 24.197 24.235 18.042-9.982c4.423 2.406 9.104 4.398 13.989 5.925l5.801 20.152h34.22l5.708-19.83c4.909-1.458 9.616-3.384 14.072-5.727l18.334 10.144 24.197-24.235-9.966-18.07c2.402-4.43 4.392-9.118 5.916-14.011zm-57.875-17.619c0 20.508-16.658 37.192-37.134 37.192s-37.134-16.684-37.134-37.192 16.658-37.192 37.134-37.192 37.134 16.684 37.134 37.192z" fill="#2abcc8"/></g></g><g><ellipse cx="105.928" cy="105.811" fill="#fff" rx="98.197" ry="98.191"/><path d="m105.928 7.62c-6.853 0-13.543.702-20 2.039 44.642 9.237 78.197 48.776 78.197 96.152s-33.555 86.916-78.197 96.152c6.457 1.336 13.147 2.039 20 2.039 54.233 0 98.197-43.961 98.197-98.191s-43.964-98.191-98.197-98.191z" fill="#eef5f6"/><g><path d="m174.62 105.811c0-37.874-30.815-68.687-68.692-68.687-.157 0 .157-.001 0 0v68.687z" fill="#fe76a8"/></g></g></g><path d="m504.731 427.082v-34.273l-19.799-5.717c-1.456-4.916-3.379-9.631-5.718-14.094l10.128-18.363-24.197-24.235-18.042 9.982c-4.423-2.406-9.104-4.398-13.989-5.925l-5.801-20.152h-34.219l-5.037 17.496c31.702 9.092 55.42 37.07 58.197 70.978.395 2.169.601 4.402.601 6.683s-.207 4.515-.601 6.684c-2.803 34.225-26.94 62.409-59.089 71.228l4.965 17.246h34.219l5.708-19.83c4.909-1.458 9.616-3.384 14.072-5.727l18.335 10.144 24.197-24.235-9.967-18.07c2.403-4.43 4.392-9.118 5.916-14.011z" fill="#0cacba"/><g><path d="m506.812 385.605-15.971-4.612c-.927-2.647-1.985-5.254-3.169-7.801l8.237-14.934c1.612-2.923 1.099-6.559-1.26-8.921l-24.196-24.235c-2.363-2.369-6.013-2.884-8.938-1.264l-14.548 8.049c-2.521-1.215-5.104-2.308-7.729-3.27l-4.718-16.386c-.925-3.213-3.864-5.426-7.207-5.426h-34.22c-3.343 0-6.282 2.213-7.207 5.426l-4.606 16c-2.638.927-5.234 1.984-7.771 3.166l-12.501-6.916v-108.96c0-4.143-3.357-7.5-7.5-7.5h-93.064v-123.026c0-4.143-3.358-7.5-7.5-7.5h-45.17c-16.813-65.408-97.983-99.015-156.563-62.126-3.542 2.147-4.674 6.759-2.527 10.302 2.146 3.542 6.759 4.672 10.301 2.526 58.986-36.758 138.534 8.01 137.64 77.615.001 50.006-40.686 90.689-90.696 90.689-73.233.622-116.982-85.161-73.413-143.946 2.436-3.351 1.694-8.041-1.657-10.477-3.351-2.435-8.041-1.693-10.476 1.656-61.4 85.789 26.357 198.477 124.496 160.331v98.335h-93.064c-4.142 0-7.5 3.357-7.5 7.5v146.657h-36.584c-9.916.307-9.909 14.696 0 15h319.027l22.233 22.268c2.364 2.369 6.012 2.883 8.938 1.264l14.548-8.049c2.521 1.215 5.104 2.308 7.729 3.27l4.718 16.386c.925 3.213 3.864 5.426 7.207 5.426h34.22c3.343 0 6.282-2.213 7.207-5.426l4.606-16c2.637-.927 5.233-1.985 7.771-3.167l14.898 8.243c2.925 1.618 6.573 1.104 8.938-1.264l24.196-24.234c2.358-2.361 2.872-5.998 1.26-8.921l-8.043-14.585c1.216-2.53 2.309-5.121 3.271-7.756l16.355-4.724c3.209-.927 5.419-3.864 5.419-7.205v-34.273c.002-3.341-2.208-6.279-5.417-7.205zm-447.497-68.205h85.564v139.157h-85.564zm100.565-120.731c34.728-20.188 56.621-62.077 50.911-104.173h34.653v364.062h-85.564zm100.564 26.353h85.564v105.067l-20.532 20.565c-2.358 2.361-2.872 5.998-1.26 8.921l8.043 14.584c-1.216 2.53-2.309 5.121-3.271 7.757l-16.355 4.724c-3.209.927-5.419 3.864-5.419 7.205v34.272c0 3.341 2.21 6.278 5.419 7.205l15.971 4.612c.927 2.646 1.985 5.252 3.168 7.799l-5.97 10.824h-65.357v-233.535zm236.787 198.419-14.701 4.246c-2.421.699-4.33 2.567-5.079 4.974-1.362 4.372-3.162 8.634-5.349 12.667-1.219 2.247-1.209 4.959.025 7.197l7.245 13.137-16.223 16.247-13.39-7.408c-2.21-1.224-4.887-1.251-7.122-.075-4.058 2.134-8.336 3.875-12.714 5.174-2.453.729-4.366 2.657-5.073 5.116l-4.146 14.404h-22.929l-4.239-14.726c-.697-2.422-2.563-4.332-4.97-5.084-4.365-1.365-8.619-3.167-12.643-5.355-2.251-1.226-4.974-1.216-7.215.025l-13.097 7.246-16.224-16.248 7.407-13.43c1.216-2.205 1.244-4.873.076-7.103-2.132-4.068-3.87-8.354-5.169-12.741-.726-2.453-2.652-4.367-5.11-5.076l-14.38-4.153v-22.991l14.701-4.246c2.421-.699 4.33-2.567 5.079-4.974 1.363-4.374 3.162-8.636 5.349-12.667 1.219-2.246 1.209-4.959-.025-7.197l-7.245-13.137 16.223-16.247 13.39 7.407c2.211 1.224 4.887 1.251 7.122.075 4.056-2.132 8.333-3.873 12.714-5.173 2.453-.729 4.366-2.657 5.073-5.116l4.146-14.404h22.929l4.239 14.726c.697 2.422 2.563 4.332 4.97 5.084 4.365 1.365 8.619 3.167 12.643 5.355 2.25 1.225 4.972 1.216 7.215-.025l13.097-7.246 16.222 16.248-7.406 13.429c-1.216 2.205-1.244 4.874-.075 7.104 2.131 4.064 3.87 8.351 5.169 12.74.726 2.453 2.652 4.367 5.11 5.076l14.38 4.153z"/><path d="m409.722 364.771c-24.611 0-44.634 20.049-44.634 44.692 0 29.266 28.996 51.158 57.171 42.886 3.974-1.167 6.25-5.335 5.083-9.309-1.168-3.975-5.334-6.252-9.309-5.084-18.621 5.464-37.945-9.188-37.945-28.493 0-16.372 13.294-29.692 29.634-29.692 18.936 0 33.372 18.648 28.725 36.997-1.017 4.016 1.414 8.095 5.43 9.111 4.02 1.016 8.095-1.414 9.111-5.43 7.027-27.744-14.582-55.678-43.266-55.678z"/><path d="m182.12 105.811c0-41.976-34.126-76.132-76.11-76.187-.035 0-.07-.001-.105 0-4.138.013-7.528 3.374-7.522 7.512 0 .274.016.546.045.812v67.862c0 4.143 3.358 7.5 7.5 7.5h68.692c4.142.001 7.5-3.357 7.5-7.499zm-68.692-7.5v-53.23c27.757 3.408 49.827 25.476 53.235 53.229h-53.235z"/><path d="m71.993 53.669c9.652 0 9.668-15 0-15-9.652 0-9.668 15 0 15z"/><path d="m47.323 78.211c9.652 0 9.668-15 0-15-9.651 0-9.667 15 0 15z"/><path d="m38.231 111.799c9.652 0 9.668-15 0-15-9.652 0-9.668 15 0 15z"/><path d="m47.151 130.433c-9.652 0-9.668 15 0 15 9.652 0 9.668-15 0-15z"/><path d="m71.695 170.101c9.652 0 9.668-15 0-15-9.652 0-9.668 15 0 15z"/><path d="m105.285 179.193c9.652 0 9.668-15 0-15-9.651 0-9.667 15 0 15z"/><path d="m138.922 170.273c9.652 0 9.668-15 0-15-9.652 0-9.668 15 0 15z"/><path d="m163.591 145.731c9.652 0 9.668-15 0-15-9.651 0-9.667 15 0 15z"/></g></g></svg>