<svg id="Capa_1" enable-background="new 0 0 512 512" height="512" viewBox="0 0 512 512" width="512" xmlns="http://www.w3.org/2000/svg"><g><path d="m315 362h-300c-8.284 0-15 6.716-15 15v120c0 8.284 6.716 15 15 15h300c8.284 0 15-6.716 15-15v-120c0-8.284-6.716-15-15-15z" fill="#a0e65c"/><path d="m375 181h-300c-8.284 0-15 6.716-15 15v120c0 8.284 6.716 15 15 15h300c8.284 0 15-6.716 15-15v-120c0-8.284-6.716-15-15-15z" fill="#ffbe40"/><path d="m390 316v-120c0-8.284-6.716-15-15-15h-150v150h150c8.284 0 15-6.716 15-15z" fill="#ff9f40"/><path d="m330 497v-120c0-8.284-6.716-15-15-15h-150v150h150c8.284 0 15-6.716 15-15z" fill="#79cc52"/><path d="m15 150h300c8.284 0 15-6.716 15-15v-120c0-8.284-6.716-15-15-15h-300c-8.284 0-15 6.716-15 15v120c0 8.284 6.716 15 15 15z" fill="#6cf"/><path d="m330 135v-120c0-8.284-6.716-15-15-15h-150v150h150c8.284 0 15-6.716 15-15z" fill="#59abff"/><path d="m467 61h-55.787l4.394-4.394c5.858-5.858 5.858-15.355 0-21.213-5.857-5.858-15.355-5.858-21.213 0l-29.998 29.998c-5.85 5.842-5.833 15.393 0 21.218l29.998 29.998c2.928 2.929 6.767 4.393 10.606 4.393s7.678-1.464 10.606-4.394c5.858-5.858 5.858-15.355 0-21.213l-4.393-4.393h55.787c8.271 0 15 6.729 15 15v120c0 8.271-6.729 15-15 15h-32c-8.284 0-15 6.716-15 15s6.716 15 15 15h32c24.813 0 45-20.187 45-45v-120c0-24.813-20.187-45-45-45z" fill="#3d4566"/><g fill="#4d5e80"><circle cx="75" cy="75" r="15"/><circle cx="135" cy="256" r="15"/><circle cx="75" cy="437" r="15"/></g></g></svg>