<?xml version="1.0" encoding="UTF-8" standalone="no"?>
<!-- Generator: Adobe Illustrator 19.0.0, SVG Export Plug-In . SVG Version: 6.00 Build 0)  -->

<svg
   version="1.1"
   id="Capa_1"
   x="0px"
   y="0px"
   viewBox="0 0 415.998 415.998"
   style="enable-background:new 0 0 415.998 415.998;"
   xml:space="preserve"
   sodipodi:docname="clipboards.svg"
   inkscape:version="1.1 (c4e8f9e, 2021-05-24)"
   xmlns:inkscape="http://www.inkscape.org/namespaces/inkscape"
   xmlns:sodipodi="http://sodipodi.sourceforge.net/DTD/sodipodi-0.dtd"
   xmlns="http://www.w3.org/2000/svg"
   xmlns:svg="http://www.w3.org/2000/svg"><defs
   id="defs2477" /><sodipodi:namedview
   id="namedview2475"
   pagecolor="#ffffff"
   bordercolor="#666666"
   borderopacity="1.0"
   inkscape:pageshadow="2"
   inkscape:pageopacity="0.0"
   inkscape:pagecheckerboard="0"
   showgrid="false"
   inkscape:zoom="1.0192357"
   inkscape:cx="147.1691"
   inkscape:cy="168.75391"
   inkscape:window-width="1920"
   inkscape:window-height="1025"
   inkscape:window-x="3520"
   inkscape:window-y="27"
   inkscape:window-maximized="1"
   inkscape:current-layer="Capa_1" />
<g
   id="g2430">
	<g
   id="g2428">
		<circle
   cx="208.239"
   cy="48"
   r="12"
   id="circle2426" />
	</g>
</g>
<g
   id="g2436">
	<g
   id="g2434">
		<path
   d="M367.998,95.999c0-17.673-14.326-32-31.999-32h-44.424c-5.926-6.583-13.538-11.62-22.284-14.136    c-7.367-2.118-13.037-7.788-15.156-15.155C248.37,14.663,229.897,0,207.998,0c-21.898,0-40.37,14.663-46.134,34.706    c-2.122,7.376-7.806,13.039-15.182,15.164c-8.736,2.518-16.341,7.55-22.262,14.129H79.999c-17.674,0-32,14.327-32,32v287.999    c0,17.673,14.326,32,32,32c73.466,0,163.758,0,256,0c17.674,0,32-14.327,32-32C367.999,293.119,367.998,206.096,367.998,95.999z     M128,95.742c0.11-14.066,9.614-26.606,23.112-30.496c12.71-3.662,22.477-13.426,26.127-26.116    C181.157,25.51,193.805,16,207.998,16c14.194,0,26.842,9.51,30.758,23.13c3.652,12.698,13.413,22.459,26.111,26.11    c13.618,3.917,23.13,16.566,23.13,30.758v16H128V95.742z M335.999,399.998c-85.455,0-170.77,0-256,0c-8.823,0-16-7.178-16-16    V95.999c0-8.822,7.177-16,16-16h34.742c-1.73,4.892-2.698,10.143-2.74,15.617v32.383h191.998v-32c0-5.615-0.992-10.991-2.764-16    h34.764c8.822,0,15.999,7.178,15.999,16c0,45.743-0.001,260.254,0.002,287.999C351.999,392.82,344.822,399.998,335.999,399.998z"
   id="path2432" />
	</g>
</g>

<g
   id="g2444">
</g>
<g
   id="g2446">
</g>
<g
   id="g2448">
</g>
<g
   id="g2450">
</g>
<g
   id="g2452">
</g>
<g
   id="g2454">
</g>
<g
   id="g2456">
</g>
<g
   id="g2458">
</g>
<g
   id="g2460">
</g>
<g
   id="g2462">
</g>
<g
   id="g2464">
</g>
<g
   id="g2466">
</g>
<g
   id="g2468">
</g>
<g
   id="g2470">
</g>
<g
   id="g2472">
</g>
<g
   id="g2771"
   transform="matrix(0.47420718,0,0,0.47420718,86.373952,156.3819)"
   style="fill:#000080"><path
     d="m 506.92969,238.9375 c -6.20703,-5.48438 -15.6875,-4.89453 -21.17188,1.3125 l -0.24219,0.27344 v -10.51172 c 0,-61.30469 -23.875,-118.94141 -67.22656,-162.29297 C 374.94141,24.371094 317.30469,0.5 256,0.5 218.96875,0.5 182.17187,9.53125 149.58203,26.613281 118.05078,43.140625 90.375,67.183594 69.546875,96.148438 c -4.835937,6.722652 -3.304687,16.097652 3.421875,20.933592 6.726562,4.83985 16.101562,3.3086 20.9375,-3.41797 18.11719,-25.19531 42.1875,-46.109372 69.60547,-60.480466 C 191.82031,38.34375 223.80078,30.5 256,30.5 c 110.01172,0 199.51562,89.50391 199.51562,199.51562 v 10.51172 l -0.24609,-0.27343 c -5.48437,-6.21094 -14.96484,-6.79688 -21.17187,-1.3125 -6.21094,5.48437 -6.79688,14.96484 -1.3125,21.17187 l 26.48437,29.98438 c 2.84766,3.22265 6.94141,5.0664 11.24219,5.0664 4.30078,0 8.39453,-1.84375 11.24219,-5.0664 l 26.48437,-29.98438 c 5.48828,-6.21094 4.90234,-15.6914 -1.30859,-21.17578 z m 0,0"
     id="path2756"
     style="fill:#000080" /><path
     d="m 439.03125,342.89062 c -6.72656,-4.83593 -16.09766,-3.30859 -20.9375,3.41797 -18.11719,25.19141 -42.1875,46.10547 -69.60547,60.48047 -28.30859,14.83985 -60.29297,22.6836 -92.48828,22.6836 -110.01172,0 -199.515625,-89.50391 -199.515625,-199.51563 v -10.51172 l 0.246094,0.27735 c 5.484375,6.20703 14.964843,6.79687 21.171875,1.30859 6.210937,-5.48437 6.796875,-14.96484 1.3125,-21.17187 L 52.730469,169.875 c -2.851563,-3.22266 -6.941407,-5.07031 -11.242188,-5.07031 -4.300781,0 -8.398437,1.84765 -11.242187,5.07031 L 3.757812,199.85938 c -5.484374,6.21093 -4.898437,15.6875 1.3125,21.17187 2.851563,2.52344 6.394532,3.76172 9.925782,3.76172 4.148437,0 8.28125,-1.71484 11.246094,-5.07031 l 0.242187,-0.27735 v 10.51172 c 0,61.30859 23.875,118.94141 67.226563,162.29297 C 137.05859,435.60156 194.69531,459.47266 256,459.47266 c 37.02734,0 73.82812,-9.03125 106.41797,-26.11329 31.52734,-16.52734 59.20312,-40.57421 80.03125,-69.53515 4.83594,-6.72656 3.30859,-16.09766 -3.41797,-20.9336 z m 0,0"
     id="path2758"
     style="fill:#000080" /><path
     d="m 108.04688,268.39062 c -1.03125,3.83985 -0.49219,7.9336 1.5,11.37891 l 29.99999,51.96484 c 1.98829,3.44532 5.26563,5.95704 9.10547,6.98829 3.84375,1.02734 7.9375,0.49218 11.38282,-1.5 l 22.05859,-12.73438 c 8.80859,6.88281 18.57031,12.53125 28.90625,16.72656 v 25.4336 c 0,8.28125 6.71484,15 15,15 h 60 c 8.28125,0 15,-6.71875 15,-15 v -25.4336 c 10.33594,-4.19531 20.09766,-9.84375 28.90625,-16.72656 l 22.05859,12.73438 c 3.44141,1.98828 7.53907,2.52734 11.37891,1.5 3.84375,-1.03125 7.12109,-3.54297 9.10937,-6.98829 l 30,-51.96484 c 1.98829,-3.44531 2.52735,-7.53906 1.5,-11.37891 -1.03125,-3.84375 -3.54687,-7.12109 -6.98828,-9.10937 L 374.85937,246.51953 C 375.61719,241.04297 376,235.5 376,229.95703 c 0,-5.60937 -0.39063,-11.20703 -1.16797,-16.74609 l 22.13281,-12.77735 c 3.44532,-1.98828 5.95703,-5.26562 6.98828,-9.10937 1.02735,-3.84375 0.48829,-7.9375 -1.5,-11.38281 l -30,-51.96094 c -4.14062,-7.17188 -13.3164,-9.62891 -20.48828,-5.48828 L 329.76172,135.3125 C 320.98828,128.48047 311.27734,122.87109 301,118.69922 V 93.066406 c 0,-8.28125 -6.71484,-15 -15,-15 h -60 c -8.28516,0 -15,6.71875 -15,15 v 25.632814 c -10.27344,4.17187 -19.98828,9.78125 -28.75781,16.61328 l -22.20703,-12.82031 c -7.17188,-4.14453 -16.34766,-1.6836 -20.48829,5.48828 l -29.99999,51.96094 c -1.98829,3.44531 -2.52735,7.54296 -1.5,11.38281 1.03125,3.84375 3.54296,7.12109 6.98828,9.10937 l 22.13281,12.77735 C 136.39062,218.75 136,224.34766 136,229.95703 c 0,5.54297 0.38281,11.08203 1.14062,16.5625 l -22.10156,12.76172 c -3.44922,1.98828 -5.96093,5.26562 -6.99218,9.10937 z M 256,184.95703 c 24.85156,0 45,20.14844 45,45 0,24.85156 -20.14844,45 -45,45 -24.85547,0 -45,-20.14844 -45,-45 0,-24.85156 20.14844,-45 45,-45 z m 0,0"
     id="path2760"
     style="fill:#000080" /></g></svg>
