<?xml version="1.0" encoding="UTF-8"?>
<svg xmlns="http://www.w3.org/2000/svg" id="Layer_1" data-name="Layer 1" viewBox="0 0 512 512" width="512" height="512"><path d="M268.509,382.713a84.9,84.9,0,1,0,84.9-84.9A85,85,0,0,0,268.509,382.713ZM382,449.738a72.849,72.849,0,0,1-57,.143v-20.94c0-9.122,7.491-16.941,16.613-16.941h23.913c9.122,0,16.474,7.819,16.474,16.941ZM336.11,368c9.452,0,17.185-8,17.556-17H373v19.767c0,10.527-8.973,19.091-19.5,19.091S334,381.294,334,370.767V368ZM334,356v-3.778a19.318,19.318,0,0,1,19.33-19.091,27.661,27.661,0,0,1,6.56,1.368,28.379,28.379,0,0,0,8.155,1.318A8.894,8.894,0,0,1,374.909,339H352.976a11.367,11.367,0,0,0-11.3,11.364A5.634,5.634,0,0,1,336.11,356Zm92.27,26.713c0,25.156-12.27,47.375-32.27,60.482V428.941C394,413.2,381.265,400,365.526,400h-2.543C375.539,396,385,384.631,385,370.767V350.6a6.619,6.619,0,0,0,4.35-5.816,21.173,21.173,0,0,0-21.161-21.076,16.162,16.162,0,0,1-4.652-.693,38.006,38.006,0,0,0-10.186-1.886A31.35,31.35,0,0,0,322,352.222v18.545C322,384.631,331.6,396,344.156,400h-2.543C325.874,400,313,413.2,313,428.941V443.4a71.919,71.919,0,0,1-32.526-60.686,72.9,72.9,0,1,1,145.8,0Z"/><path d="M370.982,421h-4.867a6,6,0,0,0,0,12h4.867a6,6,0,0,0,0-12Z"/><path d="M72,59.24a6,6,0,0,0,6-6V49.5a6,6,0,0,0-12,0V53.24A6,6,0,0,0,72,59.24Z"/><path d="M78,125.551v-50.6a6,6,0,1,0-12,0v50.6a6,6,0,0,0,12,0Z"/><path d="M182.232,248H303.248a6,6,0,1,0,0-12H182.232a6,6,0,1,0,0,12Z"/><path d="M121.17,240.855l-13.478,12.887-5.488-5.488a6,6,0,0,0-8.485,8.486l9.636,9.636a6,6,0,0,0,8.39.094l17.718-16.941a6,6,0,1,0-8.293-8.674Z"/><path d="M111.639,212.646a41.016,41.016,0,1,0,41.016,41.016A41.063,41.063,0,0,0,111.639,212.646Zm0,70.032a29.016,29.016,0,1,1,29.016-29.016A29.049,29.049,0,0,1,111.639,282.678Z"/><path d="M182.232,268h80.677a6,6,0,0,0,0-12H182.232a6,6,0,1,0,0,12Z"/><path d="M121.17,331.617,107.692,344.5l-5.488-5.487a6,6,0,0,0-8.485,8.485l9.637,9.636a6,6,0,0,0,8.389.094l17.718-16.941a6,6,0,1,0-8.293-8.674Z"/><path d="M111.639,303.408a41.016,41.016,0,1,0,41.016,41.016A41.063,41.063,0,0,0,111.639,303.408Zm0,70.032a29.016,29.016,0,1,1,29.016-29.016A29.049,29.049,0,0,1,111.639,373.44Z"/><path d="M182.232,157H303.248a6,6,0,0,0,0-12H182.232a6,6,0,1,0,0,12Z"/><path d="M121.17,150.093,107.692,162.98l-5.488-5.487a6,6,0,0,0-8.485,8.485l9.637,9.636a6,6,0,0,0,8.389.094l17.718-16.941a6,6,0,1,0-8.293-8.674Z"/><path d="M111.639,121.884A41.016,41.016,0,1,0,152.655,162.9,41.063,41.063,0,0,0,111.639,121.884Zm0,70.032A29.016,29.016,0,1,1,140.655,162.9,29.049,29.049,0,0,1,111.639,191.916Z"/><path d="M182.232,177h80.677a6,6,0,0,0,0-12H182.232a6,6,0,1,0,0,12Z"/><path d="M413.687,273.931l-32.37-12.494a6,6,0,0,0-6.7,1.678L364.2,275.192c-1.392-.14-2.785-.246-4.178-.335l-.84-153.826a6,6,0,0,0-1.782-4.241L248.948,9.6A15.77,15.77,0,0,0,237.789,5.05l-151.7.7A49.833,49.833,0,0,0,36.555,55.761l1.552,322.6A49.924,49.924,0,0,0,87.885,428h.24l147.01-.966,10.184,23.275a6,6,0,0,0,5.937,3.578l16.074-1.181a101.3,101.3,0,0,0,20.551,19.576l-.472,16.049a6,6,0,0,0,3.837,5.773L323.615,506.6a6,6,0,0,0,6.7-1.679l10.419-12.077a112.313,112.313,0,0,0,28.334-.732l11.147,11.623a6,6,0,0,0,6.735,1.344l31.8-13.912a6,6,0,0,0,3.579-5.937l-1.181-16.075A101.278,101.278,0,0,0,440.728,448.6l16.049.472a6.007,6.007,0,0,0,5.774-3.838l12.492-32.368a6,6,0,0,0-1.677-6.7l-12.074-10.42a112.415,112.415,0,0,0-.733-28.335l11.623-11.147a6,6,0,0,0,1.344-6.735l-13.912-31.8a6,6,0,0,0-5.937-3.579L437.6,315.33a101.262,101.262,0,0,0-20.552-19.577l.472-16.048A6,6,0,0,0,413.687,273.931ZM338.723,115.215,286.1,116h-.183a37.985,37.985,0,0,1-37.771-37.787L247.9,25.449ZM232.748,411.771a5.979,5.979,0,0,0-1.75,3.315L88.061,416h-.182a37.911,37.911,0,0,1-37.772-37.7L48.555,55.757a37.841,37.841,0,0,1,37.593-37.98l149.707-.732.294,61.226A50,50,0,0,0,285.919,128h.241l61.05-.6.806,147.347a112.434,112.434,0,0,0-12.16,1.18L324.709,264.3a6,6,0,0,0-6.735-1.344l-31.8,13.913a6,6,0,0,0-3.579,5.937l1.182,16.074A101.224,101.224,0,0,0,264.2,319.433l-16.049-.472a5.985,5.985,0,0,0-5.774,3.837l-1.242,3.218c-.1-.006-.21-.016-.317-.016H182.232a6,6,0,1,0,0,12H236.51l-3.088,8h-51.19a6,6,0,1,0,0,12h47.295a5.99,5.99,0,0,0,2.035,3.87l12.077,10.421a112.409,112.409,0,0,0,.733,28.334Zm197.236-86.652a6,6,0,0,0,5.265,2.416l15.073-1.108L460.854,350.5l-10.89,10.444a6,6,0,0,0-1.749,5.41,100.5,100.5,0,0,1,.8,31.084,6,6,0,0,0,2.03,5.316l11.279,9.734-9.442,24.465-15.064-.443a6.012,6.012,0,0,0-5.168,2.669,89.382,89.382,0,0,1-21.291,22.355,6,6,0,0,0-2.416,5.264l1.108,15.074L385.98,492.405l-10.444-10.89a5.993,5.993,0,0,0-5.41-1.749,100.63,100.63,0,0,1-31.084.8,5.989,5.989,0,0,0-5.316,2.03l-9.733,11.282-24.464-9.443.443-15.063a6,6,0,0,0-2.669-5.168,89.4,89.4,0,0,1-22.355-21.291,6.008,6.008,0,0,0-5.264-2.416l-15.073,1.108-10.534-24.074,10.89-10.444a6,6,0,0,0,1.749-5.41,100.5,100.5,0,0,1-.8-31.084,6,6,0,0,0-2.031-5.316L242.6,355.545l9.442-24.464,15.063.443a6.058,6.058,0,0,0,5.169-2.67,89.391,89.391,0,0,1,21.29-22.354,6,6,0,0,0,2.416-5.264l-1.107-15.073,24.073-10.533,10.444,10.891a6,6,0,0,0,5.41,1.749,100.54,100.54,0,0,1,31.089-.8,6.011,6.011,0,0,0,5.317-2.03l9.732-11.282L405.4,283.6l-.444,15.063a6,6,0,0,0,2.67,5.169A89.391,89.391,0,0,1,429.984,325.119Z"/></svg>
