<?xml version="1.0" encoding="UTF-8" standalone="no"?>
<!-- Generator: Adobe Illustrator 19.0.0, SVG Export Plug-In . SVG Version: 6.00 Build 0)  -->

<svg
   version="1.1"
   id="Capa_1"
   x="0px"
   y="0px"
   viewBox="0 0 415.998 415.998"
   style="enable-background:new 0 0 415.998 415.998;"
   xml:space="preserve"
   sodipodi:docname="clipboards.svg"
   inkscape:version="1.1 (c4e8f9e, 2021-05-24)"
   xmlns:inkscape="http://www.inkscape.org/namespaces/inkscape"
   xmlns:sodipodi="http://sodipodi.sourceforge.net/DTD/sodipodi-0.dtd"
   xmlns="http://www.w3.org/2000/svg"
   xmlns:svg="http://www.w3.org/2000/svg"><defs
   id="defs2477" /><sodipodi:namedview
   id="namedview2475"
   pagecolor="#ffffff"
   bordercolor="#666666"
   borderopacity="1.0"
   inkscape:pageshadow="2"
   inkscape:pageopacity="0.0"
   inkscape:pagecheckerboard="0"
   showgrid="false"
   inkscape:zoom="1.0192357"
   inkscape:cx="147.1691"
   inkscape:cy="168.75391"
   inkscape:window-width="1920"
   inkscape:window-height="1025"
   inkscape:window-x="3520"
   inkscape:window-y="27"
   inkscape:window-maximized="1"
   inkscape:current-layer="Capa_1" />
<g
   id="g2430">
	<g
   id="g2428">
		<circle
   cx="208.239"
   cy="48"
   r="12"
   id="circle2426" />
	</g>
</g>
<g
   id="g2436">
	<g
   id="g2434">
		<path
   d="M367.998,95.999c0-17.673-14.326-32-31.999-32h-44.424c-5.926-6.583-13.538-11.62-22.284-14.136    c-7.367-2.118-13.037-7.788-15.156-15.155C248.37,14.663,229.897,0,207.998,0c-21.898,0-40.37,14.663-46.134,34.706    c-2.122,7.376-7.806,13.039-15.182,15.164c-8.736,2.518-16.341,7.55-22.262,14.129H79.999c-17.674,0-32,14.327-32,32v287.999    c0,17.673,14.326,32,32,32c73.466,0,163.758,0,256,0c17.674,0,32-14.327,32-32C367.999,293.119,367.998,206.096,367.998,95.999z     M128,95.742c0.11-14.066,9.614-26.606,23.112-30.496c12.71-3.662,22.477-13.426,26.127-26.116    C181.157,25.51,193.805,16,207.998,16c14.194,0,26.842,9.51,30.758,23.13c3.652,12.698,13.413,22.459,26.111,26.11    c13.618,3.917,23.13,16.566,23.13,30.758v16H128V95.742z M335.999,399.998c-85.455,0-170.77,0-256,0c-8.823,0-16-7.178-16-16    V95.999c0-8.822,7.177-16,16-16h34.742c-1.73,4.892-2.698,10.143-2.74,15.617v32.383h191.998v-32c0-5.615-0.992-10.991-2.764-16    h34.764c8.822,0,15.999,7.178,15.999,16c0,45.743-0.001,260.254,0.002,287.999C351.999,392.82,344.822,399.998,335.999,399.998z"
   id="path2432" />
	</g>
</g>

<g
   id="g2444">
</g>
<g
   id="g2446">
</g>
<g
   id="g2448">
</g>
<g
   id="g2450">
</g>
<g
   id="g2452">
</g>
<g
   id="g2454">
</g>
<g
   id="g2456">
</g>
<g
   id="g2458">
</g>
<g
   id="g2460">
</g>
<g
   id="g2462">
</g>
<g
   id="g2464">
</g>
<g
   id="g2466">
</g>
<g
   id="g2468">
</g>
<g
   id="g2470">
</g>
<g
   id="g2472">
</g>
<g
   id="g2669"
   transform="matrix(0.40926353,0,0,0.40926353,109.25052,161.06225)"><path
     d="m 470.51562,274.66406 c -8.28515,0 -15,-6.71484 -15,-15 V 229.51562 C 455.51562,119.50391 366.01172,30 256,30 c -32.19531,0 -64.17969,7.84375 -92.48828,22.683594 -27.41797,14.375 -51.48828,35.285156 -69.60547,60.480466 -4.835938,6.72657 -14.210938,8.25782 -20.9375,3.41797 C 66.242188,111.74609 64.710938,102.375 69.550781,95.648438 90.378906,66.6875 118.05469,42.640625 149.58203,26.113281 182.17187,9.03125 218.97266,0 256,0 c 61.30469,0 118.94141,23.875 162.28906,67.222656 43.35156,43.351564 67.22656,100.988284 67.22656,162.292964 v 30.14844 c 0,8.28516 -6.71875,15 -15,15 z m 0,0"
     fill="#b9e969"
     id="path2639" /><path
     d="m 256,0 c -0.008,0 -0.0156,0 -0.0195,0 V 30 H 256 c 110.01172,0 199.51562,89.50391 199.51562,199.51562 v 30.14844 c 0,8.28516 6.71485,15 15,15 8.28125,0 15,-6.71484 15,-15 v -30.14844 c 0,-61.30468 -23.875,-118.9414 -67.22656,-162.292964 C 374.94141,23.875 317.30469,0 256,0 Z m 0,0"
     fill="#73c570"
     id="path2641" /><path
     d="m 470.51562,294.66406 c -4.30078,0 -8.39453,-1.84375 -11.24218,-5.0664 l -26.48828,-29.98438 c -5.48047,-6.20703 -4.89454,-15.6875 1.3125,-21.17187 6.21093,-5.48438 15.6875,-4.89844 21.17578,1.3125 l 15.24218,17.2539 15.24219,-17.2539 c 5.48438,-6.21094 14.96485,-6.79688 21.17578,-1.3125 6.20703,5.48437 6.79297,14.96484 1.3086,21.17187 l -26.48438,29.98438 c -2.84765,3.22265 -6.9414,5.0664 -11.24219,5.0664 z m 0,0"
     fill="#36a47c"
     id="path2643" /><path
     d="m 256,458.97266 c -61.30469,0 -118.94141,-23.875 -162.289062,-67.22266 C 50.359375,348.40234 26.488281,290.76562 26.488281,229.45703 v -30.14844 c 0,-8.28515 6.714844,-15 15,-15 8.28125,0 15,6.71485 15,15 v 30.14844 c 0,110.01563 89.499999,199.51563 199.511719,199.51563 32.19922,0 64.17969,-7.84375 92.48828,-22.6836 27.42188,-14.375 51.48828,-35.28515 69.60938,-60.48047 4.83593,-6.72265 14.21093,-8.2539 20.93359,-3.41796 6.72656,4.83593 8.25781,14.21093 3.42187,20.93359 -20.82812,28.96094 -48.5039,53.00781 -80.03515,69.53516 C 329.82812,449.94141 293.03125,458.97266 256,458.97266 Z m 0,0"
     fill="#b9e969"
     id="path2645" /><path
     d="m 439.03125,342.39062 c -6.72266,-4.83593 -16.09766,-3.30468 -20.93359,3.41797 -18.1211,25.19532 -42.19141,46.10938 -69.60938,60.48047 -28.30859,14.83985 -60.28906,22.6836 -92.48828,22.6836 -0.004,0 -0.0117,0 -0.0195,0 v 30 H 256 c 37.03125,0 73.82812,-9.03125 106.41797,-26.11329 31.53125,-16.52734 59.20703,-40.57031 80.03515,-69.53515 4.83594,-6.72266 3.30469,-16.09766 -3.42187,-20.9336 z m 0,0"
     fill="#73c570"
     id="path2647" /><path
     d="m 14.996094,224.29297 c -3.53125,0 -7.074219,-1.23828 -9.925782,-3.75781 -6.210937,-5.48438 -6.796874,-14.96485 -1.3125,-21.17579 L 30.242188,169.375 c 2.847656,-3.22266 6.941406,-5.06641 11.242187,-5.06641 4.300781,0 8.394531,1.84375 11.242187,5.06641 l 26.484376,29.98437 c 5.484374,6.21094 4.898437,15.6875 -1.308594,21.17579 -6.210938,5.48437 -15.691406,4.89453 -21.175782,-1.3125 L 41.484375,201.96484 26.242188,219.22266 c -2.964844,3.35546 -7.09375,5.07031 -11.246094,5.07031 z m 0,0"
     fill="#36a47c"
     id="path2649" /><path
     d="M 396.96484,258.78125 374.85937,246.01953 C 375.61719,240.54297 376,235.00391 376,229.45703 c 0,-5.60547 -0.39063,-11.20703 -1.16406,-16.74609 l 22.1289,-12.77735 c 3.44532,-1.98828 5.96094,-5.26562 6.98828,-9.10547 1.03125,-3.84375 0.49219,-7.9375 -1.5,-11.38281 l -30,-51.96093 c -4.14062,-7.17579 -13.3125,-9.63282 -20.48828,-5.49219 L 329.76172,134.8125 C 320.98828,127.98047 311.27734,122.37109 301,118.20313 V 92.570312 c 0,-8.285156 -6.71484,-15 -15,-15 h -60 c -8.28125,0 -15,6.714844 -15,15 v 25.632818 c -10.27344,4.16796 -19.98828,9.77734 -28.75781,16.60937 l -22.20313,-12.82031 c -7.17578,-4.14453 -16.35156,-1.6836 -20.49219,5.49219 l -29.99999,51.96093 c -1.98829,3.44531 -2.52735,7.53906 -1.5,11.38281 1.03125,3.83985 3.54687,7.11719 6.99218,9.10547 l 22.12891,12.77735 C 136.39453,218.25 136,223.85156 136,229.45703 c 0,5.54688 0.38281,11.08594 1.14062,16.5625 l -22.10156,12.76172 c -3.44531,1.98828 -5.96093,5.26562 -6.98828,9.10937 -1.03125,3.84375 -0.49219,7.9375 1.4961,11.38282 l 29.99999,51.96093 c 1.99219,3.44532 5.26954,5.95704 9.10938,6.98829 3.84375,1.03125 7.9375,0.49218 11.38281,-1.5 l 22.05469,-12.73438 c 8.8125,6.88281 18.57422,12.53125 28.91016,16.72656 v 25.4336 c 0,8.28515 6.71484,15 15,15 h 60 c 8.28125,0 15,-6.71485 15,-15 v -25.4336 c 10.33203,-4.1914 20.09375,-9.83984 28.90625,-16.72656 l 22.05468,12.73438 c 3.44532,1.99218 7.54297,2.52734 11.38282,1.5 3.84375,-1.02735 7.12109,-3.54297 9.10937,-6.98829 l 30,-51.96093 c 1.98828,-3.44532 2.52735,-7.54297 1.4961,-11.38282 -1.03125,-3.84375 -3.54297,-7.12109 -6.98829,-9.10937 z M 256,274.45703 c -24.85156,0 -45,-20.14453 -45,-45 0,-24.85156 20.14844,-45 45,-45 24.85156,0 45,20.14844 45,45 0,24.85547 -20.14844,45 -45,45 z m 0,0"
     fill="#d6d3c5"
     id="path2651" /><path
     d="m 403.95312,190.82812 c 1.02735,-3.84375 0.48829,-7.9375 -1.5,-11.38281 l -30,-51.96093 c -4.14062,-7.17579 -13.3164,-9.63282 -20.48828,-5.48829 L 329.76172,134.8125 C 320.98828,127.98438 311.27734,122.37109 301,118.20313 V 92.570312 c 0,-8.285156 -6.71484,-15 -15,-15 H 255.98047 V 184.46094 c 0.008,0 0.0156,-0.004 0.0195,-0.004 24.85547,0 45,20.14844 45,45 0,24.85547 -20.14453,45 -45,45 -0.004,0 -0.0117,0 -0.0195,0 v 106.6915 H 286 c 8.28516,0 15,-6.71485 15,-15 v -25.4336 c 10.33594,-4.1914 20.09766,-9.83984 28.90625,-16.72656 l 22.05859,12.73438 c 3.44141,1.99218 7.53907,2.52734 11.38282,1.5 3.83984,-1.02735 7.11718,-3.54297 9.10546,-6.98828 l 30,-51.96094 c 1.98829,-3.44531 2.52735,-7.54297 1.5,-11.38281 -1.03125,-3.84375 -3.54296,-7.1211 -6.98828,-9.10938 L 374.85937,246.01953 C 375.61719,240.54297 376,235.00391 376,229.45703 c 0,-5.60547 -0.39063,-11.20703 -1.16406,-16.74609 l 22.1289,-12.77735 c 3.44532,-1.98828 5.95703,-5.26562 6.98828,-9.10547 z m 0,0"
     fill="#b0ac9b"
     id="path2653" /></g></svg>
