<?xml version="1.0" encoding="UTF-8" standalone="no"?>
<!-- Generator: Adobe Illustrator 19.0.0, SVG Export Plug-In . SVG Version: 6.00 Build 0)  -->

<svg
   version="1.1"
   id="Capa_1"
   x="0px"
   y="0px"
   viewBox="0 0 415.998 415.998"
   style="enable-background:new 0 0 415.998 415.998;"
   xml:space="preserve"
   sodipodi:docname="clipboards.svg"
   inkscape:version="1.1 (c4e8f9e, 2021-05-24)"
   xmlns:inkscape="http://www.inkscape.org/namespaces/inkscape"
   xmlns:sodipodi="http://sodipodi.sourceforge.net/DTD/sodipodi-0.dtd"
   xmlns="http://www.w3.org/2000/svg"
   xmlns:svg="http://www.w3.org/2000/svg"><defs
   id="defs1016">
	

		
	</defs><sodipodi:namedview
   id="namedview1014"
   pagecolor="#ffffff"
   bordercolor="#666666"
   borderopacity="1.0"
   inkscape:pageshadow="2"
   inkscape:pageopacity="0.0"
   inkscape:pagecheckerboard="0"
   showgrid="false"
   inkscape:zoom="1.0192357"
   inkscape:cx="182.48969"
   inkscape:cy="197.2066"
   inkscape:window-width="1920"
   inkscape:window-height="1025"
   inkscape:window-x="3520"
   inkscape:window-y="27"
   inkscape:window-maximized="1"
   inkscape:current-layer="Capa_1" />



<g
   id="g983">
</g>
<g
   id="g985">
</g>
<g
   id="g987">
</g>
<g
   id="g989">
</g>
<g
   id="g991">
</g>
<g
   id="g993">
</g>
<g
   id="g995">
</g>
<g
   id="g997">
</g>
<g
   id="g999">
</g>
<g
   id="g1001">
</g>
<g
   id="g1003">
</g>
<g
   id="g1005">
</g>
<g
   id="g1007">
</g>
<g
   id="g1009">
</g>
<g
   id="g1011">
</g>
<g
   id="g1209"><g
     id="g969">
	<g
   id="g967">
		<circle
   cx="208.239"
   cy="48"
   r="12"
   id="circle965" />
	</g>
</g><path
     d="m 367.998,95.999 c 0,-17.673 -14.326,-32 -31.999,-32 H 291.575 C 285.649,57.416 278.037,52.379 269.291,49.863 261.924,47.745 256.254,42.075 254.135,34.708 248.37,14.663 229.897,0 207.998,0 186.1,0 167.628,14.663 161.864,34.706 c -2.122,7.376 -7.806,13.039 -15.182,15.164 -8.736,2.518 -16.341,7.55 -22.262,14.129 H 79.999 c -17.674,0 -32,14.327 -32,32 v 287.999 c 0,17.673 14.326,32 32,32 73.466,0 163.758,0 256,0 17.674,0 32,-14.327 32,-32 0,-90.879 -0.001,-177.902 -0.001,-287.999 z M 128,95.742 C 128.11,81.676 137.614,69.136 151.112,65.246 163.822,61.584 173.589,51.82 177.239,39.13 181.157,25.51 193.805,16 207.998,16 c 14.194,0 26.842,9.51 30.758,23.13 3.652,12.698 13.413,22.459 26.111,26.11 13.618,3.917 23.13,16.566 23.13,30.758 v 16 H 128 Z m 207.999,304.256 c -85.455,0 -170.77,0 -256,0 -8.823,0 -16,-7.178 -16,-16 V 95.999 c 0,-8.822 7.177,-16 16,-16 h 34.742 c -1.73,4.892 -2.698,10.143 -2.74,15.617 v 32.383 h 191.998 v -32 c 0,-5.615 -0.992,-10.991 -2.764,-16 h 34.764 c 8.822,0 15.999,7.178 15.999,16 0,45.743 -10e-4,260.254 0.002,287.999 -10e-4,8.822 -7.178,16 -16.001,16 z"
     id="path971" /><g
     id="g1068"
     transform="matrix(0.95276099,0.20248883,-0.20248883,0.95276099,138.44465,100.05218)"><path
       d="m 23.704131,145.47565 c 0.440423,-0.38675 5.038717,1.99016 5.513548,2.19936 4.669862,2.05348 9.191082,4.43176 13.526498,7.1211 11.226665,6.8706 20.640711,16.33419 27.452131,27.59664 5.542452,9.22962 9.738857,26.37997 23.135982,26.37997 6.417791,0 13.7123,0.20783 18.58999,-4.68775 5.96223,-5.99113 6.06958,-14.73491 7.91248,-22.46984 9.1319,-36.47943 26.57128,-70.35348 50.95421,-98.982369 1.49744,-1.790595 3.01828,-3.563299 4.55976,-5.316734 3.13113,-3.519256 6.45358,-6.863721 9.95081,-10.019628 0.47483,-0.430789 1.29787,-1.313012 2.27919,-2.32048 0.89874,-0.916631 1.15473,-2.286072 0.64687,-3.46558 -0.50648,-1.179509 -1.67636,-1.936486 -2.96047,-1.914465 -20.15074,0.63999 -68.09631,11.188126 -95.098384,92.209486 0,0 -41.143785,-28.48437 -66.462615,-6.32971 z m 0,0"
       fill="#4fba6f"
       id="path876"
       style="stroke-width:0.352339" /><g
       fill="#71c285"
       id="g882"
       transform="matrix(0.35233858,0,0,0.35233858,18.691564,59.595874)"><path
         d="m 301.66797,162.89844 c -1.52344,0 -3.01953,-0.38672 -4.34766,-1.13282 -4.33594,-2.40625 -5.89844,-7.87109 -3.49609,-12.20703 C 339.55469,67.234375 394.1875,39.238281 396.45703,38.085938 c 4.4375,-2.230469 9.83984,-0.445313 12.07422,3.988281 2.23047,4.4375 0.44531,9.839843 -3.98828,12.074219 -0.6836,0.347656 -52.22266,27.152343 -94.98828,104.125002 -1.58985,2.86328 -4.61328,4.63672 -7.88672,4.625 z m 0,0"
         id="path878" /><path
         d="m 274.71875,207.80859 c -3.11328,0 -6,-1.61328 -7.63672,-4.25781 -1.63672,-2.64844 -1.78516,-5.95312 -0.39453,-8.73828 l 8.98437,-17.96484 c 1.4336,-2.8711 4.29297,-4.75782 7.4961,-4.94922 3.20703,-0.19141 6.26953,1.33984 8.03515,4.01953 1.76954,2.67969 1.97266,6.09765 0.53907,8.96875 l -8.98438,17.96484 c -1.52344,3.04297 -4.63672,4.96094 -8.03906,4.95703 z m 0,0"
         id="path880" /></g></g></g></svg>
