<svg id="Layer_1" height="512" viewBox="0 0 256 256" width="512" xmlns="http://www.w3.org/2000/svg"><g><path d="m47.992 26.131s3.408 12.659 13.222 13.246c0 0-13.1 4.525-13.321 14.202 0 0-2.578-13.572-12.925-14.059-.001 0 12.05-1.825 13.024-13.389z" fill="#d6df58"/><path d="m47.892 55.079c-.713 0-1.335-.506-1.473-1.217-.023-.125-2.494-12.419-11.522-12.844-.771-.036-1.388-.65-1.428-1.421-.04-.77.511-1.444 1.273-1.561.441-.068 10.895-1.817 11.754-12.032.061-.726.635-1.301 1.359-1.367.742-.052 1.394.399 1.584 1.102.031.116 3.259 11.626 11.864 12.141.714.042 1.297.583 1.396 1.292.098.708-.318 1.388-.994 1.622-.121.042-12.119 4.311-12.313 12.82-.018.767-.61 1.396-1.375 1.46-.041.003-.083.005-.125.005zm-7.742-15.729c3.878 1.969 6.231 5.746 7.587 8.876 2.026-4.021 5.941-6.787 8.949-8.427-4.135-1.843-6.784-5.651-8.335-8.723-1.792 4.361-5.27 6.868-8.201 8.274z" fill="#3a312a"/><path d="m26.293 43.111s2.411 8.954 9.352 9.369c0 0-9.266 3.201-9.422 10.045 0 0-1.824-9.6-9.142-9.944-.001.001 8.523-1.29 9.212-9.47z" fill="#d6df58"/><path d="m26.222 64.026c-.714 0-1.337-.507-1.473-1.22-.016-.082-1.704-8.442-7.739-8.726-.771-.036-1.388-.65-1.428-1.421-.04-.77.511-1.444 1.273-1.561.296-.047 7.363-1.243 7.942-8.113.062-.726.636-1.303 1.361-1.368.715-.054 1.392.399 1.582 1.102.021.079 2.227 7.92 7.993 8.265.714.042 1.299.584 1.396 1.293s-.32 1.388-.996 1.622c-.081.028-8.282 2.953-8.412 8.662-.018.768-.611 1.397-1.376 1.461-.04.002-.082.004-.123.004zm-4.52-11.527c2.108 1.332 3.523 3.394 4.447 5.279 1.376-2.232 3.516-3.872 5.365-4.973-2.287-1.269-3.885-3.35-4.941-5.224-1.174 2.287-3.015 3.876-4.871 4.918z" fill="#3a312a"/><path d="m26.293 16.454s2.411 8.954 9.352 9.37c0 0-9.266 3.201-9.422 10.045 0 0-1.824-9.6-9.142-9.944-.001-.001 8.523-1.292 9.212-9.471z" fill="#d6df58"/><path d="m26.222 37.369c-.714 0-1.337-.507-1.473-1.22-.016-.082-1.704-8.442-7.739-8.726-.771-.036-1.388-.65-1.428-1.421-.04-.77.511-1.444 1.273-1.561.296-.047 7.363-1.243 7.942-8.113.062-.726.636-1.303 1.361-1.368.715-.053 1.392.399 1.582 1.102.021.079 2.227 7.92 7.993 8.265.714.042 1.299.584 1.396 1.293s-.32 1.388-.996 1.622c-.081.028-8.282 2.953-8.412 8.662-.018.768-.611 1.397-1.376 1.461-.04.002-.082.004-.123.004zm-4.52-11.528c2.108 1.333 3.523 3.395 4.447 5.28 1.376-2.232 3.516-3.872 5.365-4.973-2.287-1.268-3.885-3.35-4.941-5.224-1.174 2.287-3.015 3.876-4.871 4.917z" fill="#3a312a"/><path d="m16.55 147.542v76.622c0 8.495 6.887 15.382 15.382 15.382h192.236c8.495 0 15.382-6.887 15.382-15.382v-125.667h-223v35.783z" fill="#fce8cb"/><path d="m224.168 241.046h-192.236c-9.309 0-16.882-7.573-16.882-16.882v-76.622c0-.828.672-1.5 1.5-1.5s1.5.672 1.5 1.5v76.622c0 7.654 6.227 13.882 13.882 13.882h192.236c7.654 0 13.882-6.227 13.882-13.882v-124.167h-220v34.283c0 .828-.672 1.5-1.5 1.5s-1.5-.672-1.5-1.5v-35.783c0-.828.672-1.5 1.5-1.5h223c.828 0 1.5.672 1.5 1.5v125.667c0 9.309-7.573 16.882-16.882 16.882z" fill="#3a312a"/><path d="m136.05 68.83h-104.218c-8.495 0-15.382 6.887-15.382 15.382v14.285h223v-14.285c0-8.495-6.887-15.382-15.382-15.382h-75.218z" fill="#87796f"/><path d="m239.45 99.997h-223c-.828 0-1.5-.672-1.5-1.5v-14.285c0-9.309 7.573-16.882 16.882-16.882h104.218c.828 0 1.5.672 1.5 1.5s-.672 1.5-1.5 1.5h-104.218c-7.654 0-13.882 6.228-13.882 13.882v12.785h220v-12.785c0-7.654-6.227-13.882-13.882-13.882h-75.218c-.828 0-1.5-.672-1.5-1.5s.672-1.5 1.5-1.5h75.218c9.309 0 16.882 7.573 16.882 16.882v14.285c0 .828-.672 1.5-1.5 1.5z" fill="#3a312a"/><circle cx="36.95" cy="83.83" fill="#f16c7a" r="6.75"/><path d="m36.95 92.08c-4.549 0-8.25-3.701-8.25-8.25s3.701-8.25 8.25-8.25 8.25 3.701 8.25 8.25-3.701 8.25-8.25 8.25zm0-13.5c-2.895 0-5.25 2.355-5.25 5.25s2.355 5.25 5.25 5.25 5.25-2.355 5.25-5.25c0-2.894-2.355-5.25-5.25-5.25z" fill="#3a312a"/><circle cx="65.2" cy="83.83" fill="#d7e057" r="6.75"/><path d="m65.2 92.08c-4.549 0-8.25-3.701-8.25-8.25s3.701-8.25 8.25-8.25 8.25 3.701 8.25 8.25-3.701 8.25-8.25 8.25zm0-13.5c-2.895 0-5.25 2.355-5.25 5.25s2.355 5.25 5.25 5.25 5.25-2.355 5.25-5.25c0-2.894-2.355-5.25-5.25-5.25z" fill="#3a312a"/><circle cx="93.45" cy="83.83" fill="#8ac6dd" r="6.75"/><path d="m93.45 92.08c-4.549 0-8.25-3.701-8.25-8.25s3.701-8.25 8.25-8.25 8.25 3.701 8.25 8.25-3.701 8.25-8.25 8.25zm0-13.5c-2.895 0-5.25 2.355-5.25 5.25s2.355 5.25 5.25 5.25 5.25-2.355 5.25-5.25c0-2.894-2.355-5.25-5.25-5.25z" fill="#3a312a"/><path d="m236.45 44.427h-1.382c-.81-3.541-2.222-6.853-4.124-9.821l1.017-1.017c1.172-1.172 1.172-3.071 0-4.243l-5.402-5.402c-1.172-1.172-3.071-1.172-4.243 0l-1.055 1.055c-2.962-1.866-6.26-3.247-9.783-4.033v-1.511c0-1.657-1.343-3-3-3h-7.64c-1.657 0-3 1.343-3 3v1.511c-1.867.503-6.821 2.167-9.783 4.033l-1.055-1.055c-1.172-1.172-3.071-1.172-4.243 0l-5.402 5.402c-1.172 1.172-1.172 3.071 0 4.243l1.017 1.017c-1.902 2.968-3.314 6.28-4.124 9.821h-1.382c-1.657 0-3 1.343-3 3v7.64c0 1.657 1.343 3 3 3h1.31c.779 3.585 2.174 6.94 4.069 9.948l-.89.89c-1.172 1.172-1.172 3.071 0 4.243l5.402 5.402c1.172 1.172 3.071 1.172 4.243 0l.852-.852c3.014 1.931 6.383 3.356 9.987 4.16v1.181c0 1.657 1.343 3 3 3h7.64c1.657 0 3-1.343 3-3v-1.181c3.603-.804 6.972-2.229 9.987-4.16l.852.852c1.172 1.172 3.071 1.172 4.243 0l5.402-5.402c1.172-1.172 1.172-3.071 0-4.243l-.89-.89c1.895-3.008 3.29-6.363 4.069-9.948h1.31c1.657 0 3-1.343 3-3v-7.64c-.002-1.657-1.345-3-3.002-3zm-31.793 22.418c-8.615 0-15.598-6.984-15.598-15.598 0-8.615 6.984-15.598 15.598-15.598 8.615 0 15.598 6.984 15.598 15.598 0 8.615-6.983 15.598-15.598 15.598z" fill="#d7e057"/><path d="m208.477 87.54h-7.64c-2.481 0-4.5-2.019-4.5-4.5v-.001c-2.904-.762-5.675-1.915-8.264-3.442l-.016.016c-.848.849-1.979 1.317-3.181 1.317s-2.333-.468-3.183-1.318l-5.401-5.402c-1.755-1.755-1.755-4.609 0-6.364l.059-.059c-1.496-2.579-2.624-5.335-3.363-8.219h-.124c-2.482 0-4.501-2.019-4.501-4.5v-7.64c0-2.481 2.02-4.501 4.501-4.501h.209c.762-2.843 1.901-5.558 3.4-8.098l-.18-.18c-1.755-1.755-1.755-4.609 0-6.364l5.401-5.402c.85-.851 1.98-1.318 3.183-1.318 1.202 0 2.333.469 3.183 1.318l.236.236c2.667-1.462 6.08-2.667 8.041-3.275v-.39c0-2.481 2.019-4.5 4.5-4.5h7.64c2.481 0 4.5 2.019 4.5 4.5v.332c2.823.74 5.522 1.854 8.054 3.321l.225-.225c1.753-1.756 4.609-1.757 6.364 0l5.401 5.402c1.755 1.755 1.755 4.609 0 6.364l-.179.18c1.498 2.54 2.638 5.255 3.398 8.098h.21c2.481 0 4.5 2.02 4.5 4.501v7.64c0 2.481-2.019 4.5-4.5 4.5h-.125c-.739 2.884-1.867 5.64-3.363 8.219l.059.059c1.755 1.755 1.755 4.609 0 6.364l-5.401 5.402c-1.753 1.753-4.609 1.756-6.364 0l-.015-.015c-2.589 1.527-5.359 2.682-8.264 3.442v.001c0 2.482-2.019 4.501-4.5 4.501zm-20.625-11.341c.278 0 .56.078.809.237 2.923 1.872 6.12 3.204 9.503 3.959.686.152 1.174.762 1.174 1.464v1.181c0 .827.673 1.5 1.5 1.5h7.64c.827 0 1.5-.673 1.5-1.5v-1.181c0-.702.487-1.312 1.174-1.464 3.383-.755 6.58-2.087 9.505-3.959.595-.381 1.373-.295 1.869.202l.852.851c.585.583 1.535.584 2.122 0l5.401-5.402c.585-.585.585-1.537 0-2.122l-.89-.89c-.495-.495-.582-1.268-.209-1.86 1.839-2.918 3.142-6.103 3.873-9.467.15-.689.76-1.182 1.466-1.182h1.311c.827 0 1.5-.673 1.5-1.5v-7.64c0-.828-.673-1.501-1.5-1.501h-1.383c-.699 0-1.307-.483-1.462-1.166-.76-3.323-2.081-6.468-3.925-9.346-.381-.594-.296-1.372.202-1.87l1.017-1.017c.585-.585.585-1.537 0-2.122l-5.401-5.402c-.587-.585-1.537-.583-2.122 0l-1.056 1.056c-.494.496-1.268.58-1.86.209-2.873-1.812-6.006-3.103-9.31-3.839-.686-.152-1.174-.761-1.174-1.464v-1.512c0-.827-.673-1.5-1.5-1.5h-7.64c-.827 0-1.5.673-1.5 1.5v1.512c0 .678-.455 1.273-1.11 1.448-1.855.5-6.589 2.1-9.373 3.854-.592.371-1.366.287-1.86-.209l-1.056-1.056c-.566-.566-1.556-.564-2.122 0l-5.401 5.402c-.585.585-.585 1.537 0 2.122l1.017 1.017c.498.498.583 1.276.202 1.869-1.843 2.879-3.164 6.023-3.925 9.348-.156.682-.763 1.165-1.462 1.165h-1.382c-.828 0-1.501.673-1.501 1.501v7.64c0 .827.673 1.5 1.501 1.5h1.309c.706 0 1.316.492 1.466 1.182.731 3.363 2.034 6.549 3.873 9.467.373.593.286 1.365-.209 1.86l-.89.89c-.585.585-.585 1.537 0 2.122l5.401 5.402c.566.566 1.557.566 2.121 0l.855-.852c.288-.287.672-.437 1.06-.437zm16.805-7.853c-9.428 0-17.099-7.671-17.099-17.099s7.671-17.099 17.099-17.099 17.098 7.671 17.098 17.099-7.67 17.099-17.098 17.099zm0-31.198c-7.774 0-14.099 6.324-14.099 14.099s6.324 14.099 14.099 14.099c7.773 0 14.098-6.324 14.098-14.099s-6.324-14.099-14.098-14.099z" fill="#3a312a"/><path d="m224.45 100v124.16c0 6.12-3.58 11.41-8.76 13.89h8.38c7.65 0 13.88-6.23 13.88-13.89v-124.16z" fill="#decaad"/><path d="m233.3 73.87c-.09.11-.17.23-.28.34l-5.4 5.4c-.96.97-2.26 1.4-3.53 1.3.24 1.06.36 2.17.36 3.3v12.79h13.5v-12.79c0-4.11-1.81-7.79-4.65-10.34z" fill="#695b51"/><path d="m115.574 188.909h18.966v27.112h-18.966z" fill="#ef6d7a"/><path d="m134.54 217.521h-18.967c-.828 0-1.5-.672-1.5-1.5v-27.112c0-.828.672-1.5 1.5-1.5h18.967c.828 0 1.5.672 1.5 1.5v27.112c0 .829-.672 1.5-1.5 1.5zm-17.467-3h15.967v-24.112h-15.967z" fill="#3a312a"/><path d="m141.902 161.376h18.966v54.645h-18.966z" fill="#d6df58"/><path d="m160.869 217.521h-18.967c-.828 0-1.5-.672-1.5-1.5v-54.645c0-.828.672-1.5 1.5-1.5h18.967c.828 0 1.5.672 1.5 1.5v54.645c0 .829-.672 1.5-1.5 1.5zm-17.467-3h15.967v-51.645h-15.967z" fill="#3a312a"/><path d="m168.231 175.292h18.966v40.729h-18.966z" fill="#8ac5dc"/><path d="m187.197 217.521h-18.966c-.828 0-1.5-.672-1.5-1.5v-40.729c0-.828.672-1.5 1.5-1.5h18.966c.828 0 1.5.672 1.5 1.5v40.729c0 .829-.672 1.5-1.5 1.5zm-17.466-3h15.966v-37.729h-15.966z" fill="#3a312a"/><path d="m194.56 150.694h18.966v65.327h-18.966z" fill="#87796f"/><path d="m213.526 217.521h-18.966c-.828 0-1.5-.672-1.5-1.5v-65.327c0-.828.672-1.5 1.5-1.5h18.967c.828 0 1.5.672 1.5 1.5v65.327c-.001.829-.672 1.5-1.501 1.5zm-17.466-3h15.967v-62.327h-15.967z" fill="#3a312a"/><path d="m125.027 166.236c-.37 0-.74-.136-1.03-.41-.603-.569-.629-1.519-.06-2.12l26.032-27.535c.459-.486 1.188-.609 1.783-.3l25.759 13.43 25.511-23.876c.606-.567 1.555-.535 2.12.069.566.605.535 1.555-.069 2.12l-26.287 24.602c-.467.436-1.156.529-1.719.235l-25.696-13.397-25.254 26.712c-.295.313-.692.47-1.09.47z" fill="#3a312a"/><path d="m129.553 164.723c0 2.488-2.017 4.505-4.505 4.505s-4.505-2.017-4.505-4.505 2.017-4.505 4.505-4.505c2.488-.001 4.505 2.016 4.505 4.505z" fill="#ef6d7a"/><path d="m125.048 170.727c-3.312 0-6.005-2.693-6.005-6.005s2.693-6.005 6.005-6.005 6.006 2.693 6.006 6.005-2.695 6.005-6.006 6.005zm0-9.009c-1.657 0-3.005 1.348-3.005 3.005s1.348 3.005 3.005 3.005 3.006-1.348 3.006-3.005c0-1.658-1.349-3.005-3.006-3.005z" fill="#3a312a"/><path d="m155.57 137.182c0 2.488-2.017 4.505-4.505 4.505s-4.505-2.017-4.505-4.505 2.017-4.505 4.505-4.505 4.505 2.017 4.505 4.505z" fill="#d6df58"/><path d="m151.065 143.186c-3.311 0-6.005-2.693-6.005-6.005 0-3.311 2.693-6.005 6.005-6.005s6.005 2.693 6.005 6.005-2.693 6.005-6.005 6.005zm0-9.009c-1.657 0-3.005 1.348-3.005 3.005s1.348 3.005 3.005 3.005 3.005-1.348 3.005-3.005c0-1.658-1.347-3.005-3.005-3.005z" fill="#3a312a"/><path d="m182.265 151.126c0 2.488-2.017 4.505-4.505 4.505s-4.505-2.017-4.505-4.505 2.017-4.505 4.505-4.505 4.505 2.016 4.505 4.505z" fill="#8ac5dc"/><path d="m177.76 157.131c-3.312 0-6.006-2.693-6.006-6.005s2.694-6.006 6.006-6.006 6.005 2.694 6.005 6.006-2.694 6.005-6.005 6.005zm0-9.011c-1.657 0-3.006 1.349-3.006 3.006s1.349 3.005 3.006 3.005 3.005-1.348 3.005-3.005-1.348-3.006-3.005-3.006z" fill="#3a312a"/><path d="m208.557 126.527c0 2.488-2.017 4.505-4.505 4.505s-4.505-2.017-4.505-4.505 2.017-4.505 4.505-4.505c2.488-.001 4.505 2.016 4.505 4.505z" fill="#87796f"/><path d="m204.052 132.532c-3.312 0-6.005-2.694-6.005-6.006s2.693-6.005 6.005-6.005c3.311 0 6.005 2.693 6.005 6.005s-2.694 6.006-6.005 6.006zm0-9.011c-1.657 0-3.005 1.348-3.005 3.005s1.348 3.006 3.005 3.006 3.005-1.349 3.005-3.006-1.348-3.005-3.005-3.005z" fill="#3a312a"/><path d="m82.711 125.587c-8.858-5.09-20.247-4.858-29.06 1.521-7.171 5.19-11.012 13.271-11.076 21.491l26.782.196z" fill="#8ac5dc"/><path d="m69.356 150.295c-.004 0-.007 0-.011 0l-26.782-.196c-.398-.003-.778-.164-1.058-.447-.279-.284-.435-.667-.432-1.064.071-8.961 4.444-17.444 11.697-22.693 9.003-6.516 21.048-7.145 30.687-1.607.346.198.598.525.701.91.104.384.051.794-.149 1.139l-13.354 23.208c-.266.464-.762.75-1.299.75zm-25.225-3.185 24.361.178 12.147-21.109c-8.377-4.173-18.47-3.384-26.108 2.144-6.078 4.399-9.893 11.337-10.4 18.787z" fill="#3a312a"/><path d="m69.357 148.795-26.782-.196c-.049 5.517 1.602 11.092 5.084 15.903 4.505 6.225 11.187 9.937 18.249 10.853z" fill="#d6df58"/><path d="m65.91 176.855c-.064 0-.129-.004-.194-.013-7.811-1.012-14.655-5.082-19.271-11.46-3.566-4.928-5.424-10.736-5.37-16.797.008-.823.678-1.486 1.5-1.486h.011l26.782.196c.43.003.838.19 1.12.514s.412.754.357 1.18l-3.448 26.56c-.099.755-.745 1.306-1.487 1.306zm-21.806-26.745c.242 4.871 1.877 9.515 4.77 13.512 3.832 5.295 9.382 8.809 15.745 10.01l3.031-23.35z" fill="#3a312a"/><path d="m65.908 175.355c.133.02.264.034.397.05 6.412.737 13.107-.831 18.746-4.912 11.396-8.248 14.378-23.795 7.179-35.603l-22.874 13.906z" fill="#ef6d7a"/><path d="m69.377 177.08c-1.078 0-2.16-.061-3.242-.186-.191-.022-.317-.037-.444-.056-.811-.119-1.375-.866-1.27-1.678l3.448-26.56c.059-.451.319-.852.708-1.089l22.874-13.905c.706-.428 1.63-.205 2.059.501 7.618 12.494 4.288 29.009-7.579 37.599-4.854 3.515-10.634 5.374-16.554 5.374zm-1.782-3.064c5.94.4 11.766-1.255 16.577-4.738 10.202-7.384 13.347-21.316 7.52-32.305l-20.94 12.729z" fill="#3a312a"/><path d="m69.261 148.726 22.799-13.98c-.36-.599-.748-1.187-1.163-1.763-2.247-3.122-5.057-5.594-8.199-7.382z" fill="#87796f"/><g fill="#3a312a"><path d="m69.261 150.226c-.382 0-.76-.146-1.048-.427-.492-.48-.595-1.232-.249-1.827l13.438-23.125c.415-.712 1.326-.954 2.038-.55 3.433 1.952 6.351 4.579 8.676 7.81.436.605.85 1.232 1.231 1.865.425.705.201 1.622-.501 2.052l-22.8 13.98c-.243.149-.515.222-.785.222zm13.965-22.548-9.682 16.662 16.425-10.071c-.095-.138-.192-.275-.288-.409-1.779-2.471-3.946-4.546-6.455-6.182z"/><path d="m96.435 189.521h-53.862c-.828 0-1.5-.672-1.5-1.5s.672-1.5 1.5-1.5h53.861c.828 0 1.5.672 1.5 1.5s-.671 1.5-1.499 1.5z"/><path d="m96.435 203.521h-53.862c-.828 0-1.5-.672-1.5-1.5s.672-1.5 1.5-1.5h53.861c.828 0 1.5.672 1.5 1.5s-.671 1.5-1.499 1.5z"/><path d="m96.435 217.521h-53.862c-.828 0-1.5-.672-1.5-1.5s.672-1.5 1.5-1.5h53.861c.828 0 1.5.672 1.5 1.5s-.671 1.5-1.499 1.5z"/></g></g></svg>