<?xml version="1.0" encoding="UTF-8" standalone="no"?>
<!-- Generator: Adobe Illustrator 19.0.0, SVG Export Plug-In . SVG Version: 6.00 Build 0)  -->

<svg
   version="1.1"
   id="Layer_1"
   x="0px"
   y="0px"
   viewBox="0 0 391.29144 475.62646"
   xml:space="preserve"
   sodipodi:docname="download.svg"
   width="391.29144"
   height="475.62646"
   inkscape:version="1.1 (c4e8f9e, 2021-05-24)"
   xmlns:inkscape="http://www.inkscape.org/namespaces/inkscape"
   xmlns:sodipodi="http://sodipodi.sourceforge.net/DTD/sodipodi-0.dtd"
   xmlns="http://www.w3.org/2000/svg"
   xmlns:svg="http://www.w3.org/2000/svg"><defs
   id="defs969" /><sodipodi:namedview
   id="namedview967"
   pagecolor="#ffffff"
   bordercolor="#666666"
   borderopacity="1.0"
   inkscape:pageshadow="2"
   inkscape:pageopacity="0.0"
   inkscape:pagecheckerboard="0"
   showgrid="false"
   inkscape:zoom="0.5855728"
   inkscape:cx="408.14737"
   inkscape:cy="483.28747"
   inkscape:window-width="1920"
   inkscape:window-height="1025"
   inkscape:window-x="3520"
   inkscape:window-y="27"
   inkscape:window-maximized="1"
   inkscape:current-layer="layer2" />




<g
   id="g936"
   transform="translate(-10.107961,-27.826484)">
</g>
<g
   id="g938"
   transform="translate(-10.107961,-27.826484)">
</g>
<g
   id="g940"
   transform="translate(-10.107961,-27.826484)">
</g>
<g
   id="g942"
   transform="translate(-10.107961,-27.826484)">
</g>
<g
   id="g944"
   transform="translate(-10.107961,-27.826484)">
</g>
<g
   id="g946"
   transform="translate(-10.107961,-27.826484)">
</g>
<g
   id="g948"
   transform="translate(-10.107961,-27.826484)">
</g>
<g
   id="g950"
   transform="translate(-10.107961,-27.826484)">
</g>
<g
   id="g952"
   transform="translate(-10.107961,-27.826484)">
</g>
<g
   id="g954"
   transform="translate(-10.107961,-27.826484)">
</g>
<g
   id="g956"
   transform="translate(-10.107961,-27.826484)">
</g>
<g
   id="g958"
   transform="translate(-10.107961,-27.826484)">
</g>
<g
   id="g960"
   transform="translate(-10.107961,-27.826484)">
</g>
<g
   id="g962"
   transform="translate(-10.107961,-27.826484)">
</g>
<g
   id="g964"
   transform="translate(-10.107961,-27.826484)">
</g>
<g
   inkscape:groupmode="layer"
   id="layer1"
   inkscape:label="Layer 1"
   transform="translate(-10.107961,-27.826484)" /><g
   inkscape:groupmode="layer"
   id="layer2"
   inkscape:label="Layer 2"
   transform="translate(-10.107961,-27.826484)"><g
     id="g1300"><g
       id="g1233"
       transform="matrix(0.76882268,0,0,0.76882268,-8.938852,27.826484)"><path
         d="M 82.581,330.323 H 66.064 c -22.804,0 -41.29,-18.486 -41.29,-41.29 0,-13.682 11.092,-24.774 24.774,-24.774 H 82.58 v 66.064 z"
         fill="#bd4150"
         id="path1211" /><path
         d="M 396.387,0 H 90.839 L 82.333,16.516 V 504 H 470.71 l 16.516,-8.516 V 90.839 Z"
         fill="#eceaec"
         id="path1213" /><path
         d="M 90.839,470.71 V 0 C 81.718,0 74.323,7.394 74.323,16.516 v 478.968 c 0,9.122 7.395,16.516 16.516,16.516 H 470.71 c 9.121,0 16.516,-7.395 16.516,-16.516 H 115.613 c -13.683,0 -24.774,-11.092 -24.774,-24.774 z"
         fill="#dad8db"
         id="path1215" /><path
         d="m 487.226,89.421 c 0,-4.38 -1.74,-8.581 -4.838,-11.679 L 409.48,4.837 C 406.383,1.74 402.182,0 397.802,0 h -1.415 v 82.581 c 0,4.56 3.697,8.258 8.258,8.258 h 82.581 z"
         fill="#dad8db"
         id="path1217" /><path
         d="m 305.548,313.807 h -256 c -2.896,0 -5.677,-0.497 -8.261,-1.411 l -7.954,13.271 V 430 c 0,13.683 11.092,24.774 24.774,24.774 h 247.441 l 16.516,-8.839 V 330.323 c 0,-9.122 -7.394,-16.516 -16.516,-16.516 z"
         fill="#e15f78"
         id="path1219" /><path
         d="m 41.29,312.396 c -9.6,-3.413 -16.516,-12.592 -16.516,-23.364 v 148.645 c 0,13.682 11.092,24.774 24.774,24.774 h 256 c 9.121,0 16.516,-7.395 16.516,-16.516 h -256 c -13.682,0 -24.774,-11.092 -24.774,-24.774 z"
         fill="#db4655"
         id="path1221" /><g
         fill="#ffffff"
         id="g1229"><path
           d="m 260.452,379.25 h -16.21 v -15.653 h 18.323 c 4.565,0 8.258,-3.698 8.258,-8.258 0,-4.56 -3.694,-8.258 -8.258,-8.258 h -26.581 c -4.565,0 -8.258,3.698 -8.258,8.258 v 65.581 c 0,4.56 3.694,8.258 8.258,8.258 4.564,0 8.258,-3.698 8.258,-8.258 v -25.153 h 16.21 c 4.565,0 8.258,-3.698 8.258,-8.258 0,-4.56 -3.694,-8.259 -8.258,-8.259 z"
           id="path1223" /><path
           d="M 108.992,346.839 H 90.597 c -2.194,0 -4.298,0.875 -5.847,2.427 -1.541,1.549 -2.406,3.647 -2.406,5.831 h -0.006 v 66.065 c 0,4.56 3.694,8.258 8.258,8.258 4.564,0 8.258,-3.698 8.258,-8.258 V 400.68 c 3.705,-0.02 7.778,-0.038 10.137,-0.038 15.032,0 27.266,-12.069 27.266,-26.899 0.001,-14.836 -12.233,-26.904 -27.265,-26.904 z m 0,37.286 c -2.339,0 -6.371,0.016 -10.056,0.036 -0.016,-3.81 -0.056,-20.806 -0.056,-20.806 h 10.113 c 5.831,0 10.75,4.758 10.75,10.387 0,5.629 -4.92,10.383 -10.751,10.383 z"
           id="path1225" /><path
           d="m 178.242,347.815 h -18.153 c -2.194,0 -4.298,0.871 -5.847,2.423 -1.548,1.552 -2.419,3.657 -2.411,5.851 l 0.048,31.968 c 0,8.915 0.081,32.157 0.081,32.157 0.008,2.19 0.887,4.29 2.444,5.835 1.54,1.532 3.637,2.395 5.815,2.395 h 0.032 c 0,0 13.46,-0.052 18.669,-0.141 19.395,-0.343 33.476,-17.238 33.476,-40.173 -10e-4,-24.114 -13.727,-40.315 -34.154,-40.315 z m 0.387,63.971 c -2.363,0.04 -6.452,0.077 -10.177,0.097 -0.024,-7.56 -0.056,-18.375 -0.056,-23.827 l -0.032,-23.726 h 9.879 c 16.79,0 17.637,19.823 17.637,23.798 -0.001,11.626 -5.332,23.449 -17.251,23.658 z"
           id="path1227" /></g><path
         d="m 197.935,279.363 c -6.371,0 -12.129,-3.315 -16.177,-9.569 -6.016,-9.282 -4.435,-19.794 4.331,-28.843 8.839,-9.129 26.927,-17.718 48.694,-24.73 6.79,-12.798 13.702,-27.778 20.161,-44.339 3.815,-9.786 6.895,-18.609 9.363,-26.5 -10.879,-19.944 -17.347,-38.512 -15.629,-50.569 1.75,-12.234 10.887,-19.121 24.468,-18.371 4.032,0.218 13.653,2.323 15.976,17.137 1.774,11.327 -1.21,29.637 -7.194,50.444 11.323,19.101 26.847,39.56 42.032,55.262 22.952,-1.399 42.403,0.274 52.185,6.177 7.661,4.621 10.669,12.157 8.048,20.153 -4.29,13.069 -14.653,19.056 -27.75,16.004 -11.024,-2.573 -24.685,-12.198 -38.54,-25.56 -22.282,1.96 -48.508,6.496 -71.516,13.262 -13.734,24.649 -28.581,43.839 -41.048,48.605 -2.516,0.965 -5,1.437 -7.404,1.437 z m -2.322,-18.544 c 1.379,2.121 2.137,2.077 2.492,2.036 5.258,-0.536 14.016,-9.613 24.016,-24.956 -6.613,2.835 -12.54,5.907 -17.524,9.206 -12.5,8.278 -9.847,12.367 -8.984,13.714 z m 145.484,-45.851 c 7.056,5.516 13.613,9.286 19.097,10.569 4.282,0.996 6.484,0.488 8.306,-5.065 -2.435,-3.694 -12.798,-5.468 -27.403,-5.504 z m -65.589,-50.92 c -5.379,15.315 -11.96,31.173 -19.145,46.036 15.476,-3.887 31.79,-6.948 47.371,-8.891 -10.073,-11.415 -19.807,-24.237 -28.226,-37.145 z m -3.976,-71.427 c -5.863,0 -6.169,2.198 -6.508,4.52 -0.863,6.101 1.282,14.778 5.516,24.782 3.734,-17.827 2.976,-27.258 1.161,-29.302 -0.056,0 -0.112,0 -0.169,0 z"
         fill="#e15f78"
         id="path1231" /></g><g
       id="g1254"
       transform="matrix(0.62012936,0,0,0.62012936,93.431836,185.94673)"><path
         style="fill:#940009"
         d="m 479.147,287.459 c 6.145,0 11.838,3.228 14.993,8.502 3.155,5.274 3.307,11.817 0.402,17.232 L 391.86,504.532 c -2.468,4.599 -7.264,7.468 -12.483,7.468 -5.219,0 -10.015,-2.87 -12.483,-7.468 L 264.21,313.191 c -2.905,-5.415 -2.753,-11.958 0.402,-17.232 3.155,-5.274 8.848,-8.502 14.993,-8.502 H 333.1 V 165.98 c 0,-7.824 6.343,-14.167 14.167,-14.167 h 64.215 c 7.824,0 14.167,6.343 14.167,14.167 v 121.479 z"
         id="path932" /><path
         style="fill:#ff0029"
         d="m 379.377,512 v 0 c -5.219,0 -10.016,-2.87 -12.483,-7.468 L 264.21,313.191 c -2.905,-5.415 -2.753,-11.958 0.402,-17.232 3.155,-5.274 8.848,-8.502 14.993,-8.502 H 333.1 V 165.98 c 0,-7.824 6.343,-14.167 14.167,-14.167 h 32.108 V 512 Z"
         id="path934" /></g></g></g></svg>
