<svg id="Layer_1" enable-background="new 0 0 128 128" height="512" viewBox="0 0 128 128" width="512" xmlns="http://www.w3.org/2000/svg"><g><g><g><path d="m21.885 23.993v-2.812c0-.614.499-1.113 1.113-1.113h6.115v35.73c0 .416.258.789.647.936.115.044.234.064.353.064.282 0 .558-.12.751-.341l9.653-11c.16-.182.249-.416.249-.659v-24.73h6.116c.614 0 1.113.499 1.113 1.113v2.812c0 2.754 2.24 4.994 4.994 4.994s4.995-2.24 4.995-4.994v-8.687c0-2.883-2.345-5.228-5.227-5.228h-35.634c-2.882 0-5.227 2.345-5.227 5.228v8.687c0 2.754 2.24 4.994 4.994 4.994s4.995-2.24 4.995-4.994z" fill="#e6e7e8"/></g><g><path d="m116.303 86.294-46.669-46.669c-2.455-2.455-5.72-3.808-9.192-3.808-3.473 0-6.737 1.353-9.192 3.808l-13.436 13.435c-5.069 5.068-5.069 13.316 0 18.385l46.668 46.669c2.455 2.455 5.72 3.808 9.192 3.808s6.737-1.353 9.192-3.808l13.436-13.435c5.069-5.069 5.069-13.317.001-18.385z" fill="#e6e7e8"/></g><g><path d="m26.592 61.677-7.25 6.05c-.424.354-.481.984-.127 1.408.198.237.482.359.768.359.226 0 .453-.076.64-.232l7.25-6.05c.424-.354.481-.984.127-1.408-.354-.426-.984-.481-1.408-.127z" fill="#e6e7e8"/></g><g><path d="m30.566 65.474c-.551-.062-1.034.362-1.08.913l-1.25 15.024c-.046.551.363 1.034.914 1.079.028.003.056.004.084.004.515 0 .952-.395.996-.917l1.25-15.024c.045-.551-.364-1.034-.914-1.079z" fill="#e6e7e8"/></g><g><path d="m25.066 58.494c0-.553-.448-1-1-1h-6.875c-.552 0-1 .447-1 1s.448 1 1 1h6.875c.553 0 1-.447 1-1z" fill="#e6e7e8"/></g></g><g><path d="m8.896 11.306v8.687c0 2.206 1.788 3.994 3.994 3.994 2.206 0 3.994-1.788 3.994-3.994v-2.812c0-1.167.946-2.113 2.113-2.113h7.114v36.73l9.653-11v-25.73h7.116c1.167 0 2.113.946 2.113 2.113v2.812c0 2.206 1.788 3.994 3.994 3.994 2.206 0 3.994-1.788 3.994-3.994v-8.687c0-2.334-1.892-4.227-4.227-4.227h-35.631c-2.335 0-4.227 1.893-4.227 4.227z" fill="#ffd7e5"/><g><g><path d="m47.956 36.332-13.435 13.435c-4.686 4.686-4.686 12.284 0 16.971l23.335 23.335 30.406-30.406-23.335-23.335c-4.686-4.686-12.284-4.686-16.971 0z" fill="#fa759e"/></g><g><path d="m47.956 36.332-13.435 13.435c-4.686 4.686-4.686 12.284 0 16.971l2.121 2.121c-4.686-4.686-4.686-12.284 0-16.971l13.435-13.435c4.686-4.686 12.284-4.686 16.971 0l-2.121-2.121c-4.686-4.687-12.284-4.686-16.971 0z" fill="#fff"/></g><g><path d="m111.596 99.971-13.435 13.435c-4.686 4.686-12.284 4.686-16.971 0l-23.334-23.334 30.406-30.406 23.335 23.334c4.685 4.687 4.685 12.285-.001 16.971z" fill="#6dc9f7"/></g></g><g fill="#3a2c60"><path d="m17.885 19.993v-2.813c0-.613.499-1.112 1.113-1.112h6.115v35.73c0 .416.258.789.647.936.115.044.234.064.353.064.282 0 .558-.12.751-.341l9.653-11c.16-.182.249-.416.249-.659v-24.73h6.116c.614 0 1.113.499 1.113 1.112v2.813c0 2.754 2.241 4.994 4.995 4.994s4.995-2.24 4.995-4.994v-8.687c0-2.883-2.345-5.228-5.227-5.228h-35.635c-2.882 0-5.227 2.345-5.227 5.228v8.687c0 2.754 2.241 4.994 4.995 4.994s4.994-2.24 4.994-4.994zm-7.989 0v-8.687c0-1.779 1.448-3.228 3.227-3.228h35.633c1.779 0 3.227 1.448 3.227 3.228v8.687c0 1.651-1.343 2.994-2.995 2.994s-2.995-1.343-2.995-2.994v-2.813c0-1.716-1.396-3.112-3.113-3.112h-7.116c-.552 0-1 .447-1 1v25.354l-7.653 8.722v-34.076c0-.553-.448-1-1-1h-7.115c-1.716 0-3.113 1.396-3.113 3.112v2.813c0 1.651-1.343 2.994-2.995 2.994s-2.992-1.342-2.992-2.994z"/><path d="m78.362 68.151-4.611 4.611c-.391.391-.391 1.023 0 1.414.195.195.451.293.707.293s.512-.098.707-.293l4.611-4.611c.391-.391.391-1.023 0-1.414s-1.023-.39-1.414 0z"/><path d="m112.303 82.294-46.669-46.669c-5.068-5.069-13.315-5.069-18.385 0l-13.435 13.435c-5.068 5.068-5.068 13.316 0 18.385l46.669 46.669c2.534 2.534 5.863 3.802 9.192 3.802s6.658-1.268 9.192-3.802l13.435-13.435c5.069-5.069 5.069-13.317.001-18.385zm-1.414 16.971-13.435 13.435c-4.288 4.288-11.267 4.29-15.557 0l-22.627-22.628 13.208-13.208c.391-.391.391-1.023 0-1.414s-1.023-.391-1.414 0l-13.208 13.208-22.628-22.628c-4.289-4.289-4.289-11.268 0-15.557l13.435-13.435c4.289-4.289 11.268-4.289 15.557 0l22.628 22.627-5.909 5.909c-.391.391-.391 1.023 0 1.414s1.023.391 1.414 0l5.909-5.909 22.627 22.628c4.289 4.29 4.289 11.269 0 15.558z"/><path d="m22.592 57.677-7.25 6.05c-.424.354-.481.984-.127 1.408.198.237.482.359.768.359.226 0 .453-.076.64-.232l7.25-6.05c.424-.354.481-.984.127-1.408-.354-.425-.984-.481-1.408-.127z"/><path d="m26.566 61.474c-.554-.054-1.034.362-1.08.913l-1.25 15.024c-.046.551.363 1.034.914 1.079.028.003.056.004.084.004.515 0 .952-.395.996-.917l1.25-15.024c.045-.551-.364-1.034-.914-1.079z"/><path d="m21.066 54.494c0-.553-.448-1-1-1h-6.875c-.552 0-1 .447-1 1s.448 1 1 1h6.875c.552 0 1-.447 1-1z"/></g></g></g></svg>