<svg id="Capa_1" enable-background="new 0 0 512 512" height="512" viewBox="0 0 512 512" width="512" xmlns="http://www.w3.org/2000/svg"><g><g><path d="m219.654 75.543c-15.273 0-27.654 12.381-27.654 27.654v363.413h128v-363.413c0-15.273-12.381-27.654-27.654-27.654z" fill="#b1e4f9"/><path d="m255.706 75.54c-15.267 0-27.65 12.383-27.65 27.65v363.42h-36.056v-363.419c0-15.267 12.383-27.65 27.65-27.65h36.056z" fill="#90d8f9"/></g><g><path d="m390.236 3.07c-15.273 0-27.654 12.381-27.654 27.654v435.886h128v-435.885c0-15.273-12.381-27.654-27.654-27.654h-72.692z" fill="#ffe07d"/><path d="m426.288 3.068c-15.267 0-27.65 12.383-27.65 27.65v435.892h-36.056v-435.892c0-15.267 12.383-27.65 27.65-27.65z" fill="#ffd064"/></g><g><path d="m54.224 160.199c-15.273 0-27.654 12.381-27.654 27.654v278.757h128v-278.757c0-15.273-12.381-27.654-27.654-27.654z" fill="#df75a5"/><path d="m90.276 160.196c-15.267 0-27.65 12.383-27.65 27.65v278.764h-36.057v-278.764c0-15.267 12.383-27.65 27.65-27.65z" fill="#dd5790"/></g><g><path d="m420 172.804-109.515 36.629c-17.081 5.713-21.572 27.775-8.083 39.711l18.643 16.496-41.403 46.792-100.807-62.829c-14.632-9.12-33.819-5.377-43.951 8.569l-78.128 107.527c-10.664 14.677-7.411 35.22 7.266 45.885 5.831 4.236 12.587 6.277 19.283 6.277 10.158 0 20.175-4.697 26.603-13.543l60.143-82.775 98.412 61.336c13.609 8.483 31.352 5.898 41.977-6.109l59.809-67.593 18.649 16.501c13.489 11.936 34.841 4.792 38.432-12.858l23.02-113.163c3.589-17.648-13.271-32.566-30.35-26.853z" fill="#b3e59f"/><g fill="#95d6a4"><path d="m302.402 249.144 18.643 16.496-41.403 46.792 23.163 13.66 41.403-46.792-18.643-16.496c-13.489-11.936-8.998-33.998 8.083-39.711l109.515-36.629c1.873-.626 3.741-.991 5.581-1.145-4.701-10.269-16.663-16.556-28.744-12.515l-109.515 36.629c-17.081 5.713-21.572 27.775-8.083 39.711z"/><path d="m79.918 379.359 78.128-107.528c8.815-12.133 24.484-16.539 38.045-11.473l-17.257-10.755c-14.632-9.12-33.819-5.377-43.951 8.569l-78.127 107.527c-10.664 14.677-7.411 35.221 7.266 45.885 4.777 3.47 10.176 5.443 15.653 6.052-7.906-11.177-8.251-26.586.243-38.277z"/></g></g><path d="m490.581 466.095h-469.162c-11.83 0-21.419 9.589-21.419 21.418 0 11.829 9.589 21.419 21.419 21.419h469.163c11.829 0 21.419-9.589 21.419-21.419-.001-11.829-9.59-21.418-21.42-21.418z" fill="#4a80aa"/><path d="m54.631 502.657c3.873 3.874 9.23 6.274 15.144 6.274h-48.357c-5.913 0-11.27-2.4-15.144-6.274s-6.274-9.23-6.274-15.144c0-11.826 9.591-21.417 21.418-21.417h48.357c-11.826 0-21.418 9.591-21.418 21.417 0 5.914 2.4 11.27 6.274 15.144z" fill="#407093"/></g></svg>