<?xml version="1.0" encoding="iso-8859-1"?>
<!-- Generator: Adobe Illustrator 19.0.0, SVG Export Plug-In . SVG Version: 6.00 Build 0)  -->
<svg xmlns="http://www.w3.org/2000/svg" xmlns:xlink="http://www.w3.org/1999/xlink" version="1.1" id="Layer_1" x="0px" y="0px" viewBox="0 0 512 512" style="enable-background:new 0 0 512 512;" xml:space="preserve" width="512" height="512">
<path d="M303.457,472H106.569c-22.056,0-40-17.944-40-40V130c0-22.056,17.944-40,40-40h62.889v10c0,33.084,26.916,60,60,60  s60-26.916,60-60V90h63c22.056,0,40,17.944,40,40v146c0,11.046,8.954,20,20,20s20-8.954,20-20V130c0-44.112-35.888-80-80-80h-63V20  c0-11.046-8.954-20-20-20h-80c-11.046,0-20,8.954-20,20v30h-62.889c-44.112,0-80,35.888-80,80v302c0,44.112,35.888,80,80,80h196.889  c11.046,0,20-8.954,20-20S314.503,472,303.457,472z M209.457,40h40v60c0,11.028-8.972,20-20,20s-20-8.972-20-20V40z M467.9,409.59  L358.34,299.786c-2.327-2.332-5.193-4.054-8.346-5.011l-78.725-23.912c-6.979-2.122-14.56-0.272-19.779,4.821  c-5.221,5.094-7.255,12.626-5.308,19.654l22.362,80.725c0.921,3.322,2.684,6.351,5.119,8.79l109.366,109.573  c11.697,11.696,27.063,17.545,42.427,17.545s30.729-5.849,42.427-17.545C491.278,471.032,491.278,432.968,467.9,409.59z   M294.44,319.705l39.128,11.886l73.924,74.089l-28.289,28.289l-73.513-73.652L294.44,319.705z M439.599,466.142  c-7.797,7.799-20.485,7.799-28.271,0.014l-3.867-3.874l28.284-28.284l3.853,3.862C447.398,445.656,447.398,458.344,439.599,466.142z  "/>















</svg>
