<?xml version="1.0" encoding="UTF-8" standalone="no"?>
<!-- Generator: Adobe Illustrator 19.0.0, SVG Export Plug-In . SVG Version: 6.00 Build 0)  -->

<svg
   version="1.1"
   id="Layer_1"
   x="0px"
   y="0px"
   viewBox="0 0 512 512"
   style="enable-background:new 0 0 512 512;"
   xml:space="preserve"
   width="512"
   height="512"
   sodipodi:docname="list.svg"
   inkscape:version="1.1 (c4e8f9e, 2021-05-24)"
   xmlns:inkscape="http://www.inkscape.org/namespaces/inkscape"
   xmlns:sodipodi="http://sodipodi.sourceforge.net/DTD/sodipodi-0.dtd"
   xmlns="http://www.w3.org/2000/svg"
   xmlns:svg="http://www.w3.org/2000/svg"><defs
   id="defs1405" /><sodipodi:namedview
   id="namedview1403"
   pagecolor="#ffffff"
   bordercolor="#666666"
   borderopacity="1.0"
   inkscape:pageshadow="2"
   inkscape:pageopacity="0.0"
   inkscape:pagecheckerboard="0"
   showgrid="false"
   inkscape:zoom="0.5855728"
   inkscape:cx="382.53143"
   inkscape:cy="242.4976"
   inkscape:window-width="1920"
   inkscape:window-height="1025"
   inkscape:window-x="3520"
   inkscape:window-y="27"
   inkscape:window-maximized="1"
   inkscape:current-layer="Layer_1" />
<path
   d="M 303.457,472 H 106.569 c -22.056,0 -40,-17.944 -40,-40 V 130 c 0,-22.056 17.944,-40 40,-40 h 62.889 v 10 c 0,33.084 26.916,60 60,60 33.084,0 60,-26.916 60,-60 V 90 h 63 c 22.056,0 40,17.944 40,40 v 146 c 0,11.046 8.954,20 20,20 11.046,0 20,-8.954 20,-20 V 130 c 0,-44.112 -35.888,-80 -80,-80 h -63 V 20 c 0,-11.046 -8.954,-20 -20,-20 h -80 c -11.046,0 -20,8.954 -20,20 v 30 h -62.889 c -44.112,0 -80,35.888 -80,80 v 302 c 0,44.112 35.888,80 80,80 h 196.889 c 11.046,0 20,-8.954 20,-20 0,-11.046 -8.955,-20 -20.001,-20 z m -94,-432 h 40 v 60 c 0,11.028 -8.972,20 -20,20 -11.028,0 -20,-8.972 -20,-20 z M 467.9,409.59 358.34,299.786 c -2.327,-2.332 -5.193,-4.054 -8.346,-5.011 l -78.725,-23.912 c -6.979,-2.122 -14.56,-0.272 -19.779,4.821 -5.221,5.094 -7.255,12.626 -5.308,19.654 l 22.362,80.725 c 0.921,3.322 2.684,6.351 5.119,8.79 l 109.366,109.573 c 11.697,11.696 27.063,17.545 42.427,17.545 15.364,0 30.729,-5.849 42.427,-17.545 23.395,-23.394 23.395,-61.458 0.017,-84.836 z m -173.46,-89.885 39.128,11.886 73.924,74.089 -28.289,28.289 -73.513,-73.652 z m 145.159,146.437 c -7.797,7.799 -20.485,7.799 -28.271,0.014 l -3.867,-3.874 28.284,-28.284 3.853,3.862 c 7.8,7.796 7.8,20.484 10e-4,28.282 z"
   id="path1400"
   style="fill:#cccccc" />















</svg>
