<?xml version="1.0" encoding="UTF-8" standalone="no"?>
<!-- Created with Inkscape (http://www.inkscape.org/) -->

<svg
   width="164.77934mm"
   height="149.17859mm"
   viewBox="0 0 164.77934 149.17859"
   version="1.1"
   id="svg5"
   inkscape:version="1.1 (c4e8f9e, 2021-05-24)"
   sodipodi:docname="ok.svg"
   xmlns:inkscape="http://www.inkscape.org/namespaces/inkscape"
   xmlns:sodipodi="http://sodipodi.sourceforge.net/DTD/sodipodi-0.dtd"
   xmlns="http://www.w3.org/2000/svg"
   xmlns:svg="http://www.w3.org/2000/svg">
  <sodipodi:namedview
     id="namedview7"
     pagecolor="#ffffff"
     bordercolor="#666666"
     borderopacity="1.0"
     inkscape:pageshadow="2"
     inkscape:pageopacity="0.0"
     inkscape:pagecheckerboard="0"
     inkscape:document-units="mm"
     showgrid="false"
     inkscape:zoom="0.73228114"
     inkscape:cx="307.25904"
     inkscape:cy="335.25375"
     inkscape:window-width="1920"
     inkscape:window-height="1052"
     inkscape:window-x="1600"
     inkscape:window-y="0"
     inkscape:window-maximized="1"
     inkscape:current-layer="layer1" />
  <defs
     id="defs2" />
  <g
     inkscape:label="Calque 1"
     inkscape:groupmode="layer"
     id="layer1"
     transform="translate(-23.704131,-59.595406)">
    <g
       id="g1068">
      <path
         d="m 23.704131,145.47565 c 0.440423,-0.38675 5.038717,1.99016 5.513548,2.19936 4.669862,2.05348 9.191082,4.43176 13.526498,7.1211 11.226665,6.8706 20.640711,16.33419 27.452131,27.59664 5.542452,9.22962 9.738857,26.37997 23.135982,26.37997 6.417791,0 13.7123,0.20783 18.58999,-4.68775 5.96223,-5.99113 6.06958,-14.73491 7.91248,-22.46984 9.1319,-36.47943 26.57128,-70.35348 50.95421,-98.982369 1.49744,-1.790595 3.01828,-3.563299 4.55976,-5.316734 3.13113,-3.519256 6.45358,-6.863721 9.95081,-10.019628 0.47483,-0.430789 1.29787,-1.313012 2.27919,-2.32048 0.89874,-0.916631 1.15473,-2.286072 0.64687,-3.46558 -0.50648,-1.179509 -1.67636,-1.936486 -2.96047,-1.914465 -20.15074,0.63999 -68.09631,11.188126 -95.098384,92.209486 0,0 -41.143785,-28.48437 -66.462615,-6.32971 z m 0,0"
         fill="#4fba6f"
         id="path876"
         style="stroke-width:0.352339" />
      <g
         fill="#71c285"
         id="g882"
         transform="matrix(0.35233858,0,0,0.35233858,18.691564,59.595874)">
        <path
           d="m 301.66797,162.89844 c -1.52344,0 -3.01953,-0.38672 -4.34766,-1.13282 -4.33594,-2.40625 -5.89844,-7.87109 -3.49609,-12.20703 C 339.55469,67.234375 394.1875,39.238281 396.45703,38.085938 c 4.4375,-2.230469 9.83984,-0.445313 12.07422,3.988281 2.23047,4.4375 0.44531,9.839843 -3.98828,12.074219 -0.6836,0.347656 -52.22266,27.152343 -94.98828,104.125002 -1.58985,2.86328 -4.61328,4.63672 -7.88672,4.625 z m 0,0"
           id="path878" />
        <path
           d="m 274.71875,207.80859 c -3.11328,0 -6,-1.61328 -7.63672,-4.25781 -1.63672,-2.64844 -1.78516,-5.95312 -0.39453,-8.73828 l 8.98437,-17.96484 c 1.4336,-2.8711 4.29297,-4.75782 7.4961,-4.94922 3.20703,-0.19141 6.26953,1.33984 8.03515,4.01953 1.76954,2.67969 1.97266,6.09765 0.53907,8.96875 l -8.98438,17.96484 c -1.52344,3.04297 -4.63672,4.96094 -8.03906,4.95703 z m 0,0"
           id="path880" />
      </g>
    </g>
  </g>
</svg>
