<svg id="Capa_1" enable-background="new 0 0 497 497" height="512" viewBox="0 0 497 497" width="512" xmlns="http://www.w3.org/2000/svg"><g><path d="m488.695 286.873c3.294-.524 5.847-3.158 6.272-6.467 1.34-10.446 2.033-21.095 2.033-31.906s-.693-21.459-2.033-31.906c-.424-3.308-2.977-5.943-6.272-6.467l-41.698-6.627c-5.164-22.875-14.181-44.287-26.333-63.525l24.794-34.167c1.959-2.699 1.899-6.368-.139-9.008-13.046-16.901-28.219-32.074-45.12-45.12-2.64-2.038-6.308-2.097-9.008-.139l-34.167 24.794c-19.237-12.152-40.649-21.169-63.525-26.333l-6.627-41.698c-.524-3.294-3.158-5.847-6.467-6.272-10.446-1.339-21.094-2.032-31.905-2.032s-21.459.693-31.906 2.033c-3.308.424-5.943 2.977-6.467 6.272l-6.627 41.697c-22.875 5.164-44.287 14.181-63.525 26.333l-34.167-24.794c-2.699-1.959-6.368-1.899-9.008.139-16.901 13.046-32.074 28.219-45.12 45.12-2.038 2.64-2.097 6.308-.139 9.008l24.794 34.167c-12.152 19.237-21.169 40.649-26.333 63.525l-41.698 6.627c-3.294.524-5.847 3.158-6.272 6.467-1.339 10.447-2.032 21.095-2.032 31.906s.693 21.459 2.033 31.906c.424 3.308 2.977 5.943 6.272 6.467l41.698 6.627c17.215 76.258 77.24 136.282 153.498 153.498l6.627 41.698c.524 3.294 3.158 5.847 6.467 6.272 10.446 1.34 21.095 2.033 31.906 2.033s21.459-.693 31.906-2.033c3.308-.424 5.943-2.977 6.467-6.272l6.627-41.698c22.875-5.164 44.287-14.181 63.525-26.333l34.167 24.794c2.699 1.959 6.368 1.899 9.008-.139 16.901-13.046 32.074-28.219 45.12-45.12 2.038-2.64 2.097-6.308.139-9.008l-24.794-34.167c12.152-19.237 21.169-40.649 26.333-63.525zm-240.195 90.127c-70.969 0-128.5-57.531-128.5-128.5s57.531-128.5 128.5-128.5 128.5 57.531 128.5 128.5-57.531 128.5-128.5 128.5z" fill="#9b99c9"/><path d="m248.5 75v45c70.969 0 128.5 57.531 128.5 128.5s-57.531 128.5-128.5 128.5v45c95.821 0 173.5-77.679 173.5-173.5s-77.679-173.5-173.5-173.5z" fill="#6461ac"/><path d="m248.5 75c-95.821 0-173.5 77.679-173.5 173.5s77.679 173.5 173.5 173.5c79.253 0 143.5-77.679 143.5-173.5s-64.247-173.5-143.5-173.5zm0 287c-62.684 0-113.5-50.816-113.5-113.5s50.816-113.5 113.5-113.5c14.792 0 28.922 2.833 41.88 7.98l-23.718 87.358 87.358-23.718c5.147 12.958 7.98 27.088 7.98 41.88 0 62.684-50.816 113.5-113.5 113.5z" fill="#807dbb"/><path d="m55.396 454.461-51.013 38.156c4.979 4.979 12.58 5.709 18.349 2.225l29.611-17.904z" fill="#2c2c2f"/><path d="m15.874 487.984 39.522-33.523 2.021-14.877-37.353 5.073-17.906 29.611c-3.485 5.768-2.755 13.369 2.225 18.349 1.66 1.66 6.484-.387 11.491-4.633z" fill="#424247"/><path d="m131.662 428.977 204.802-261.618-294.881 298.818 10.76 10.76z" fill="#f2b084"/><path d="m301.35 187.85-233.327 177.488-47.96 79.319 21.52 21.52 276.876-261.218z" fill="#f4ce93"/><path d="m328.757 168.243-110.257 80.257-86.838 116.838c-17.573 17.574-17.573 46.066 0 63.64l222.358-222.358c-5.76-14.499-14.417-27.531-25.263-38.377z" fill="#ec9345"/><path d="m68.023 365.338c17.573 17.574 46.066 17.574 63.639 0l197.094-197.094c-10.846-10.846-23.878-19.504-38.376-25.263z" fill="#ecc04b"/></g></svg>