<svg id="Capa_1" enable-background="new 0 0 512 512" height="512" viewBox="0 0 512 512" width="512" xmlns="http://www.w3.org/2000/svg"><g><circle cx="256" cy="256" fill="#ffc400" r="248.5"/><path d="m256 7.5c-5.038 0-10.036.168-15 .464 130.256 7.757 233.5 115.831 233.5 248.036s-103.244 240.279-233.5 248.036c4.964.296 9.962.464 15 .464 137.243 0 248.5-111.257 248.5-248.5s-111.257-248.5-248.5-248.5z" fill="#ffab00"/><path d="m256 474.5c-120.759 0-218.5-97.726-218.5-218.5 0-120.759 97.726-218.5 218.5-218.5 120.759 0 218.5 97.725 218.5 218.5 0 120.762-97.729 218.5-218.5 218.5z" fill="#ffd740"/><path d="m349.312 300.933c-7.473-3.581-16.43-.426-20.01 7.043-14.269 29.771-38.891 47.543-65.863 47.543s-51.595-17.773-65.867-47.549c-.938-1.954-1.82-3.946-2.646-5.971h68.243c8.284 0 15-6.716 15-15s-6.716-15-15-15h-76.023c-.668-5.265-1.017-10.613-1.017-16s.349-10.735 1.017-16h76.023c8.284 0 15-6.716 15-15s-6.716-15-15-15h-68.242c.827-2.027 1.71-4.02 2.649-5.977 14.27-29.77 38.892-47.543 65.864-47.543s51.595 17.773 65.863 47.543c3.58 7.471 12.541 10.624 20.01 7.043 7.471-3.581 10.624-12.539 7.043-20.01-19.092-39.832-54.694-64.577-92.916-64.577-38.221 0-73.824 24.744-92.914 64.571-2.912 6.069-5.397 12.41-7.444 18.949h-29.912c-8.284 0-15 6.716-15 15s6.716 15 15 15h23.786c-.542 5.291-.827 10.633-.827 16s.285 10.709.826 16h-23.786c-8.284 0-15 6.716-15 15s6.716 15 15 15h29.912c2.047 6.537 4.531 12.877 7.442 18.943 19.092 39.833 54.696 64.577 92.917 64.577 38.222 0 73.825-24.745 92.916-64.577 3.58-7.468.426-16.427-7.044-20.008z" fill="#ff9800"/><g><path d="m396.078 41.69c-3.466-2.268-8.114-1.301-10.384 2.166-2.27 3.465-1.3 8.114 2.165 10.383 68.341 44.757 109.141 120.181 109.141 201.761 0 133.193-107.787 241-241 241-133.193 0-241-107.788-241-241 0-133.193 107.788-241 241-241 36.605 0 71.758 7.995 104.479 23.761 3.729 1.798 8.214.231 10.013-3.5 1.798-3.732.23-8.214-3.501-10.012-34.77-16.754-72.113-25.249-110.991-25.249-141.484 0-256 114.497-256 256 0 141.484 114.497 256 256 256 141.487 0 256-114.501 256-256 0-86.656-43.335-166.771-115.922-214.31z"/><path d="m156.251 458.886c31.17 15.337 64.73 23.114 99.749 23.114 124.989 0 226-100.985 226-226 0-124.988-100.982-226-226-226-124.988 0-226 100.982-226 226 0 74.227 36.449 143.756 97.5 185.99 3.407 2.357 8.078 1.505 10.435-1.901 2.356-3.407 1.505-8.079-1.901-10.435-57.003-39.433-91.034-104.351-91.034-173.654 0-116.697 94.275-211 211-211 116.697 0 211 94.273 211 211 0 116.698-94.275 211-211 211-32.703 0-64.035-7.258-93.126-21.573-3.716-1.829-8.212-.299-10.041 3.418s-.298 8.213 3.418 10.041z"/><path d="m110.668 287c0 12.407 10.093 22.5 22.5 22.5h24.506c1.785 5.051 3.823 9.972 6.084 14.685 20.351 42.459 58.546 68.835 99.68 68.835 41.135 0 79.329-26.376 99.679-68.835 5.377-11.213.651-24.639-10.564-30.016-11.192-5.362-24.652-.621-30.015 10.565-12.99 27.104-35.083 43.285-59.1 43.285-22.57 0-43.445-14.295-56.663-38.52h56.392c12.406 0 22.5-10.093 22.5-22.5s-10.094-22.5-22.5-22.5h-69.233c-.396-5.518-.422-11.119 0-17h69.233c12.406 0 22.5-10.093 22.5-22.5s-10.094-22.5-22.5-22.5h-56.392c13.214-24.225 34.089-38.52 56.663-38.52 24.017 0 46.109 16.181 59.1 43.285 5.373 11.211 18.8 15.944 30.015 10.565 11.214-5.375 15.941-18.799 10.565-30.015-20.352-42.459-58.546-68.835-99.68-68.835-27.496 0-54.147 11.807-75.042 33.245-2.892 2.966-2.831 7.714.136 10.605s7.714 2.83 10.605-.136c18.048-18.517 40.884-28.714 64.301-28.714 35.308 0 68.319 23.113 86.153 60.318 1.79 3.738.218 8.212-3.522 10.005-3.738 1.79-8.213.217-10.004-3.522-15.547-32.437-42.697-51.802-72.627-51.802-29.929 0-57.08 19.365-72.626 51.799-.994 2.073-1.947 4.222-2.83 6.387-2.011 4.928 1.619 10.334 6.944 10.334h68.242c4.136 0 7.5 3.364 7.5 7.5s-3.364 7.5-7.5 7.5h-76.023c-3.777 0-6.965 2.809-7.44 6.556-.714 5.631-1.077 11.333-1.077 16.944s.362 11.313 1.077 16.944c.476 3.747 3.663 6.556 7.44 6.556h76.023c4.136 0 7.5 3.364 7.5 7.5s-3.364 7.5-7.5 7.5h-68.243c-2.498 0-4.832 1.244-6.225 3.317-2.784 4.143-.431 8.104 2.108 13.396 15.549 32.44 42.701 51.808 72.63 51.808 29.93 0 57.08-19.365 72.627-51.802 1.786-3.729 6.275-5.308 10.005-3.522 3.731 1.788 5.317 6.259 3.521 10.005-17.832 37.206-50.844 60.319-86.152 60.319s-68.321-23.113-86.155-60.321c-2.73-5.691-5.101-11.727-7.047-17.94-.979-3.129-3.878-5.259-7.157-5.259h-29.912c-4.136 0-7.5-3.364-7.5-7.5s3.364-7.5 7.5-7.5h23.787c4.444 0 7.913-3.848 7.461-8.264-.522-5.107-.788-10.233-.788-15.236s.265-10.129.788-15.236c.216-2.111-.472-4.215-1.894-5.79s-3.445-2.474-5.567-2.474h-23.787c-4.136 0-7.5-3.364-7.5-7.5s3.364-7.5 7.5-7.5h29.912c3.279 0 6.178-2.13 7.157-5.259 2.863-9.142 6.606-17.798 11.159-25.806 2.047-3.601.788-8.18-2.813-10.227-3.603-2.047-8.18-.789-10.227 2.813-4.2 7.389-7.768 15.232-10.682 23.479h-24.506c-12.407 0-22.5 10.093-22.5 22.5s10.093 22.5 22.5 22.5h15.686c-.292 5.55-.31 11.109 0 17h-15.686c-12.407.001-22.5 10.094-22.5 22.501z"/></g></g></svg>