<?xml version="1.0" encoding="iso-8859-1"?>
<!-- Generator: Adobe Illustrator 19.0.0, SVG Export Plug-In . SVG Version: 6.00 Build 0)  -->
<svg version="1.1" id="Capa_1" xmlns="http://www.w3.org/2000/svg" xmlns:xlink="http://www.w3.org/1999/xlink" x="0px" y="0px"
	 viewBox="0 0 512.019 512.019" style="enable-background:new 0 0 512.019 512.019;" xml:space="preserve">
<path style="fill:#CFD8DC;" d="M178.229,376.467L135.562,333.8c-2.182-2.236-5.25-3.378-8.363-3.115
	c-3.092,0.223-5.935,1.78-7.787,4.267l-117.269,160c-3.535,4.713-2.58,11.399,2.133,14.933c3.793,2.844,9.007,2.844,12.8,0
	l160-117.333c4.752-3.481,5.783-10.156,2.302-14.908c-0.323-0.44-0.678-0.855-1.064-1.241L178.229,376.467z"/>
<path style="fill:#D32F2F;" d="M316.895,301.8L210.229,195.134c-17.945-13.971-40.303-21.048-63.019-19.947
	c-29.736-1.04-58.626,10.003-80.085,30.613c-17.323,17.323-15.531,44.096,5.333,79.595c19.704,30.896,42.975,59.365,69.333,84.821
	c42.432,42.411,96,86.485,135.04,86.485c11.003,0.279,21.632-3.998,29.376-11.819C350.623,400.488,339.551,324.478,316.895,301.8z"
	/>
<path style="fill:#F44336;" d="M402.229,216.467L295.562,109.8c-4.165-4.164-10.917-4.164-15.083,0l-85.333,85.333
	c-13.952,13.952-12.8,44.8,32,89.749c29.248,29.248,52.565,39.893,69.12,39.893c7.662,0.271,15.105-2.577,20.629-7.893
	l85.333-85.333C406.393,227.384,406.393,220.632,402.229,216.467z"/>
<path style="fill:#D32F2F;" d="M511.199,187.944c-1.649-3.989-5.54-6.591-9.856-6.592c-23.125,0-73.899-25.003-109.781-60.885
	s-60.885-86.635-60.885-109.781C330.687,4.795,325.92,0.011,320.029,0c-2.84-0.005-5.565,1.123-7.571,3.134
	c-43.563,43.584-57.173,117.909,10.667,185.749c25.809,28.681,62.137,45.683,100.693,47.125
	c32.07-0.368,62.675-13.486,85.056-36.459C511.921,196.506,512.838,191.928,511.199,187.944z"/>
<path style="fill:#F44336;" d="M444.895,67.134C399.711,21.971,358.858,0.019,320.01,0.019c-5.891,0-10.667,4.776-10.667,10.667
	c0,31.851,30.123,87.872,67.115,124.885s93.056,67.115,124.885,67.115c5.891,0,10.667-4.776,10.667-10.667
	C512.01,153.15,490.058,112.296,444.895,67.134z"/>
<path d="M423.818,236.03c-38.558-1.438-74.887-18.44-100.693-47.125c-28.378-25.799-45.326-61.828-47.104-100.139
	c0.094-32.291,13.235-63.174,36.437-85.632c2.004-1.999,4.721-3.12,7.552-3.115c38.869,0,79.723,21.952,124.885,67.115
	s67.115,86.037,67.115,124.885c0.005,2.831-1.115,5.548-3.115,7.552C486.508,222.547,455.895,235.665,423.818,236.03z
	 M324.426,21.48c-17.282,18.083-26.978,42.101-27.093,67.115c1.815,32.691,16.513,63.33,40.875,85.205
	c59.413,59.435,118.315,45.099,152.341,13.781c-1.771-31.381-22.187-66.795-60.757-105.365S355.807,23.251,324.426,21.48z"/>
<path d="M501.343,202.686c-31.829,0-87.851-30.101-124.885-67.115s-67.115-93.035-67.115-124.885
	c0-5.891,4.776-10.667,10.667-10.667c5.891,0,10.667,4.776,10.667,10.667c0,23.147,25.003,73.92,60.885,109.781
	s86.656,60.885,109.781,60.885c5.891,0,10.667,4.776,10.667,10.667C512.01,197.91,507.234,202.686,501.343,202.686z"/>
<path d="M296.266,324.798c-16.555,0-39.872-10.667-69.12-39.893c-44.8-44.8-45.952-75.797-32-89.749l85.333-85.333
	c4.092-4.237,10.845-4.355,15.083-0.262s4.355,10.845,0.262,15.083c-0.086,0.089-0.173,0.176-0.262,0.262l-85.333,85.333
	c-4.267,4.267-2.261,25.323,32,59.584s55.253,36.267,59.584,32l85.333-85.333c4.237-4.093,10.99-3.975,15.083,0.262
	c3.993,4.134,3.993,10.687,0,14.821l-85.333,85.333C311.371,322.22,303.927,325.068,296.266,324.798z"/>
<path d="M276.853,456.702c-39.125,0-92.608-44.053-135.04-86.485c-26.335-25.453-49.584-53.915-69.269-84.8
	c-20.885-35.499-22.656-62.293-5.333-79.595c21.244-20.34,49.723-31.366,79.125-30.635h0.875
	c22.704-1.085,45.046,5.999,62.976,19.968c4.092,4.237,3.975,10.99-0.262,15.083c-4.134,3.992-10.687,3.992-14.82,0
	c-14.034-9.69-30.858-14.508-47.893-13.717h-0.832c-23.76-0.601-46.806,8.156-64.171,24.384
	c-11.947,11.947-1.877,35.797,8.661,53.739c18.791,29.317,40.943,56.337,66.005,80.512c64.427,64.427,115.861,93.013,134.251,74.667
	c27.952-31.219,32.278-77.016,10.667-112.917c-4.092-4.237-3.975-10.99,0.262-15.083c4.134-3.992,10.687-3.992,14.82,0
	c22.656,22.677,33.728,98.688-10.667,143.083C298.465,452.712,287.845,456.98,276.853,456.702z"/>
<path d="M10.677,512.019c-5.891,0-10.667-4.776-10.667-10.667c0-2.308,0.749-4.554,2.133-6.4l117.333-160
	c3.54-4.708,10.227-5.655,14.936-2.115c4.7,3.534,5.653,10.206,2.131,14.915l-76.267,104l104-76.267
	c4.71-3.539,11.396-2.589,14.935,2.12c3.539,4.71,2.589,11.396-2.12,14.935c-0.005,0.004-0.01,0.007-0.015,0.011l-160,117.333
	C15.23,511.271,12.985,512.019,10.677,512.019z"/>
<g>
</g>
<g>
</g>
<g>
</g>
<g>
</g>
<g>
</g>
<g>
</g>
<g>
</g>
<g>
</g>
<g>
</g>
<g>
</g>
<g>
</g>
<g>
</g>
<g>
</g>
<g>
</g>
<g>
</g>
</svg>
