<?xml version="1.0" encoding="iso-8859-1"?>
<!-- Generator: Adobe Illustrator 19.0.0, SVG Export Plug-In . SVG Version: 6.00 Build 0)  -->
<svg version="1.1" id="Capa_1" xmlns="http://www.w3.org/2000/svg" xmlns:xlink="http://www.w3.org/1999/xlink" x="0px" y="0px"
	 viewBox="0 0 512 512" style="enable-background:new 0 0 512 512;" xml:space="preserve">
<linearGradient id="SVGID_1_" gradientUnits="userSpaceOnUse" x1="22.5948" y1="308.326" x2="170.1794" y2="308.326" gradientTransform="matrix(1.0039 0 0 -1.0039 0.1922 516.5638)">
	<stop  offset="0" style="stop-color:#FF7BAC"/>
	<stop  offset="1" style="stop-color:#E24786"/>
</linearGradient>
<path style="fill:url(#SVGID_1_);" d="M163.509,247.834c-1.927,0-3.854-0.735-5.325-2.205l-61.227-61.228L35.73,245.629
	c-2.941,2.939-7.708,2.939-10.649,0c-2.94-2.941-2.94-7.708,0-10.649l66.552-66.552c2.941-2.939,7.708-2.939,10.649,0l66.552,66.552
	c2.94,2.941,2.94,7.708,0,10.649C167.363,247.099,165.435,247.834,163.509,247.834z"/>
<linearGradient id="SVGID_2_" gradientUnits="userSpaceOnUse" x1="339.4388" y1="308.326" x2="487.0233" y2="308.326" gradientTransform="matrix(1.0039 0 0 -1.0039 0.1922 516.5638)">
	<stop  offset="0" style="stop-color:#FF7BAC"/>
	<stop  offset="1" style="stop-color:#E24786"/>
</linearGradient>
<path style="fill:url(#SVGID_2_);" d="M481.595,247.834c-1.927,0-3.854-0.735-5.325-2.205l-61.227-61.228l-61.227,61.228
	c-2.941,2.939-7.708,2.939-10.649,0c-2.94-2.941-2.94-7.708,0-10.649l66.552-66.552c2.941-2.939,7.708-2.939,10.649,0l66.552,66.552
	c2.94,2.941,2.94,7.708,0,10.649C485.449,247.099,483.522,247.834,481.595,247.834z"/>
<linearGradient id="SVGID_3_" gradientUnits="userSpaceOnUse" x1="233.5186" y1="262.1595" x2="270.3386" y2="262.1595" gradientTransform="matrix(1.0039 0 0 -1.0039 0.1922 516.5638)">
	<stop  offset="0" style="stop-color:#FFE7A5"/>
	<stop  offset="0.966" style="stop-color:#FFBF5C"/>
</linearGradient>
<path style="fill:url(#SVGID_3_);" d="M309.818,394.763L309.818,394.763c-21.253,0-38.481-17.228-38.481-38.481V86.021h-32.302
	v270.261c0,21.253-17.228,38.481-38.481,38.481l0,0c-8.983,0-16.266,7.282-16.266,16.266v9.704h141.796v-9.704
	C326.084,402.045,318.801,394.763,309.818,394.763z"/>
<linearGradient id="SVGID_4_" gradientUnits="userSpaceOnUse" x1="253.9986" y1="317.8945" x2="253.9986" y2="366.4645" gradientTransform="matrix(1.0039 0 0 -1.0039 0.1922 516.5638)">
	<stop  offset="0" style="stop-color:#FF5D00;stop-opacity:0"/>
	<stop  offset="1" style="stop-color:#D54003"/>
</linearGradient>
<rect x="239.034" y="159.474" style="fill:url(#SVGID_4_);" width="32.306" height="44.808"/>
<linearGradient id="SVGID_5_" gradientUnits="userSpaceOnUse" x1="253.9986" y1="365.1045" x2="253.9986" y2="413.6745" gradientTransform="matrix(1.0039 0 0 -1.0039 0.1922 516.5638)">
	<stop  offset="0" style="stop-color:#FF5D00;stop-opacity:0"/>
	<stop  offset="1" style="stop-color:#D54003"/>
</linearGradient>
<rect x="239.034" y="112.079" style="fill:url(#SVGID_5_);" width="32.306" height="44.808"/>
<linearGradient id="SVGID_6_" gradientUnits="userSpaceOnUse" x1="234.6181" y1="353.1573" x2="0.9081" y2="326.2973" gradientTransform="matrix(1.0039 0 0 -1.0039 0.1922 516.5638)">
	<stop  offset="0" style="stop-color:#FFE7A5"/>
	<stop  offset="0.966" style="stop-color:#FFBF5C"/>
</linearGradient>
<path style="fill:url(#SVGID_6_);" d="M70.641,159.786L70.641,159.786c0-8.92,7.231-16.151,16.151-16.151h336.786
	c8.92,0,16.151,7.231,16.151,16.151l0,0c0,8.92-7.231,16.151-16.151,16.151H86.793C77.872,175.937,70.641,168.706,70.641,159.786z"
	/>
<linearGradient id="SVGID_7_" gradientUnits="userSpaceOnUse" x1="234.6969" y1="54.2477" x2="0.9869" y2="25.1277" gradientTransform="matrix(1.0039 0 0 -1.0039 0.1922 516.5638)">
	<stop  offset="0" style="stop-color:#FFE7A5"/>
	<stop  offset="0.966" style="stop-color:#FFBF5C"/>
</linearGradient>
<path style="fill:url(#SVGID_7_);" d="M134.205,472.674h241.961c4.718,0,8.542-3.825,8.542-8.542v-8.885
	c0-4.718-3.825-8.542-8.542-8.542H134.205c-4.718,0-8.542,3.825-8.542,8.542v8.885C125.662,468.849,129.487,472.674,134.205,472.674
	z"/>
<linearGradient id="SVGID_8_" gradientUnits="userSpaceOnUse" x1="234.2053" y1="79.9292" x2="0.4953" y2="57.8992" gradientTransform="matrix(1.0039 0 0 -1.0039 0.1922 516.5638)">
	<stop  offset="0" style="stop-color:#FFE7A5"/>
	<stop  offset="0.966" style="stop-color:#FFBF5C"/>
</linearGradient>
<path style="fill:url(#SVGID_8_);" d="M336.429,420.733H173.941c-8.983,0-16.266,7.282-16.266,16.266v9.705h195.02v-9.705
	C352.696,428.015,345.413,420.733,336.429,420.733z"/>
<linearGradient id="SVGID_9_" gradientUnits="userSpaceOnUse" x1="233.755" y1="106.2087" x2="0.045" y2="88.0087" gradientTransform="matrix(1.0039 0 0 -1.0039 0.1922 516.5638)">
	<stop  offset="0" style="stop-color:#FFE7A5"/>
	<stop  offset="0.966" style="stop-color:#FFBF5C"/>
</linearGradient>
<path style="fill:url(#SVGID_9_);" d="M309.818,394.763H200.552c-8.983,0-16.266,7.282-16.266,16.266v9.705h141.797v-9.705
	C326.084,402.045,318.801,394.763,309.818,394.763z"/>
<linearGradient id="SVGID_10_" gradientUnits="userSpaceOnUse" x1="210.0818" y1="473.3676" x2="279.6617" y2="403.7776" gradientTransform="matrix(1.0039 0 0 -1.0039 0.1922 516.5638)">
	<stop  offset="0" style="stop-color:#FFE7A5"/>
	<stop  offset="0.966" style="stop-color:#FFBF5C"/>
</linearGradient>
<circle style="fill:url(#SVGID_10_);" cx="255.187" cy="85.435" r="46.109"/>
<linearGradient id="SVGID_11_" gradientUnits="userSpaceOnUse" x1="369.4086" y1="259.8545" x2="517.1086" y2="112.1545" gradientTransform="matrix(1.0039 0 0 -1.0039 0.1922 516.5638)">
	<stop  offset="0" style="stop-color:#FF931E"/>
	<stop  offset="1" style="stop-color:#FF5D00"/>
</linearGradient>
<circle style="fill:url(#SVGID_11_);" cx="415.041" cy="299.682" r="96.959"/>
<linearGradient id="SVGID_12_" gradientUnits="userSpaceOnUse" x1="499.7366" y1="161.4009" x2="308.9166" y2="265.5409" gradientTransform="matrix(1.0039 0 0 -1.0039 0.1922 516.5638)">
	<stop  offset="0" style="stop-color:#FF5D00;stop-opacity:0"/>
	<stop  offset="1" style="stop-color:#D54003"/>
</linearGradient>
<path style="fill:url(#SVGID_12_);" d="M511.876,304.617l-60.378-60.378c-1.342-2.337-4.129-4.268-8.368-5.791
	c-4.349-1.561-8.984-2.622-13.893-3.209l-6.483-5.784c-0.13-0.915-0.666-1.744-1.66-2.478c-1.145-0.841-2.379-1.264-3.702-1.264
	c-1.445,0-2.681,0.424-3.703,1.264c-1.025,0.843-1.535,1.806-1.535,2.89v5.238c-9.754,1.083-17.913,4.335-24.475,9.753
	c-6.565,5.419-9.844,13.36-9.844,23.82c0,3.726,0.421,7.121,1.264,10.186c0.842,3.065,2.227,5.737,4.155,8.021
	c1.924,2.284,3.762,4.237,5.509,5.859c0.092,0.086,0.196,0.172,0.292,0.258l23.098,23.15v30.218
	c-5.337-0.361-10.035-1.741-14.1-4.146c-4.064-2.401-7.256-4.654-9.58-6.759c-2.326-2.103-4.202-3.155-5.63-3.155
	c-2.156,0-4.07,1.142-5.746,3.426c-1.677,2.284-2.512,4.567-2.512,6.85c0,3.742,2.17,7.429,6.495,11.061l42.601,42.601
	C471.562,392.023,509.45,352.995,511.876,304.617z"/>
<linearGradient id="SVGID_13_" gradientUnits="userSpaceOnUse" x1="413.2306" y1="249.9945" x2="413.2306" y2="122.1645" gradientTransform="matrix(1.0039 0 0 -1.0039 0.1922 516.5638)">
	<stop  offset="0" style="stop-color:#FFFFFF"/>
	<stop  offset="1" style="stop-color:#E2EDF2"/>
</linearGradient>
<path style="fill:url(#SVGID_13_);" d="M374.583,342.588c0-2.284,0.836-4.567,2.512-6.85c1.677-2.283,3.59-3.426,5.746-3.426
	c1.428,0,3.305,1.052,5.63,3.155c2.325,2.105,5.518,4.358,9.58,6.759c4.065,2.404,8.764,3.785,14.1,4.146v-42.359
	c-3.612-1.321-6.384-2.373-8.308-3.155c-1.929-0.779-4.488-1.922-7.677-3.423c-3.191-1.502-5.661-3.065-7.406-4.687
	c-1.747-1.622-3.584-3.576-5.509-5.859c-1.929-2.283-3.313-4.956-4.155-8.021c-0.843-3.065-1.264-6.46-1.264-10.186
	c0-10.46,3.28-18.401,9.844-23.82c6.562-5.419,14.721-8.67,24.475-9.753v-5.238c0-1.083,0.511-2.046,1.535-2.89
	c1.022-0.841,2.258-1.264,3.703-1.264c1.323,0,2.557,0.424,3.702,1.264c1.143,0.843,1.716,1.806,1.716,2.89v4.877
	c7.344,0.243,14.118,1.477,20.321,3.702c6.201,2.23,9.302,5.329,9.302,9.302c0,2.167-0.731,4.425-2.187,6.773
	c-1.457,2.348-3.4,3.522-5.828,3.522c-0.96,0-3.599-1.022-7.911-3.071c-4.316-2.046-8.882-3.252-13.698-3.612v36.605
	c4.79,1.804,8.773,3.517,11.945,5.139c3.172,1.622,6.529,3.875,10.061,6.759c3.534,2.884,6.198,6.519,7.993,10.906
	c1.795,4.386,2.695,9.525,2.695,15.412c0,10.759-2.934,19.31-8.802,25.654c-5.87,6.345-13.832,10.242-23.891,11.693v6.035
	c0,1.064-0.572,2.01-1.716,2.839c-1.145,0.827-2.379,1.242-3.702,1.242c-1.445,0-2.681-0.415-3.703-1.239
	c-1.025-0.829-1.535-1.775-1.535-2.839v-5.495c-10.476-0.121-19.358-2.518-26.642-7.191
	C378.224,352.209,374.583,347.445,374.583,342.588z M395.717,266.88c0,4.687,1.459,8.263,4.379,10.725
	c2.918,2.464,7.298,4.778,13.14,6.94v-32.837C401.556,253.152,395.717,258.21,395.717,266.88z M421.726,346.011
	c10.595-1.921,15.896-7.872,15.896-17.846c0-5.286-1.386-9.432-4.155-12.436c-2.771-3.003-6.682-5.588-11.741-7.752V346.011z"/>
<linearGradient id="SVGID_14_" gradientUnits="userSpaceOnUse" x1="52.5686" y1="259.8545" x2="200.2686" y2="112.1545" gradientTransform="matrix(1.0039 0 0 -1.0039 0.1922 516.5638)">
	<stop  offset="0" style="stop-color:#7ECCFD"/>
	<stop  offset="1" style="stop-color:#3FA9F5"/>
</linearGradient>
<circle style="fill:url(#SVGID_14_);" cx="96.959" cy="299.682" r="96.959"/>
<linearGradient id="SVGID_15_" gradientUnits="userSpaceOnUse" x1="151.7221" y1="169.808" x2="75.0321" y2="246.498" gradientTransform="matrix(1.0039 0 0 -1.0039 0.1922 516.5638)">
	<stop  offset="0" style="stop-color:#7ECCFD;stop-opacity:0"/>
	<stop  offset="1" style="stop-color:#3FA9F5"/>
</linearGradient>
<path style="fill:url(#SVGID_15_);" d="M191.638,320.628l-89.415-89.415c-2.907-2.907-7.623-2.907-10.531,0l-54.059,54.059
	c-2.908,2.907-2.908,7.623,0,10.531l94.472,94.264C161.954,378.45,184.623,352.476,191.638,320.628z"/>
<linearGradient id="SVGID_16_" gradientUnits="userSpaceOnUse" x1="173.7506" y1="116.2065" x2="86.9006" y2="203.0565" gradientTransform="matrix(1.0039 0 0 -1.0039 0.1922 516.5638)">
	<stop  offset="0" style="stop-color:#7ECCFD;stop-opacity:0"/>
	<stop  offset="1" style="stop-color:#3FA9F5"/>
</linearGradient>
<path style="fill:url(#SVGID_16_);" d="M184.233,341.956l-82.848-82.848c-2.446-2.446-6.411-2.446-8.857,0l-31.963,31.963
	c-1.175,1.175-1.834,2.767-1.834,4.428v53.476c0,2.323,1.268,4.346,3.147,5.427l41.987,41.987
	C139.299,393.894,169.476,372.364,184.233,341.956z"/>
<linearGradient id="SVGID_17_" gradientUnits="userSpaceOnUse" x1="54.6357" y1="268.7024" x2="177.1656" y2="140.8723" gradientTransform="matrix(1.0039 0 0 -1.0039 0.1922 516.5638)">
	<stop  offset="0" style="stop-color:#FFFFFF"/>
	<stop  offset="1" style="stop-color:#E2EDF2"/>
</linearGradient>
<path style="fill:url(#SVGID_17_);" d="M151.016,297.983c-1.905,0-3.812-0.727-5.266-2.182l-48.794-48.794l-48.794,48.794
	c-2.907,2.907-7.623,2.907-10.531,0c-2.908-2.907-2.908-7.623,0-10.531l54.059-54.059c2.907-2.907,7.623-2.907,10.531,0
	l54.059,54.059c2.908,2.907,2.908,7.623,0,10.531C154.827,297.256,152.921,297.983,151.016,297.983z"/>
<linearGradient id="SVGID_18_" gradientUnits="userSpaceOnUse" x1="61.6026" y1="251.9568" x2="137.7525" y2="124.1267" gradientTransform="matrix(1.0039 0 0 -1.0039 0.1922 516.5638)">
	<stop  offset="0" style="stop-color:#FFFFFF"/>
	<stop  offset="1" style="stop-color:#E2EDF2"/>
</linearGradient>
<path style="fill:url(#SVGID_18_);" d="M133.348,291.072l-31.963-31.963c-2.446-2.446-6.411-2.446-8.857,0l-31.963,31.963
	c-1.175,1.175-1.834,2.767-1.834,4.428v53.476c0,3.459,2.804,6.262,6.262,6.262h63.926c3.459,0,6.262-2.804,6.262-6.262V295.5
	C135.182,293.839,134.522,292.246,133.348,291.072z M108.54,340.465c0,0.665-0.539,1.204-1.204,1.204H86.577
	c-0.665,0-1.204-0.539-1.204-1.204v-23.407c0-0.665,0.539-1.204,1.204-1.204h20.759c0.665,0,1.204,0.539,1.204,1.204V340.465z"/>
<g>
</g>
<g>
</g>
<g>
</g>
<g>
</g>
<g>
</g>
<g>
</g>
<g>
</g>
<g>
</g>
<g>
</g>
<g>
</g>
<g>
</g>
<g>
</g>
<g>
</g>
<g>
</g>
<g>
</g>
</svg>
