<svg id="Capa_1" enable-background="new 0 0 497 497" height="512" viewBox="0 0 497 497" width="512" xmlns="http://www.w3.org/2000/svg"><g><path d="m447.05 47.44v180.43c0 17.61-14.28 31.89-31.9 31.89h-106.79c-17.61 0-31.89-14.28-31.89-31.89v-180.43l85.29-7.118z" fill="#ddeafb"/><path d="m447.05 47.44v180.43c0 17.61-14.28 31.89-31.9 31.89h-22c17.62 0 31.9-14.28 31.9-31.89v-180.43l10.783-3.273z" fill="#cbe2ff"/><g><path d="m343.79 79.86v29.66c0 4.14-3.36 7.5-7.5 7.5h-29.66c-4.14 0-7.5-3.36-7.5-7.5v-29.66c0-4.14 3.36-7.5 7.5-7.5h29.66c4.14 0 7.5 3.36 7.5 7.5z" fill="#528fd8"/></g><g><path d="m343.79 79.86v29.66c0 4.14-3.36 7.5-7.5 7.5h-17c4.14 0 7.5-3.36 7.5-7.5v-29.66c0-4.14-3.36-7.5-7.5-7.5h17c4.14 0 7.5 3.36 7.5 7.5z" fill="#0473ce"/></g><g><path d="m343.79 141.94v29.65c0 4.15-3.36 7.5-7.5 7.5h-29.66c-4.14 0-7.5-3.35-7.5-7.5v-29.65c0-4.14 3.36-7.5 7.5-7.5h29.66c4.14 0 7.5 3.36 7.5 7.5z" fill="#528fd8"/></g><g><path d="m343.79 141.94v29.65c0 4.15-3.36 7.5-7.5 7.5h-17.5c4.14 0 7.5-3.35 7.5-7.5v-29.65c0-4.14-3.36-7.5-7.5-7.5h17.5c4.14 0 7.5 3.36 7.5 7.5z" fill="#0473ce"/></g><g><path d="m415.355 102.188h-50.041c-4.142 0-7.5-3.357-7.5-7.5s3.358-7.5 7.5-7.5h50.041c4.142 0 7.5 3.357 7.5 7.5s-3.357 7.5-7.5 7.5z" fill="#fff9df"/></g><g><path d="m415.355 149.438h-50.041c-4.142 0-7.5-3.357-7.5-7.5s3.358-7.5 7.5-7.5h50.041c4.142 0 7.5 3.357 7.5 7.5s-3.357 7.5-7.5 7.5z" fill="#fff9df"/></g><g><path d="m393.347 179.093h-28.032c-4.142 0-7.5-3.357-7.5-7.5s3.358-7.5 7.5-7.5h28.032c4.142 0 7.5 3.357 7.5 7.5s-3.358 7.5-7.5 7.5z" fill="#fff9df"/></g><path d="m447.05 31.89v15.55h-170.58v-15.55c0-17.61 14.28-31.89 31.89-31.89h106.79c17.62 0 31.9 14.28 31.9 31.89z" fill="#528fd8"/><path d="m447.05 31.89v15.55h-22v-15.55c0-17.61-14.28-31.89-31.9-31.89h22c17.62 0 31.9 14.28 31.9 31.89z" fill="#0473ce"/><path d="m184.32 414.73c-4.724 9.715-2.7 23.122-2.7 33.64l-59.605 7.13-59.605-7.13v-41.18c0-18.298-12.126-31.709-22.24-45.67-13.05-18.01-20.07-39.67-20.07-61.91v-95.48c0-6.35 3.04-12.15 7.74-15.83 3.34-2.6 7.5-4.14 12.01-4.06 10.53.2 19 8.8 19 19.38l10.1 89.88c2.37 21.03 18.86 37.35 39.35 39.95-3.01-4.35-4.65-9.54-4.65-14.9v-51.74c0-4.15 1.55-8.01 4.14-10.93 2.67-3.03 6.45-5.03 10.74-5.28 8.046-.474 15.295 5.392 16.57 13.33l4.9 31.08c2.509 15.859 20.513 28.458 31.22 39.16 20.917 21.248 26.157 53.714 13.1 80.56z" fill="#ffcebf"/><path d="m184.32 414.73c-4.724 9.715-2.7 23.122-2.7 33.64l-23.5 2c0-10.525-2.029-25.916 2.7-35.64 13.056-26.845 7.817-59.311-13.1-80.56-10.694-10.689-28.716-23.333-31.22-39.16l-4.9-31.08c-.5-3.1-1.86-5.86-3.81-8.05 2.67-3.03 6.45-5.03 10.74-5.28 8.046-.474 15.295 5.392 16.57 13.33l4.9 31.08c2.509 15.859 20.513 28.458 31.22 39.16 20.917 21.248 26.157 53.714 13.1 80.56z" fill="#ffb09e"/><path d="m476.9 204.13v95.48c0 22.24-7.02 43.9-20.07 61.91-10.123 13.973-22.24 27.345-22.24 45.67v41.18l-56.423 5.13-62.787-5.13c0-10.525 2.029-23.916-2.7-33.64-13.056-26.845-7.817-59.311 13.1-80.56 9.171-9.167 22.411-18.682 28.381-30.411 5.827-11.449 5.767-27.325 7.739-39.829 1.275-7.938 8.524-13.804 16.57-13.33 8.43.49 14.88 7.76 14.88 16.21v51.74c0 5.36-1.64 10.55-4.65 14.9 7.34-.93 14.18-3.63 20.03-7.67 10.47-7.24 17.8-18.79 19.32-32.28l10.1-89.88c0-6.3 3.01-11.91 7.67-15.44 3.16-2.41 7.07-3.86 11.33-3.94 10.87-.2 19.75 9.03 19.75 19.89z" fill="#ffcebf"/><path d="m476.9 204.13v95.48c0 22.24-7.02 43.9-20.07 61.91-10.123 13.973-22.24 27.345-22.24 45.67v41.18l-23.18 3v-44.18c0-18.298 12.126-31.709 22.24-45.67 13.05-18.01 20.07-39.67 20.07-61.91v-95.48c0-6.42-3.11-12.28-7.9-15.95 3.16-2.41 7.07-3.86 11.33-3.94 10.87-.2 19.75 9.03 19.75 19.89z" fill="#ffb09e"/><path d="m194.08 452.145v41.08c0 2.085-1.69 3.775-3.775 3.775h-136.58c-2.085 0-3.775-1.69-3.775-3.775v-41.08c0-2.085 1.69-3.775 3.775-3.775h136.58c2.085 0 3.775 1.69 3.775 3.775z" fill="#ddeafb"/><path d="m194.08 452.15v41.08c0 2.08-1.69 3.77-3.77 3.77h-19c2.08 0 3.77-1.69 3.77-3.77v-41.08c0-2.09-1.69-3.78-3.77-3.78h19c2.08 0 3.77 1.69 3.77 3.78z" fill="#cbe2ff"/><path d="m447.05 452.145v41.08c0 2.085-1.69 3.775-3.775 3.775h-136.58c-2.085 0-3.775-1.69-3.775-3.775v-41.08c0-2.085 1.69-3.775 3.775-3.775h136.58c2.085 0 3.775 1.69 3.775 3.775z" fill="#ddeafb"/><path d="m447.05 452.15v41.08c0 2.08-1.69 3.77-3.78 3.77h-17.5c2.09 0 3.78-1.69 3.78-3.77v-41.08c0-2.09-1.69-3.78-3.78-3.78h17.5c2.09 0 3.78 1.69 3.78 3.78z" fill="#cbe2ff"/><path d="m322.991 272.73v-10.386c0-8.432-8.936-9.603-15.168-11.304-5.855-1.599-8.72-8.512-5.71-13.784 3.203-5.61 8.673-12.777 2.732-18.719l-7.344-7.344c-5.962-5.962-13.109-.472-18.719 2.732-5.272 3.01-12.185.145-13.784-5.71-1.702-6.232-2.902-15.168-11.304-15.168h-10.386c-8.432 0-9.603 8.936-11.305 15.168-1.599 5.855-8.512 8.72-13.784 5.71-5.61-3.203-12.777-8.673-18.719-2.732l-7.344 7.344c-5.962 5.962-.471 13.109 2.732 18.719 3.01 5.272.145 12.185-5.71 13.784-6.232 1.702-15.168 2.902-15.168 11.304v10.386c0 8.432 8.936 9.603 15.168 11.304 5.855 1.599 8.72 8.512 5.71 13.784-3.203 5.61-8.673 12.777-2.732 18.719l7.344 7.344c5.962 5.962 13.109.471 18.719-2.732 5.272-3.01 12.185-.145 13.784 5.71 1.702 6.232 2.902 15.168 11.305 15.168h10.386c8.432 0 9.603-8.936 11.305-15.168 1.599-5.855 8.512-8.72 13.784-5.71 5.61 3.203 12.777 8.673 18.719 2.732l7.344-7.344c5.962-5.962.472-13.109-2.732-18.719-3.01-5.272-.145-12.185 5.71-13.784 6.231-1.701 15.167-2.901 15.167-11.304z" fill="#cbe2ff"/><path d="m276.47 267.54c0 15.44-12.52 27.96-27.97 27.96-3.9 0-7.62-.8-11-2.25-9.98-4.27-16.97-14.17-16.97-25.71s6.99-21.45 16.97-25.72c3.38-1.45 7.1-2.25 11-2.25 15.45 0 27.97 12.52 27.97 27.97z" fill="#5a5a5a"/><path d="m276.47 267.54c0 15.44-12.52 27.96-27.97 27.96-3.9 0-7.62-.8-11-2.25 9.98-4.27 16.97-14.17 16.97-25.71s-6.99-21.45-16.97-25.72c3.38-1.45 7.1-2.25 11-2.25 15.45 0 27.97 12.52 27.97 27.97z" fill="#444"/><g><path d="m125.96 361.73c-1.46 1.46-3.38 2.19-5.3 2.19s-3.84-.73-5.31-2.2l-17.66-17.67c-3.53-3.53-43.857-6.55-52.24-50.55l-10.1-89.88c0-6.23-2.94-11.78-7.51-15.32 3.34-2.6 7.5-4.14 12.01-4.06 10.53.2 19 8.8 19 19.38l10.1 89.88c2.37 21.03 18.86 37.35 39.35 39.95l17.66 17.67c2.93 2.93 2.93 7.68 0 10.61z" fill="#ffb09e"/></g><g><path d="m408.73 325.78c-1.14 6.89-4.39 13.24-9.42 18.27l-17.66 17.67c-1.47 1.47-3.39 2.2-5.31 2.2s-3.84-.73-5.3-2.19c-2.93-2.93-2.93-7.68 0-10.61l17.66-17.67c7.34-.93 14.18-3.63 20.03-7.67z" fill="#ffb09e"/></g><path d="m220.53 16.51v74.1l-19.53 33.89-7.39 4.16-19.67 11.07h-76.63c-9.12 0-16.51-7.39-16.51-16.51v-106.71c0-9.12 7.39-16.51 16.51-16.51h106.72c9.11 0 16.5 7.39 16.5 16.51z" fill="#fff9df"/><path d="m220.53 16.51v74.1l-19.53 33.89-7.39 4.16v-112.15c0-9.12-7.39-16.51-16.5-16.51h26.92c9.11 0 16.5 7.39 16.5 16.51z" fill="#fff0ad"/><path d="m220.53 90.61v32.61c0 9.12-7.39 16.51-16.5 16.51h-30.09l19.67-20.74z" fill="#ffc344"/><g><path d="m182.948 47.822h-64.56c-4.142 0-7.5-3.357-7.5-7.5s3.358-7.5 7.5-7.5h64.56c4.142 0 7.5 3.357 7.5 7.5s-3.358 7.5-7.5 7.5z" fill="#ffd15b"/></g><g><path d="m160.723 83.408h-42.335c-4.142 0-7.5-3.357-7.5-7.5s3.358-7.5 7.5-7.5h42.335c4.142 0 7.5 3.357 7.5 7.5s-3.358 7.5-7.5 7.5z" fill="#ffd15b"/></g></g></svg>