<svg id="Capa_1" enable-background="new 0 0 496.819 496.819" height="512" viewBox="0 0 496.819 496.819" width="512" xmlns="http://www.w3.org/2000/svg"><g><g><path d="m327.169 210.657c-3.118-36.093-1.067-74.938-19.95-107.251-14.296-23.103-41.01-40.255-68.748-37.975-53.063 5.056-27.847 38.759-58.299 63.832 4.849-3.306-.206-.02-1.429 1.265-.032-.103.406-.484.984-.93-16.008 11.812-43.138 10.793-51.443-9.722-1.547-4.291-2.562-8.841-1.804-13.398 8.009-53.447-72.566-46.571-94.886-15.055-18.286 22.176-22.591 51.114-11.67 77.201-2.943 57.268-8.461 114.481-8.933 171.846 1.221 52.582.828 125.903 60.895 145.572 63.392 12.784 152.148 14.121 212.297-11.146 41.037-16.84 41.311-65.343 44.541-103.128 4.307-53.626 1.948-107.506-1.555-161.111z" fill="#41efcd"/><path d="m484.21 119.911c-1.508-26.786 2.332-58.383-11.657-81.932-3.794-12.03-16.491-21.736-28.925-21.18-11.093.497-36.052 24.713-39.14 32.03-10.938 40.937-7.776 85.387-11.807 127.547-1.479 30.981 19.354 211.05 23.222 256.093.189 15.98 13.656 30.431 30.001 30 16.73-.749 29.403-13.179 29.999-30 4.014-104.407-2.001-208.637 8.307-312.558z" fill="#ffbc73"/></g><g fill="#2e386b"><path d="m337.658 151.342c6.057-72.148-51.43-109.851-115.741-97.978.257-13.585 1.095-27.34.764-41.514-4.176-3.245-9.996-9.871-15.891-9.048-22.521 2.282-45.564 3.316-68.206 3.722-7.133-.184-18.829-1.201-18.871 9.082-.075 13.308-1.758 27.02-2.704 41.283-44.128 4.329-94.21-4.059-108.124 51.98-9.305 52.906-9.297 106.288-8.633 159.674 5.378 149.758-15.597 206.577 163.089 193.713 252.596 22.751 156.416-140.014 174.317-310.914zm-199.868-126.699c18.196-.215 37.354-.552 55.513-.362-2.073 27.375 7.866 60.207-5.761 84.693-9.919 14.747-35.883 17.388-44.411-.191-11.384-26.671-5.904-55.87-5.341-84.14zm172.353 125.625s-1.503 31.524-1.502 31.524c-2.205 42.012-1.131 84.363.141 126.453 4.859 128.181-8.676 124.394-130.37 129.183-44.063-3.076-141.154 24.248-150.406-37.706-9.636-85.02-12.621-171.376-6.008-256.742 1.803-74.5 40.259-64.164 94.387-69.09-8.512 96.609 112.241 88.656 104.912-2.325 55.129-6.223 94.214 19.447 88.846 78.703z"/><path d="m472.292 315.426c-.407 11.063 16.808 11.217 16.913.386 1.526-53.014 1.741-110.943 5.054-163.729 1.729-40.845 7.074-84.1-5.946-123.819-6.708-23.473-34.143-32.5-55.559-23.612-41.87 14.08-54.754 63.757-49.796 103.279.84 18.788 3.049 37.466 4.015 56.073-2.734 71.56 3.753 154.545.915 225.879-2.159 25.372 10.067 49.917 24.875 69.446 7.828 10.647 15.657 20.244 21.78 30.122 4.038 7.959 16.248 8.178 20.437.197 12.043-22.476 25.963-45.406 34.761-69.418 3.674-9.633-11.164-15.977-15.567-6.582-8.283 16.222-18.853 30.57-28.861 46.441-29.299-40.167-30.308-51.243-26.628-99.274-2.017-88.049-1.866-177.55-13.225-264.822 23.885-3.249 49.116.647 72.212 6.644-2.826 70.524-4.242 142.221-5.38 212.789zm-29.79-240.074c-12.331.762-24.776 2.994-36.533-1.704 1.511-26.046 26.736-61.344 55.608-49.091 10.038 5.973 13.852 28.616 15.318 48.116-10.841.653-24.14 1.811-34.393 2.679z"/><path d="m245.923 333.213c-25.965-2.551-52.098-3.017-78.082-3.877-26.147-.772-52.247-2.024-78.155-4.447-19.676.008-19.717 29.879-.121 30.037 52.233.171 103.971-6.009 156.016-8.217 8.14-.186 8.469-12.866.342-13.496z"/><path d="m111.497 258.027c22.946 18.115 32.143 42.593 51.976 5.235 9.014-14.052 18.474-37.967 38.54-31.394 14.466 5.726 22.395 22.202 35.041 31.769 6.32 5.344 15.094-4.272 9.003-10.05-12.246-12.366-20.099-31.124-37.416-38.5-30.579-13.326-51.163 15.027-65.64 37.24-23.686-21.144-26.218-46.07-54.628-11.55-9.064 9.403-24.215 20.873-11.317 33.658 14.152 12.547 26.525-6.724 34.441-16.408z"/></g></g></svg>