<svg id="Capa_1" enable-background="new 0 0 512 512" height="512" viewBox="0 0 512 512" width="512" xmlns="http://www.w3.org/2000/svg" xmlns:xlink="http://www.w3.org/1999/xlink"><linearGradient id="lg1"><stop offset="0" stop-color="#ff2f2b"/><stop offset="1" stop-color="#ff9ceb"/></linearGradient><linearGradient id="SVGID_1_" gradientUnits="userSpaceOnUse" x1="74.98" x2="437.018" xlink:href="#lg1" y1="437.019" y2="74.98"/><radialGradient id="SVGID_2_" cx="256" cy="256" gradientUnits="userSpaceOnUse" r="256"><stop offset="0" stop-color="#ff2f2b"/><stop offset="1" stop-color="#ff9ceb" stop-opacity="0"/></radialGradient><linearGradient id="lg2"><stop offset="0" stop-color="#ffb5d3"/><stop offset=".4183" stop-color="#ffdbea"/><stop offset=".7836" stop-color="#fff5f9"/><stop offset="1" stop-color="#fff"/></linearGradient><linearGradient id="SVGID_3_" gradientUnits="userSpaceOnUse" x1="39.827" x2="805.671" xlink:href="#lg2" y1="406.59" y2="-359.254"/><linearGradient id="SVGID_4_" gradientUnits="userSpaceOnUse" x1="-433.843" x2="537.559" xlink:href="#lg2" y1="1034.532" y2="63.13"/><linearGradient id="SVGID_5_" gradientUnits="userSpaceOnUse" x1="-76.506" x2="776.848" xlink:href="#lg2" y1="605.456" y2="-247.898"/><linearGradient id="SVGID_6_" gradientUnits="userSpaceOnUse" x1="78.609" x2="343.833" xlink:href="#lg1" y1="268.141" y2="2.917"/><linearGradient id="SVGID_7_" gradientUnits="userSpaceOnUse" x1="-3.684" x2="396.163" xlink:href="#lg1" y1="326.88" y2="-72.967"/><linearGradient id="lg3"><stop offset="0" stop-color="#ff91bb"/><stop offset=".2229" stop-color="#ffb0ce"/><stop offset=".5688" stop-color="#ffdbe9"/><stop offset=".8396" stop-color="#fff5f9"/><stop offset="1" stop-color="#fff"/></linearGradient><linearGradient id="SVGID_8_" gradientUnits="userSpaceOnUse" x1="200.598" x2="466.199" xlink:href="#lg3" y1="473.764" y2="208.163"/><linearGradient id="SVGID_9_" gradientUnits="userSpaceOnUse" x1="235.94" x2="367.221" xlink:href="#lg3" y1="438.422" y2="307.141"/><linearGradient id="SVGID_10_" gradientUnits="userSpaceOnUse" x1="46.016" x2="467.965" xlink:href="#lg1" y1="480.642" y2="58.693"/><linearGradient id="SVGID_11_" gradientUnits="userSpaceOnUse" x1="-69.963" x2="479.232" xlink:href="#lg1" y1="699.671" y2="150.476"/><linearGradient id="SVGID_12_" gradientUnits="userSpaceOnUse" x1="54.476" x2="572.194" y1="332.57" y2="-185.148"><stop offset="0" stop-color="#ff79a2"/><stop offset=".6553" stop-color="#ffb0cf"/><stop offset="1" stop-color="#ffc8e3"/></linearGradient><linearGradient id="SVGID_13_" gradientUnits="userSpaceOnUse" x1="142.661" x2="800.154" xlink:href="#lg3" y1="341.792" y2="-315.701"/><linearGradient id="SVGID_14_" gradientUnits="userSpaceOnUse" x1="123.453" x2="628.704" xlink:href="#lg3" y1="342.797" y2="-162.453"/><linearGradient id="SVGID_15_" gradientUnits="userSpaceOnUse" x1="115.826" x2="480.152" xlink:href="#lg2" y1="358.666" y2="-5.659"/><linearGradient id="SVGID_16_" gradientUnits="userSpaceOnUse" x1="29.509" x2="399.07" xlink:href="#lg2" y1="327.46" y2="-42.101"/><linearGradient id="SVGID_17_" gradientUnits="userSpaceOnUse" x1="58.174" x2="424.415" xlink:href="#lg2" y1="429.55" y2="63.309"/><linearGradient id="SVGID_18_" gradientUnits="userSpaceOnUse" x1="-26.065" x2="334.648" xlink:href="#lg2" y1="507.568" y2="146.856"/><linearGradient id="SVGID_19_" gradientUnits="userSpaceOnUse" x1="162.289" x2="481.766" xlink:href="#lg1" y1="315.373" y2="-4.103"/><linearGradient id="SVGID_20_" gradientUnits="userSpaceOnUse" x1="99.46" x2="421.294" xlink:href="#lg1" y1="257.38" y2="-64.454"/><linearGradient id="SVGID_21_" gradientUnits="userSpaceOnUse" x1="113.429" x2="432.678" xlink:href="#lg1" y1="371.151" y2="51.902"/><linearGradient id="SVGID_22_" gradientUnits="userSpaceOnUse" x1="98.005" x2="372.133" xlink:href="#lg1" y1="383.448" y2="109.32"/><g><circle cx="256" cy="256" fill="url(#SVGID_1_)" r="256"/><circle cx="256" cy="256" fill="url(#SVGID_2_)" r="256"/><path d="m134.163 90c-2.893 110.667-2.893 221.333 0 332 .455 16.524 14.311 31.089 30.855 32.129 19.857 1.21 39.715 2.023 59.572 2.441-1.047-133.713-1.047-267.426 0-401.139-19.857.417-39.715 1.231-59.572 2.441-16.543 1.039-30.401 15.603-30.855 32.128z" fill="url(#SVGID_3_)"/><path d="m346.587 57.847c-4.856-.295-9.712-.566-14.569-.813 2.534 132.644 2.534 265.287 0 397.931 4.988-.254 9.977-.533 14.964-.837 16.556-1.04 30.422-15.628 30.856-32.164 2.759-110.658 2.617-221.333-.4-332.027-.471-16.515-14.324-31.056-30.851-32.09z" fill="url(#SVGID_4_)"/><path d="m317.249 240.76c15.742-51.252 31.144-102.01 45.518-151.723-.401-16.626-14.207-31.134-30.749-32.002-40.81-2.077-81.619-2.481-122.428-1.213-8.278.261-15.101 7.388-15.226 15.82-1.673 117.813-1.743 235.627-.208 353.44.239 16.851 13.892 31.129 30.434 31.489 35.805.753 71.61.219 107.415-1.604 16.548-.869 30.356-15.385 30.75-32.016.458-20.111.833-40.222 1.126-60.333-15.098-39.963-30.788-80.729-46.632-121.858z" fill="url(#SVGID_5_)"/><path d="m277.814 70.621c-7.271-.098-14.542-.146-21.814-.146v15.375c7.296 0 14.592.045 21.888.134 4.173.05 7.533-3.328 7.505-7.568-.03-4.238-3.422-7.738-7.579-7.795z" fill="url(#SVGID_6_)"/><path d="m263.54 78.179c-.009-4.245-3.385-7.704-7.541-7.704-7.391 0-14.781.05-22.172.151-4.156.058-7.549 3.557-7.579 7.796-.029 4.24 3.331 7.617 7.504 7.566 7.416-.092 14.831-.138 22.246-.138 4.174-.001 7.551-3.425 7.542-7.671z" fill="url(#SVGID_7_)"/><path d="m278.712 418.325c-.069 12.719-10.235 23.199-22.695 23.2-12.461 0-22.626-10.48-22.695-23.199-.069-12.724 10.098-22.921 22.695-22.926 12.6.004 22.763 10.202 22.695 22.925z" fill="url(#SVGID_8_)"/><path d="m263.571 426.134c-12.503.054-22.682-10.375-22.727-23.102-.001-.634.028-1.26.077-1.881-4.693 4.19-7.629 10.311-7.597 17.174.07 12.719 10.235 23.199 22.695 23.199 11.841 0 21.597-9.466 22.605-21.318-4.023 3.656-9.286 5.904-15.053 5.928z" fill="url(#SVGID_9_)"/><path d="m239.241 333.865c-30.491-.127-60.983-.602-91.475-1.423.105 10.058.23 20.116.377 30.174.124 8.323 7.056 15.38 15.467 15.698 10.01.371 20.02.681 30.03.931 15.087-14.897 30.307-30.076 45.601-45.38z" fill="url(#SVGID_10_)"/><path d="m193.285 333.411c.091 15.278.209 30.557.354 45.835 51.591 1.29 103.182.979 154.773-.932 8.409-.319 15.341-7.373 15.467-15.696.39-28.233.37-30.176.38-30.176-56.99 1.535-113.982 1.858-170.974.969z" fill="url(#SVGID_11_)"/><path d="m164.683 73.034c-8.31.472-15.22 7.678-15.414 16-1.847 81.136-2.348 162.271-1.502 243.407.088 8.323 7.024 15.305 15.467 15.546 10.05.279 20.102.512 30.152.701 20.577-40.69 41.644-82.096 62.614-123.438-20.969-51.592-41.819-103.119-61.636-153.609-9.894.374-19.787.839-29.681 1.393z" fill="url(#SVGID_12_)"/><path d="m256.018 101.225c-7.444 0-14.888.042-22.333.126-6.263.071-11.929-2.415-16.006-6.492-.054-.07-23.359-23.296-23.315-23.218-1.311 92.349-1.637 184.699-.979 277.048 51.802.97 103.603.736 155.404-.701 8.442-.241 15.376-7.222 15.467-15.545.51-28.232.422-121.704.262-121.704-36.385-36.114-72.811-73.297-108.5-109.514z" fill="url(#SVGID_13_)"/><path d="m364.519 210.739c-.286-50.202-1.208-98.184-1.764-121.712-.197-8.322-7.105-15.518-15.414-15.991-10.033-.563-20.066-1.032-30.099-1.409-7.566 7.502-15.181 15.094-22.835 22.757-4.106 4.353-9.957 7.035-16.452 6.964-7.312-.081-14.625-.122-21.938-.122-.125 60.043 48.468 108.693 108.502 109.513z" fill="url(#SVGID_14_)"/><path d="m171.742 265.919c-5.802 5.728-8.985 13.319-8.954 21.418.03 8.098 3.266 15.752 9.094 21.578 5.73 5.724 13.287 8.998 21.322 9.207 5.054-12.159 10.14-24.363 15.245-36.6-5.141-12.276-10.275-24.526-15.389-36.738-7.112 7.078-14.22 14.128-21.318 21.135z" fill="url(#SVGID_15_)"/><path d="m172.41 142.277c-5.829 5.922-9.102 13.637-9.189 21.735-.086 8.1 3.028 15.629 8.776 21.262 7.032 6.89 14.085 13.838 21.153 20.828 5.164-12.274 10.334-24.58 15.497-36.903-5.04-12.189-10.047-24.338-15.008-36.434-7.978.308-15.501 3.694-21.229 9.512z" fill="url(#SVGID_16_)"/><path d="m299.467 225.342c7.851-7.811 15.69-15.588 23.509-23.309-16.042-13.071-32.063-26.208-48.019-39.27-6.304 6.311-12.623 12.648-18.952 18.999-13.549-13.594-27.047-27.122-40.455-40.477-5.729-5.709-13.352-8.745-21.489-8.542-.141.004-.281.015-.421.021-.232 24.446-.395 48.892-.489 73.337 6.453 6.382 12.918 12.799 19.392 19.24-6.495 6.496-12.99 12.98-19.483 19.442-.021 24.446.027 48.892.144 73.337.14.003.283.014.424.016 8.194.103 15.885-3.006 21.666-8.76 13.535-13.464 27.119-27.046 40.711-40.64 13.592 13.594 27.176 27.176 40.71 40.64 5.782 5.754 13.473 8.864 21.667 8.761 8.195-.102 15.917-3.397 21.746-9.222 12.04-12.037 12.125-31.172.14-42.996-13.579-13.404-27.193-26.966-40.801-40.577z" fill="url(#SVGID_17_)"/><path d="m322.976 202.034c5.69-5.619 11.37-11.208 17.036-16.76 5.748-5.632 8.861-13.162 8.776-21.262-.086-8.098-3.361-15.812-9.188-21.734-5.829-5.921-13.516-9.332-21.652-9.534-8.137-.204-15.758 2.833-21.488 8.541-7.144 7.116-14.314 14.281-21.503 21.479 11.804 17.274 28.471 31.011 48.019 39.27z" fill="url(#SVGID_18_)"/><path d="m182.628 276.725c-5.993 5.924-5.961 15.543.061 21.558 2.902 2.898 6.663 4.412 10.45 4.551 5.092-7.079 10.197-14.185 15.309-21.311-5.13-5.054-10.261-10.1-15.39-15.131-3.479 3.452-6.956 6.897-10.43 10.333z" fill="url(#SVGID_19_)"/><path d="m183.089 152.743c-6.023 6.103-6.116 15.722-.18 21.558 3.442 3.386 6.89 6.784 10.342 10.195 5.136-5.094 10.27-10.195 15.396-15.297-5.066-7.079-10.115-14.13-15.145-21.146-3.763.186-7.513 1.751-10.413 4.69z" fill="url(#SVGID_20_)"/><path d="m277.736 225.273c10.284-10.269 20.552-20.5 30.786-30.647-7.988-6.569-15.968-13.145-23.935-19.711-9.5 9.483-19.033 19.026-28.583 28.591-17.189-17.218-34.322-34.362-51.315-51.213-3.069-3.044-7.14-4.442-11.187-4.241-.101 12.147-.185 24.295-.252 36.443 13.617 13.452 27.305 27.081 41.022 40.778-13.739 13.755-27.491 27.497-41.215 41.118.01 12.148.037 24.295.08 36.443 4.072.15 8.17-1.291 11.27-4.367 17.153-17.025 34.38-34.255 51.596-51.473 17.217 17.218 34.444 34.448 51.596 51.473 5.982 5.941 15.698 5.83 21.72-.184 6.023-6.015 6.054-15.634.061-21.558-17.179-16.987-34.422-34.21-51.644-51.452z" fill="url(#SVGID_21_)"/><path d="m308.523 194.626c6.877-6.818 13.738-13.598 20.578-20.325 5.939-5.836 5.841-15.454-.18-21.558s-15.676-6.332-21.601-.449c-7.552 7.489-15.131 15.036-22.732 22.621 6.983 7.637 15.042 14.287 23.935 19.711z" fill="url(#SVGID_22_)"/></g></svg>