<svg id="Layer_1" enable-background="new 0 0 510 510" height="512" viewBox="0 0 510 510" width="512" xmlns="http://www.w3.org/2000/svg"><g><path d="m183.483 0v30h45v60.531l8 3.719 7-4.25 4.25-33.875-4.25-56.125z" fill="#454554"/><path d="m258.483 30h45.001v-30h-60.001v90l9.125 4.25 5.875-3.719z" fill="#2e2e2e"/><path d="m476.517 136.82-64.926-64.926-21.213 21.212 19.394 19.394-28.849 28.848 9.227 15.485 11.987 5.728 28.847-28.848 24.32 24.32z" fill="#d000b1"/><path d="m33.483 300c0 115.794 94.206 210 210 210l10-204.5-10-215.5c-115.794 0-210 94.206-210 210z" fill="#525263"/><path d="m243.483 90v420c115.795 0 210.001-94.206 210.001-210s-94.206-210-210.001-210z" fill="#454554"/><path d="m228.483 150v-29.37c-87.311 7.238-157.131 77.058-164.37 164.37h29.37v30h-29.37c7.238 87.311 77.059 157.132 164.37 164.37v-29.37h15l10-141.5-10-158.5z" fill="#ecf2ff"/><path d="m393.484 285h29.37c-7.239-87.312-77.059-157.132-164.371-164.37v29.37h-15v300h15v29.37c87.312-7.238 157.132-77.059 164.371-164.37h-29.37z" fill="#d9e5ff"/><path d="m198.483 360 45-25.714 10-34.286-10-34.286-45-25.714z" fill="#ff5e90"/><path d="m303.483 300-60-34.286v68.572z" fill="#d000b1"/></g></svg>