<svg height="512pt" viewBox="0 0 512 512" width="512pt" xmlns="http://www.w3.org/2000/svg"><path d="m428.621094 83.378906c44.957031 44.960938 73.378906 106.460938 73.378906 172.621094 0 67.628906-29.691406 130.390625-76.398438 175.601562-44.671874 43.226563-104.910156 70.398438-169.601562 70.398438-66.160156 0-127.660156-28.421875-172.621094-73.378906-44.957031-44.960938-73.378906-106.460938-73.378906-172.621094 0-64.691406 27.171875-124.929688 70.398438-169.601562 45.210937-46.707032 107.972656-76.398438 175.601562-76.398438 66.160156 0 127.660156 28.421875 172.621094 73.378906zm0 0" fill="#ff8f17"/><path d="m256 442c-98.792969 0-186-86.53125-186-186 0-101 88.566406-186 186-186 98.792969 0 186 86.53125 186 186 0 97.46875-85.027344 186-186 186zm0 0" fill="#ffe470"/><path d="m70 266c.101562 0 .199219 0 .300781-.011719 5.378907-.160156 9.699219-4.566406 9.699219-9.988281s-4.320312-9.828125-9.699219-9.988281c-.101562-.011719-.199219-.011719-.300781-.011719-5.519531 0-10 4.480469-10 10s4.480469 10 10 10zm0 0"/><path d="m256 512c138.816406 0 256-119.304688 256-256 0-137.820312-118.113281-256-256-256-136.550781 0-256 116.980469-256 256 0 137.617188 117.917969 256 256 256zm-226-266h-9.765625c2.371094-53.019531 23.554687-103.910156 60.433594-145.1875l6.699219 6.699219c3.90625 3.902343 10.238281 3.902343 14.144531 0 3.90625-3.90625 3.90625-10.238281 0-14.144531l-6.933594-6.933594c41.84375-39.921875 96.078125-63.625 151.421875-66.1875v15.753906c0 5.523438 4.476562 10 10 10s10-4.476562 10-10v-15.753906c53.859375 2.511718 106.957031 25.164062 148.324219 63.289062l-9.835938 9.832032c-3.902343 3.90625-3.902343 10.238281 0 14.144531 3.90625 3.902343 10.234375 3.90625 14.144531 0l9.832032-9.835938c38.125 41.367188 60.777344 94.464844 63.289062 148.324219h-12.753906c-5.523438 0-10 4.476562-10 10s4.476562 9.898438 10 9.898438h12.753906c-2.5625 55.34375-26.265625 109.679687-66.191406 151.523437l-6.929688-6.933594c-3.90625-3.90625-10.238281-3.90625-14.144531 0s-3.90625 10.238281 0 14.144531l6.699219 6.699219c-41.277344 36.878907-92.167969 58.058594-145.1875 60.433594v-9.765625c0-5.523438-4.476562-10-10-10s-10 4.476562-10 10v9.753906c-53.859375-2.511718-106.957031-25.164062-148.324219-63.289062l9.394531-9.394532c3.90625-3.90625 3.90625-10.234374 0-14.140624s-10.234374-3.90625-14.140624 0l-9.394532 9.390624c-38.125-41.363281-60.777344-94.460937-63.289062-148.320312h9.753906c5.523438 0 10-4.476562 10-10s-4.476562-10-10-10zm0 0"/><path d="m72.210938 225.992188c5.386718 1.21875 10.742187-2.15625 11.960937-7.542969 17.582031-77.636719 93.054687-138.449219 171.828125-138.449219 93.757812 0 176 82.242188 176 176s-82.242188 176-176 176c-78.773438 0-154.246094-60.8125-171.828125-138.449219-1.21875-5.386719-6.574219-8.765625-11.960937-7.542969-5.386719 1.21875-8.765626 6.574219-7.542969 11.960938 19.5 86.132812 102.449219 154.03125 191.332031 154.03125 104.429688 0 196-91.050781 196-196 0-104.984375-91.613281-196-196-196-88.945312 0-171.839844 67.949219-191.332031 154.03125-1.222657 5.386719 2.15625 10.742188 7.542969 11.960938zm0 0"/><path d="m256 326c-16.542969 0-30-13.457031-30-30 0-5.523438-4.476562-10-10-10s-10 4.476562-10 10c0 24.144531 17.203125 44.347656 40 48.992188v21.007812c0 5.523438 4.476562 10 10 10s10-4.476562 10-10v-21.007812c22.796875-4.644532 40-24.84375 40-48.992188 0-27.570312-22.429688-50-50-50-16.542969 0-30-13.457031-30-30s13.457031-30 30-30 30 13.457031 30 30c0 5.523438 4.476562 10 10 10s10-4.476562 10-10c0-24.144531-17.203125-44.347656-40-48.992188v-21.007812c0-5.523438-4.476562-10-10-10s-10 4.476562-10 10v21.007812c-22.796875 4.644532-40 24.84375-40 48.992188 0 27.570312 22.429688 50 50 50 16.542969 0 30 13.457031 30 30s-13.457031 30-30 30zm0 0"/></svg>