<?xml version="1.0" encoding="iso-8859-1"?>
<!-- Generator: Adobe Illustrator 19.0.0, SVG Export Plug-In . SVG Version: 6.00 Build 0)  -->
<svg version="1.1" id="Capa_1" xmlns="http://www.w3.org/2000/svg" xmlns:xlink="http://www.w3.org/1999/xlink" x="0px" y="0px"
	 viewBox="0 0 512 512" style="enable-background:new 0 0 512 512;" xml:space="preserve">
<circle style="fill:#40C488;" cx="256" cy="256" r="256"/>
<path style="fill:#F7F7F7;" d="M481.907,376.499V135.501c-15.421-28.851-36.206-54.396-61.024-75.316H91.117
	C66.299,81.104,45.514,106.65,30.093,135.5v240.998C73.192,457.131,158.183,512,256,512S438.808,457.131,481.907,376.499z"/>
<path style="fill:#DFE1E5;" d="M85.779,76.084H73.921c-17.311,17.517-32.119,37.511-43.828,59.417v240.998
	c14.302,26.756,33.221,50.671,55.686,70.69V76.084z"/>
<path style="fill:#616B84;" d="M442.525,60.186H69.476c-21.661,0-39.383,17.722-39.383,39.383v44.282h451.814V99.568
	C481.907,77.908,464.185,60.186,442.525,60.186z"/>
<path style="fill:#515A71;" d="M125.602,60.186H69.476c-21.661,0-39.383,17.722-39.383,39.383v44.282h56.126V99.568
	C86.219,77.908,103.941,60.186,125.602,60.186z"/>
<circle style="fill:#F55479;" cx="85.78" cy="101.8" r="12.989"/>
<circle style="fill:#FEC63B;" cx="122.78" cy="101.8" r="12.989"/>
<circle style="fill:#40C488;" cx="159.77" cy="101.8" r="12.989"/>
<rect x="135.76" y="143.85" style="fill:#57B5E9;" width="346.14" height="39.12"/>
<rect x="30.09" y="143.85" style="fill:#43A0D8;" width="108.24" height="39.12"/>
<rect x="30.09" y="143.85" style="fill:#238CC1;" width="55.686" height="39.12"/>
<path style="fill:#7D899E;" d="M364.296,110.993h-161.16c-4.957,0-8.975-4.018-8.975-8.975s4.018-8.975,8.975-8.975h161.16
	c4.957,0,8.975,4.018,8.975,8.975C373.271,106.976,369.253,110.993,364.296,110.993z"/>
<path style="fill:#DFE1E5;" d="M495.909,429.701H373.596c-4.241,0-7.679-3.438-7.679-7.679V234.085c0-4.241,3.438-7.679,7.679-7.679
	h122.313c4.241,0,7.679,3.438,7.679,7.679v187.937C503.588,426.263,500.15,429.701,495.909,429.701z"/>
<path style="fill:#D2D3D6;" d="M433.449,422.022V234.085c0-4.241,3.438-7.679,7.679-7.679h-67.532c-4.241,0-7.679,3.438-7.679,7.679
	v187.937c0,4.241,3.438,7.679,7.679,7.679h67.532C436.887,429.701,433.449,426.263,433.449,422.022z"/>
<path style="fill:#F1446C;" d="M365.916,234.085v30.384h137.672v-30.384c0-4.241-3.438-7.679-7.679-7.679H373.596
	C369.355,226.406,365.916,229.844,365.916,234.085z"/>
<path style="fill:#ED335F;" d="M441.126,226.406h-67.529c-2.121,0-4.041,0.859-5.43,2.249c-1.39,1.39-2.249,3.31-2.249,5.43v30.384
	h67.532v-30.384C433.449,229.845,436.885,226.407,441.126,226.406z"/>
<g>
	<path style="fill:#F7F7F7;" d="M467.638,308.802h-39.984c-4.822,0-8.732-3.909-8.732-8.732s3.909-8.732,8.732-8.732h39.984
		c4.822,0,8.732,3.909,8.732,8.732S472.461,308.802,467.638,308.802z"/>
	<path style="fill:#F7F7F7;" d="M467.638,349.356h-39.984c-4.822,0-8.732-3.909-8.732-8.732s3.909-8.732,8.732-8.732h39.984
		c4.822,0,8.732,3.909,8.732,8.732S472.461,349.356,467.638,349.356z"/>
	<path style="fill:#F7F7F7;" d="M467.638,389.91h-39.984c-4.822,0-8.732-3.909-8.732-8.732s3.909-8.732,8.732-8.732h39.984
		c4.822,0,8.732,3.909,8.732,8.732S472.461,389.91,467.638,389.91z"/>
	<path style="fill:#F7F7F7;" d="M400.552,308.802h-0.217c-4.822,0-8.732-3.909-8.732-8.732s3.909-8.732,8.732-8.732h0.217
		c4.822,0,8.732,3.909,8.732,8.732C409.283,304.893,405.374,308.802,400.552,308.802z"/>
	<path style="fill:#F7F7F7;" d="M400.552,349.356h-0.217c-4.822,0-8.732-3.909-8.732-8.732s3.909-8.732,8.732-8.732h0.217
		c4.822,0,8.732,3.909,8.732,8.732C409.283,345.447,405.374,349.356,400.552,349.356z"/>
	<path style="fill:#F7F7F7;" d="M400.552,389.91h-0.217c-4.822,0-8.732-3.909-8.732-8.732s3.909-8.732,8.732-8.732h0.217
		c4.822,0,8.732,3.909,8.732,8.732C409.283,386.001,405.374,389.91,400.552,389.91z"/>
</g>
<path style="fill:#DFE1E5;" d="M317.157,429.701H194.844c-4.241,0-7.679-3.438-7.679-7.679V234.085c0-4.241,3.438-7.679,7.679-7.679
	h122.313c4.241,0,7.679,3.438,7.679,7.679v187.937C324.836,426.263,321.398,429.701,317.157,429.701z"/>
<path style="fill:#D2D3D6;" d="M254.697,422.022V234.085c0-4.241,3.438-7.679,7.679-7.679h-67.532c-4.241,0-7.679,3.438-7.679,7.679
	v187.937c0,4.241,3.438,7.679,7.679,7.679h67.532C258.135,429.701,254.697,426.263,254.697,422.022z"/>
<path style="fill:#FEC63B;" d="M187.164,234.085v30.384h137.672v-30.384c0-4.241-3.438-7.679-7.679-7.679H194.844
	C190.603,226.406,187.164,229.844,187.164,234.085z"/>
<path style="fill:#F9B430;" d="M262.374,226.406h-67.529c-2.121,0-4.041,0.859-5.43,2.249c-1.39,1.39-2.249,3.31-2.249,5.43v30.384
	h67.532v-30.384C254.697,229.845,258.133,226.407,262.374,226.406z"/>
<path style="fill:#DFE1E5;" d="M138.405,429.701H16.092c-4.241,0-7.679-3.438-7.679-7.679V234.085c0-4.241,3.438-7.679,7.679-7.679
	h122.313c4.241,0,7.679,3.438,7.679,7.679v187.937C146.084,426.263,142.646,429.701,138.405,429.701z"/>
<path style="fill:#D2D3D6;" d="M75.944,422.022V234.085c0-4.241,3.438-7.679,7.679-7.679H16.092c-4.241,0-7.679,3.438-7.679,7.679
	v187.937c0,4.241,3.438,7.679,7.679,7.679h67.532C79.383,429.701,75.944,426.263,75.944,422.022z"/>
<path style="fill:#43A0D8;" d="M8.412,234.085v30.384h137.672v-30.384c0-4.241-3.438-7.679-7.679-7.679H16.092
	C11.851,226.406,8.412,229.844,8.412,234.085z"/>
<path style="fill:#238CC1;" d="M83.621,226.406H16.092c-2.121,0-4.041,0.859-5.43,2.249c-1.39,1.39-2.249,3.31-2.249,5.43v30.384
	h67.532v-30.384C75.944,229.845,79.381,226.407,83.621,226.406z"/>
<g>
	<path style="fill:#F7F7F7;" d="M289.652,308.802h-39.984c-4.822,0-8.732-3.909-8.732-8.732s3.909-8.732,8.732-8.732h39.984
		c4.822,0,8.732,3.909,8.732,8.732S294.474,308.802,289.652,308.802z"/>
	<path style="fill:#F7F7F7;" d="M289.652,349.356h-39.984c-4.822,0-8.732-3.909-8.732-8.732s3.909-8.732,8.732-8.732h39.984
		c4.822,0,8.732,3.909,8.732,8.732S294.474,349.356,289.652,349.356z"/>
	<path style="fill:#F7F7F7;" d="M289.652,389.91h-39.984c-4.822,0-8.732-3.909-8.732-8.732s3.909-8.732,8.732-8.732h39.984
		c4.822,0,8.732,3.909,8.732,8.732S294.474,389.91,289.652,389.91z"/>
	<path style="fill:#F7F7F7;" d="M222.565,308.802h-0.217c-4.822,0-8.732-3.909-8.732-8.732s3.909-8.732,8.732-8.732h0.217
		c4.822,0,8.732,3.909,8.732,8.732S227.387,308.802,222.565,308.802z"/>
	<path style="fill:#F7F7F7;" d="M222.565,349.356h-0.217c-4.822,0-8.732-3.909-8.732-8.732s3.909-8.732,8.732-8.732h0.217
		c4.822,0,8.732,3.909,8.732,8.732S227.387,349.356,222.565,349.356z"/>
	<path style="fill:#F7F7F7;" d="M222.565,389.91h-0.217c-4.822,0-8.732-3.909-8.732-8.732s3.909-8.732,8.732-8.732h0.217
		c4.822,0,8.732,3.909,8.732,8.732S227.387,389.91,222.565,389.91z"/>
	<path style="fill:#F7F7F7;" d="M110.9,308.802H70.915c-4.822,0-8.732-3.909-8.732-8.732s3.909-8.732,8.732-8.732H110.9
		c4.822,0,8.732,3.909,8.732,8.732C119.631,304.893,115.722,308.802,110.9,308.802z"/>
	<path style="fill:#F7F7F7;" d="M110.9,349.356H70.915c-4.822,0-8.732-3.909-8.732-8.732s3.909-8.732,8.732-8.732H110.9
		c4.822,0,8.732,3.909,8.732,8.732C119.631,345.447,115.722,349.356,110.9,349.356z"/>
	<path style="fill:#F7F7F7;" d="M110.9,389.91H70.915c-4.822,0-8.732-3.909-8.732-8.732s3.909-8.732,8.732-8.732H110.9
		c4.822,0,8.732,3.909,8.732,8.732C119.631,386.001,115.722,389.91,110.9,389.91z"/>
	<path style="fill:#F7F7F7;" d="M43.813,308.802h-0.217c-4.822,0-8.732-3.909-8.732-8.732s3.909-8.732,8.732-8.732h0.217
		c4.822,0,8.732,3.909,8.732,8.732S48.635,308.802,43.813,308.802z"/>
	<path style="fill:#F7F7F7;" d="M43.813,349.356h-0.217c-4.822,0-8.732-3.909-8.732-8.732s3.909-8.732,8.732-8.732h0.217
		c4.822,0,8.732,3.909,8.732,8.732S48.635,349.356,43.813,349.356z"/>
	<path style="fill:#F7F7F7;" d="M43.813,389.91h-0.217c-4.822,0-8.732-3.909-8.732-8.732s3.909-8.732,8.732-8.732h0.217
		c4.822,0,8.732,3.909,8.732,8.732S48.635,389.91,43.813,389.91z"/>
</g>
<g>
</g>
<g>
</g>
<g>
</g>
<g>
</g>
<g>
</g>
<g>
</g>
<g>
</g>
<g>
</g>
<g>
</g>
<g>
</g>
<g>
</g>
<g>
</g>
<g>
</g>
<g>
</g>
<g>
</g>
</svg>
