<svg id="Capa_1" enable-background="new 0 0 512 512" height="512" viewBox="0 0 512 512" width="512" xmlns="http://www.w3.org/2000/svg"><g><g><path d="m469.404 294.791h-48.346l-57.33 70.187h105.676c19.381 0 35.093-15.712 35.093-35.093 0-19.382-15.712-35.094-35.093-35.094z" fill="#ffddce"/><path d="m504.5 329.882c0 19.385-15.711 35.096-35.096 35.096h-105.673l19.922-24.386h85.752c15.093 0 27.959-9.526 32.92-22.898 1.406 3.796 2.175 7.895 2.175 12.188z" fill="#ffcbbe"/><path d="m464.342 224.605h-48.346l-57.33 70.187h105.676c19.381 0 35.093-15.712 35.093-35.093.001-19.383-15.711-35.094-35.093-35.094z" fill="#ffddce"/><path d="m499.439 259.695c0 19.385-15.711 35.096-35.096 35.096h-105.674l19.922-24.386h85.752c15.093 0 27.959-9.526 32.92-22.898 1.406 3.796 2.176 7.896 2.176 12.188z" fill="#ffcbbe"/><path d="m439.035 154.418h-48.345l-57.33 70.187h105.676c19.381 0 35.093-15.712 35.093-35.093-.001-19.382-15.712-35.094-35.094-35.094z" fill="#ffddce"/><path d="m474.131 189.508c0 19.385-15.711 35.096-35.096 35.096h-105.673l19.922-24.386h85.752c15.093 0 27.959-9.526 32.92-22.898 1.406 3.796 2.175 7.896 2.175 12.188z" fill="#ffcbbe"/><path d="m313.206 435.038h-162.909l-71.398-61.972-16.576-70.885 30.314-83.591 33.335-78.432c9.627-22.665 27.221-41.028 49.451-51.617l61.112-29.113c15.326-7.309 33.588-4.161 45.594 7.835 4.565 4.565 7.825 10.012 9.738 15.842.01 0 .01.01.01.01 1.326 4.039 1.994 8.27 1.994 12.512 0 7.38-2.035 14.81-6.205 21.4l-25.176 39.863 37.384 205.01 12.583 69.018z" fill="#ffddce"/><path d="m312.457 430.918c-.759 1.387-1.509 2.764-2.257 4.12h-159.903l-23.86-89.568c32.333 14.435 111.777 43.782 173.436 16.43 4.545-2.014 8.999-4.343 13.332-7.005 51.85-31.908 24.67 29.235-.748 76.023z" fill="#ffcbbe"/><path d="m291.867 83.104c-9.758-15.832-51.91 1.842-79.394 16.409-25.166 13.332-92.675 99.205-100.227 192.7l-19.609-73.623 33.335-78.432c9.627-22.665 27.221-41.028 49.451-51.617l61.112-29.113c15.326-7.309 33.588-4.161 45.594 7.835 4.565 4.564 7.825 10.011 9.738 15.841z" fill="#ffcbbe"/><g><path d="m339.149 90.183h55.539v60.706h-55.539z" fill="#ffd064" transform="matrix(.952 .308 -.308 .952 54.888 -107.05)"/><path d="m413.058 120.867c-28.155-8.276-56.067-17.302-83.737-27.079-11.229-3.967-17.467-16.098-13.839-27.442.044-.136.088-.273.132-.409 3.7-11.32 15.861-17.501 27.286-14.142 28.155 8.276 56.067 17.302 83.737 27.079 11.229 3.967 17.467 16.098 13.839 27.441-.044.136-.088.273-.132.409-3.7 11.32-15.86 17.502-27.286 14.143z" fill="#f6e266"/><path d="m366.48 106.42c-12.435-4.061-24.814-8.271-37.161-12.63-11.229-3.974-17.466-16.101-13.838-27.442l.133-.411c3.7-11.318 15.858-17.504 27.286-14.143 12.561 3.696 25.061 7.531 37.52 11.52-11.038-1.906-22.111 4.393-25.676 15.269l-.137.425c-3.477 10.898 1.809 22.494 11.873 27.412z" fill="#ffd064"/></g><path d="m418.886 364.851h-48.346l-57.33 70.187h105.676c19.382 0 35.093-15.712 35.093-35.093 0-19.382-15.712-35.094-35.093-35.094z" fill="#ffddce"/><path d="m453.982 399.941c0 19.385-15.711 35.096-35.096 35.096h-105.673l19.922-24.386h85.751c15.093 0 27.959-9.526 32.92-22.898 1.407 3.797 2.176 7.896 2.176 12.188z" fill="#ffcbbe"/><g><circle cx="313.21" cy="279.084" fill="#f6e266" r="155.953"/><path d="m323.223 434.724c-3.31.202-6.651.314-10.012.314-86.136 0-155.954-69.828-155.954-155.954s69.818-155.954 155.954-155.954c3.361 0 6.701.111 10.012.314-81.439 5.203-145.881 72.895-145.881 155.64s64.442 150.437 145.881 155.64z" fill="#ffd064"/><circle cx="313.21" cy="279.084" fill="#d3effb" r="119.194"/><path d="m334.037 396.55c-6.6 1.144-13.393 1.731-20.317 1.731-65.829 0-119.197-53.368-119.197-119.197s53.368-119.197 119.197-119.197c6.924 0 13.717.587 20.317 1.731-56.142 9.637-98.871 58.561-98.871 117.466s42.729 107.829 98.871 117.466z" fill="#9dc6fb"/><path d="m313.21 294.268c-8.386 0-15.184-6.798-15.184-15.184v-38.772c0-8.386 6.798-15.184 15.184-15.184s15.184 6.798 15.184 15.184v38.772c.001 8.386-6.798 15.184-15.184 15.184z" fill="#2b4d66"/></g><path d="m150.297 435.038-85.143 26.107-36.706-137.824-20.944-78.635 85.133-26.096 20.945 78.624z" fill="#dd636e"/><path d="m113.582 297.214-85.134 26.107-20.944-78.635 85.133-26.096z" fill="#cb5769"/></g><g><path d="m499.524 299.763c-2.633-2.629-5.553-4.864-8.683-6.692 9.861-7.841 16.097-19.937 16.097-33.372 0-11.371-4.428-22.068-12.476-30.128-6.448-6.439-14.594-10.553-23.423-11.94 6.758-7.655 10.591-17.546 10.591-28.124 0-11.364-4.428-22.058-12.476-30.119-8.053-8.04-18.75-12.467-30.12-12.467h-29.772c-3.673-2.677-7.455-5.214-11.35-7.584l4.469-13.823c2.855.856 5.71 1.71 8.562 2.549 2.863.842 5.742 1.243 8.568 1.243 12.487 0 23.908-7.846 27.971-20.275l.139-.43c4.877-15.249-3.242-31.412-18.483-36.798-27.666-9.775-55.969-18.927-84.121-27.203-15.506-4.558-31.555 3.79-36.524 18.989l-.152.472c-4.878 15.249 3.24 31.413 18.484 36.799 2.803.99 5.617 1.97 8.432 2.947l-4.144 12.811c-5.881-.644-11.852-.985-17.901-.985-5.622 0-11.179.286-16.657.843 3.162-6.478 4.817-13.594 4.817-20.853 0-12.721-4.949-24.676-13.939-33.666-14.222-14.211-35.969-17.951-54.116-9.306l-61.111 29.111c-18.945 9.028-34.764 23.257-45.745 41.147-2.167 3.53-1.062 8.148 2.468 10.315 1.225.751 2.578 1.109 3.917 1.109 2.521 0 4.983-1.271 6.398-3.577 9.463-15.415 23.092-27.674 39.414-35.453l61.111-29.11c12.424-5.921 27.319-3.36 37.061 6.373 6.153 6.154 9.543 14.342 9.543 23.057 0 6.166-1.743 12.184-5.038 17.399l-4.196 6.63c-72.828 16.469-127.376 81.696-127.376 159.43 0 65.739 39.015 122.528 95.102 148.454h-88.8l-55.512-208.393 26.451-62.237c1.62-3.812-.156-8.216-3.969-9.836-3.806-1.618-8.216.156-9.836 3.969l-26.096 61.4-81.8 25.081c-3.856 1.182-6.087 5.203-5.049 9.101l57.658 216.451c.524 1.969 1.827 3.64 3.608 4.628 1.124.624 2.378.942 3.639.942.738 0 1.479-.109 2.198-.33l84.066-25.776 267.466.001c23.482 0 42.587-19.109 42.587-42.596 0-10.163-3.55-19.782-10.05-27.465h17.977c23.488 0 42.597-19.109 42.597-42.596 0-11.377-4.43-22.072-12.476-30.117zm-7.586-40.064c0 10.783-6.196 20.233-15.373 24.758.057-1.786.096-3.576.096-5.373 0-16.118-2.356-31.693-6.723-46.413 5.237 1.073 10.052 3.645 13.917 7.506 5.213 5.22 8.083 12.153 8.083 19.522zm-52.903-97.778c7.368 0 14.302 2.87 19.514 8.073 5.212 5.22 8.082 12.15 8.082 19.512 0 6.695-2.365 12.971-6.557 17.883-8.344-17.024-19.563-32.39-33.02-45.469h11.981zm-116.399-93.318.108-.334c2.398-7.334 10.488-11.498 18.042-9.277 27.896 8.2 55.94 17.269 83.353 26.955 7.421 2.622 11.545 10.735 9.185 18.117l-.107.331c-2.398 7.336-10.497 11.496-18.043 9.277-27.892-8.199-55.935-17.268-83.352-26.955-7.422-2.622-11.546-10.735-9.186-18.114zm26.814 40.059c12.798 4.312 25.682 8.479 38.58 12.476l-3.519 10.886c-12.05-5.866-24.92-10.298-38.392-13.063zm-279.047 343.028-53.794-201.946 70.79-21.706 53.794 201.947zm348.487-24.152h-37.238c6.831-3.154 13.466-6.781 19.848-10.888 3.483-2.241 4.49-6.882 2.248-10.365-2.241-3.484-6.88-4.49-10.365-2.249-23.889 15.372-51.612 23.497-80.172 23.497-81.855 0-148.45-66.594-148.45-148.45s66.595-148.45 148.45-148.45 148.45 66.594 148.45 148.45c0 40.905-16.284 79.004-45.853 107.279-2.993 2.863-3.1 7.61-.237 10.604s7.61 3.099 10.604.237c4.965-4.748 9.586-9.751 13.859-14.975 4.168 4.965 6.443 11.166 6.443 17.713 0 15.217-12.375 27.597-27.587 27.597zm50.513-70.061h-12.653c9.265-16.891 15.426-35.321 18.207-54.624 5.253 1.068 10.085 3.646 13.965 7.52 5.209 5.209 8.078 12.137 8.078 19.508 0 15.217-12.38 27.596-27.597 27.596z"/><path d="m313.211 152.39c-69.859 0-126.693 56.835-126.693 126.694s56.834 126.694 126.693 126.694 126.694-56.834 126.694-126.694-56.835-126.694-126.694-126.694zm62.198 219.423-3.65-6.322c-2.07-3.587-6.66-4.815-10.245-2.745-3.587 2.071-4.816 6.658-2.745 10.245l3.66 6.339c-12.736 6.278-26.831 10.198-41.717 11.19v-17.454c0-4.142-3.357-7.5-7.5-7.5s-7.5 3.358-7.5 7.5v17.454c-14.886-.992-28.981-4.911-41.717-11.19l3.66-6.339c2.071-3.587.842-8.174-2.745-10.245s-8.174-.843-10.245 2.745l-3.65 6.322c-12.043-8.104-22.428-18.489-30.532-30.532l6.322-3.65c3.587-2.071 4.816-6.658 2.745-10.245-2.07-3.588-6.659-4.816-10.245-2.745l-6.339 3.66c-6.278-12.736-10.198-26.831-11.19-41.717h17.454c4.143 0 7.5-3.358 7.5-7.5s-3.357-7.5-7.5-7.5h-17.454c.992-14.886 4.912-28.982 11.19-41.717l6.339 3.66c1.182.682 2.471 1.006 3.743 1.006 2.592 0 5.113-1.345 6.502-3.751 2.071-3.587.842-8.174-2.745-10.245l-6.322-3.65c8.104-12.043 18.489-22.428 30.532-30.532l3.65 6.322c1.39 2.406 3.91 3.751 6.502 3.751 1.272 0 2.562-.324 3.743-1.006 3.587-2.071 4.816-6.658 2.745-10.245l-3.66-6.339c12.736-6.278 26.831-10.198 41.717-11.189v17.454c0 4.142 3.357 7.5 7.5 7.5s7.5-3.358 7.5-7.5v-17.454c14.886.992 28.982 4.911 41.717 11.189l-3.66 6.339c-2.071 3.587-.842 8.174 2.745 10.245 1.182.682 2.471 1.006 3.743 1.006 2.592 0 5.113-1.345 6.502-3.751l3.65-6.322c12.043 8.104 22.428 18.489 30.532 30.532l-6.322 3.65c-3.587 2.071-4.816 6.658-2.745 10.245 1.389 2.406 3.91 3.751 6.502 3.751 1.272 0 2.562-.324 3.743-1.006l6.339-3.66c6.278 12.736 10.198 26.831 11.19 41.717h-17.454c-4.143 0-7.5 3.358-7.5 7.5s3.357 7.5 7.5 7.5h17.454c-.992 14.886-4.911 28.982-11.19 41.717l-6.339-3.66c-3.589-2.072-8.175-.842-10.245 2.745-2.071 3.587-.842 8.174 2.745 10.245l6.322 3.65c-8.104 12.043-18.489 22.428-30.532 30.532z"/><path d="m313.211 217.627c-12.509 0-22.685 10.176-22.685 22.684v38.772c0 12.508 10.176 22.684 22.685 22.684s22.685-10.176 22.685-22.684v-38.772c0-12.507-10.176-22.684-22.685-22.684zm7.685 61.457c0 4.237-3.447 7.684-7.685 7.684s-7.685-3.447-7.685-7.684v-38.772c0-4.237 3.447-7.684 7.685-7.684s7.685 3.447 7.685 7.684z"/></g></g></svg>