<svg id="Capa_1" enable-background="new 0 0 512 512" height="512" viewBox="0 0 512 512" width="512" xmlns="http://www.w3.org/2000/svg"><g><circle cx="256" cy="256" fill="#95b0ed" r="135"/><path d="m256 151v210c57.99 0 105-47.01 105-105s-47.01-105-105-105z" fill="#c4f3ff"/><path d="m331 256c0-57.99-33.579-105-75-105-57.99 0-105 47.01-105 105s47.01 105 105 105c41.421 0 75-47.01 75-105z" fill="#fff"/><circle cx="256" cy="34.25" fill="#c4f3ff" r="26.75"/><circle cx="256" cy="477.75" fill="#ffd06a" r="26.75"/><circle cx="145.125" cy="63.959" fill="#14cfff" r="26.75"/><circle cx="366.875" cy="448.041" fill="#ff9733" r="26.75"/><circle cx="63.959" cy="145.125" fill="#318de9" r="26.75"/><circle cx="448.041" cy="366.875" fill="#ff545a" r="26.75"/><circle cx="34.25" cy="256" fill="#14d7b6" r="26.75"/><circle cx="477.75" cy="256" fill="#ff0787" r="26.75"/><circle cx="63.959" cy="366.875" fill="#82ffbb" r="26.75"/><circle cx="448.041" cy="145.125" fill="#666ddc" r="26.75"/><circle cx="145.125" cy="448.041" fill="#ffe7b5" r="26.75"/><circle cx="366.875" cy="63.959" fill="#95b0ed" r="26.75"/><circle cx="256" cy="331" r="7.5"/><ellipse cx="293.5" cy="320.952" rx="7.5" ry="7.5" transform="matrix(.259 -.966 .966 .259 -92.479 521.383)"/><path d="m222.25 197.543c3.587-2.071 4.816-6.658 2.745-10.245s-6.658-4.816-10.245-2.745-4.816 6.658-2.745 10.245 6.658 4.816 10.245 2.745z"/><ellipse cx="320.952" cy="293.5" rx="7.5" ry="7.5" transform="matrix(.966 -.259 .259 .966 -65.027 93.069)"/><path d="m187.298 224.995c3.587 2.071 8.174.842 10.245-2.745s.842-8.174-2.745-10.245-8.174-.842-10.245 2.745-.842 8.174 2.745 10.245z"/><circle cx="181" cy="256" r="7.5"/><path d="m324.702 224.995c3.587-2.071 4.816-6.658 2.745-10.245s-6.658-4.816-10.245-2.745-4.816 6.658-2.745 10.245 6.658 4.816 10.245 2.745z"/><path d="m194.798 299.995c3.587-2.071 4.816-6.658 2.745-10.245s-6.658-4.816-10.245-2.745-4.816 6.658-2.745 10.245 6.658 4.816 10.245 2.745z"/><path d="m289.75 197.543c3.587 2.071 8.174.842 10.245-2.745s.842-8.174-2.745-10.245-8.174-.842-10.245 2.745-.842 8.174 2.745 10.245z"/><ellipse cx="218.5" cy="320.952" rx="7.5" ry="7.5" transform="matrix(.966 -.259 .259 .966 -75.623 67.488)"/><path d="m256 368.5c62.033 0 112.5-50.467 112.5-112.5s-50.467-112.5-112.5-112.5-112.5 50.467-112.5 112.5 50.467 112.5 112.5 112.5zm0-210c53.762 0 97.5 43.738 97.5 97.5s-43.738 97.5-97.5 97.5-97.5-43.738-97.5-97.5 43.738-97.5 97.5-97.5z"/><path d="m256 263.5h75c4.142 0 7.5-3.358 7.5-7.5s-3.358-7.5-7.5-7.5h-67.5v-67.5c0-4.142-3.358-7.5-7.5-7.5s-7.5 3.358-7.5 7.5v75c0 4.142 3.358 7.5 7.5 7.5z"/><path d="m256 68.5c18.886 0 34.25-15.364 34.25-34.25s-15.364-34.25-34.25-34.25-34.25 15.364-34.25 34.25 15.364 34.25 34.25 34.25zm0-53.5c10.614 0 19.25 8.636 19.25 19.25s-8.636 19.25-19.25 19.25-19.25-8.636-19.25-19.25 8.636-19.25 19.25-19.25z"/><path d="m256 443.5c-18.886 0-34.25 15.364-34.25 34.25s15.364 34.25 34.25 34.25 34.25-15.364 34.25-34.25-15.364-34.25-34.25-34.25zm0 53.5c-10.614 0-19.25-8.636-19.25-19.25s8.636-19.25 19.25-19.25 19.25 8.636 19.25 19.25-8.636 19.25-19.25 19.25z"/><path d="m162.25 93.62c16.356-9.443 21.979-30.431 12.536-46.786s-30.43-21.979-46.786-12.537-21.979 30.431-12.536 46.786 30.43 21.98 46.786 12.537zm-26.75-46.332c9.192-5.307 20.989-2.146 26.296 7.046s2.146 20.989-7.046 26.296-20.989 2.146-26.296-7.046-2.146-20.989 7.046-26.296z"/><path d="m349.75 418.38c-16.356 9.443-21.979 30.431-12.536 46.786s30.431 21.979 46.786 12.536 21.979-30.431 12.536-46.786-30.43-21.979-46.786-12.536zm26.75 46.332c-9.192 5.307-20.989 2.146-26.296-7.046s-2.146-20.989 7.046-26.296 20.989-2.146 26.296 7.046 2.146 20.989-7.046 26.296z"/><path d="m46.834 174.786c16.356 9.443 37.344 3.819 46.786-12.536s3.819-37.344-12.536-46.786-37.344-3.82-46.787 12.536-3.819 37.344 12.537 46.786zm.454-39.286c5.307-9.192 17.104-12.353 26.296-7.046s12.353 17.104 7.046 26.296-17.104 12.353-26.296 7.046-12.353-17.104-7.046-26.296z"/><path d="m465.166 337.214c-16.356-9.443-37.344-3.819-46.786 12.536s-3.819 37.344 12.536 46.786 37.344 3.819 46.786-12.536 3.82-37.344-12.536-46.786zm-.454 39.286c-5.307 9.192-17.104 12.353-26.296 7.046s-12.353-17.104-7.046-26.296 17.104-12.353 26.296-7.046 12.353 17.104 7.046 26.296z"/><path d="m402.644 332.005-19.672-11.358c8.851-17.314 14.263-36.665 15.331-57.147h22.697c4.142 0 7.5-3.358 7.5-7.5s-3.358-7.5-7.5-7.5h-22.697c-1.067-20.482-6.48-39.833-15.331-57.147l19.672-11.358c3.587-2.071 4.816-6.658 2.745-10.245s-6.658-4.816-10.245-2.745l-19.699 11.373c-10.876-16.678-25.145-30.948-41.823-41.823l11.373-19.699c2.071-3.587.842-8.174-2.745-10.245s-8.174-.842-10.245 2.745l-11.358 19.672c-17.314-8.851-36.665-14.263-57.147-15.331v-22.697c0-4.142-3.358-7.5-7.5-7.5s-7.5 3.358-7.5 7.5v22.699c-20.482 1.068-39.829 6.484-57.143 15.336l-11.362-19.68c-2.071-3.587-6.658-4.816-10.245-2.745s-4.816 6.658-2.745 10.245l11.371 19.695c-16.678 10.876-30.949 25.146-41.825 41.825l-19.695-11.371c-3.587-2.071-8.174-.842-10.245 2.745s-.842 8.174 2.745 10.245l19.68 11.362c-8.852 17.314-14.273 36.66-15.341 57.142h-22.695c-4.142 0-7.5 3.358-7.5 7.5s3.358 7.5 7.5 7.5h30c4.142 0 7.5-3.358 7.5-7.5 0-70.304 57.196-127.5 127.5-127.5s127.5 57.198 127.5 127.502-57.196 127.5-127.5 127.5c-59.958 0-111.086-40.776-124.335-99.16-.917-4.04-4.936-6.574-8.974-5.654-4.04.917-6.571 4.934-5.654 8.974 2.605 11.478 6.656 22.561 11.984 32.991l-19.665 11.354c-3.587 2.071-4.816 6.658-2.745 10.245s6.658 4.816 10.245 2.745l19.677-11.36c8.137 12.506 18.232 23.769 29.951 33.242 3.813 3.082 7.778 5.952 11.871 8.608l-11.35 19.659c-2.071 3.587-.842 8.174 2.745 10.245s8.174.842 10.245-2.745l11.356-19.669c17.694 8.992 37.2 14.257 57.149 15.317v22.708c0 4.142 3.358 7.5 7.5 7.5s7.5-3.358 7.5-7.5v-22.697c20.482-1.067 39.833-6.48 57.147-15.331l11.358 19.672c2.071 3.587 6.658 4.816 10.245 2.745s4.816-6.658 2.745-10.245l-11.373-19.699c16.678-10.876 30.948-25.145 41.823-41.823l19.699 11.373c3.587 2.071 8.174.842 10.245-2.745s.842-8.174-2.745-10.245z"/><path d="m68.5 256c0-18.886-15.364-34.25-34.25-34.25s-34.25 15.364-34.25 34.25 15.364 34.25 34.25 34.25 34.25-15.364 34.25-34.25zm-53.5 0c0-10.614 8.636-19.25 19.25-19.25s19.25 8.636 19.25 19.25-8.636 19.25-19.25 19.25-19.25-8.636-19.25-19.25z"/><path d="m477.75 221.75c-18.886 0-34.25 15.364-34.25 34.25s15.364 34.25 34.25 34.25 34.25-15.364 34.25-34.25-15.364-34.25-34.25-34.25zm0 53.5c-10.614 0-19.25-8.636-19.25-19.25s8.636-19.25 19.25-19.25 19.25 8.636 19.25 19.25-8.636 19.25-19.25 19.25z"/><path d="m46.834 337.214c-16.356 9.442-21.979 30.43-12.537 46.786s30.431 21.979 46.786 12.536 21.979-30.431 12.536-46.786-30.43-21.979-46.785-12.536zm26.75 46.332c-9.192 5.307-20.989 2.146-26.296-7.046s-2.146-20.989 7.046-26.296 20.989-2.146 26.296 7.046 2.146 20.989-7.046 26.296z"/><path d="m465.166 174.786c16.356-9.443 21.979-30.431 12.536-46.786s-30.431-21.979-46.786-12.536-21.979 30.431-12.536 46.786 30.431 21.979 46.786 12.536zm-26.75-46.332c9.192-5.307 20.989-2.146 26.296 7.046s2.146 20.989-7.046 26.296-20.989 2.146-26.296-7.046-2.146-20.989 7.046-26.296z"/><path d="m162.25 418.38c-16.356-9.443-37.344-3.819-46.786 12.536s-3.82 37.344 12.536 46.787 37.344 3.819 46.786-12.536 3.82-37.344-12.536-46.787zm-.454 39.286c-5.307 9.192-17.104 12.353-26.296 7.046s-12.353-17.104-7.046-26.296 17.104-12.353 26.296-7.046 12.353 17.104 7.046 26.296z"/><path d="m349.75 93.62c16.356 9.443 37.344 3.819 46.786-12.536s3.82-37.344-12.536-46.787-37.344-3.819-46.786 12.536-3.82 37.344 12.536 46.787zm.454-39.286c5.307-9.192 17.104-12.353 26.296-7.046s12.353 17.104 7.046 26.296-17.104 12.353-26.296 7.046-12.353-17.104-7.046-26.296z"/></g></svg>