<svg enable-background="new 0 0 24 24" height="512" viewBox="0 0 24 24" width="512" xmlns="http://www.w3.org/2000/svg"><path d="m18.25 8.13v10.24c0 .486-.394.88-.88.88h-14.337c-.484 0-.88-.396-.88-.88v-10.24c0-.486.394-.88.88-.88h14.337c.486 0 .88.394.88.88z" fill="#ffb74d"/><path d="m18.5 7.338h-17c-.276 0-.5-.224-.5-.5v-2.906h18v2.905c0 .277-.224.501-.5.501z" fill="#ffcc80"/><path d="m15.692.356h-11.384l-2.408 3.032h16.2z" fill="#ffa726"/><path d="m17.5 23.35c-3.226 0-5.85-2.624-5.85-5.85s2.624-5.85 5.85-5.85 5.85 2.624 5.85 5.85-2.624 5.85-5.85 5.85z" fill="#fdd835"/><path d="m19.75 20.5c-.161 0-.323-.052-.46-.158l-2.25-1.75c-.183-.142-.29-.36-.29-.592v-3.25c0-.414.336-.75.75-.75s.75.336.75.75v2.883l1.96 1.525c.327.254.386.726.131 1.053-.147.189-.368.289-.591.289z"/><path d="m17.5 24c-3.584 0-6.5-2.916-6.5-6.5s2.916-6.5 6.5-6.5 6.5 2.916 6.5 6.5-2.916 6.5-6.5 6.5zm0-11.5c-2.757 0-5 2.243-5 5s2.243 5 5 5 5-2.243 5-5-2.243-5-5-5z"/><path d="m9.25 20h-6.5c-.965 0-1.75-.785-1.75-1.75v-11c0-.414.336-.75.75-.75h16.5c.414 0 .75.336.75.75v2.06c0 .414-.336.75-.75.75s-.75-.336-.75-.75v-1.31h-15v10.25c0 .136.114.25.25.25h6.5c.414 0 .75.336.75.75s-.336.75-.75.75z"/><path d="m12.25 11h-4.5c-.414 0-.75-.336-.75-.75s.336-.75.75-.75h4.5c.414 0 .75.336.75.75s-.336.75-.75.75z"/><path d="m19.25 8h-18.5c-.414 0-.75-.336-.75-.75v-3.5c0-.414.336-.75.75-.75h18.5c.414 0 .75.336.75.75v3.5c0 .414-.336.75-.75.75zm-17.75-1.5h17v-2h-17z"/><path d="m19.25 4.5c-.203 0-.405-.082-.553-.243l-2.527-2.757h-12.34l-2.527 2.757c-.281.306-.755.325-1.06.046-.305-.279-.326-.754-.046-1.06l2.75-3c.142-.155.343-.243.553-.243h13c.21 0 .411.088.553.243l2.75 3c.28.306.259.78-.046 1.06-.144.132-.326.197-.507.197z"/></svg>