<svg id="Capa_1" enable-background="new 0 0 511.999 511.999" height="512" viewBox="0 0 511.999 511.999" width="512" xmlns="http://www.w3.org/2000/svg"><g><g><path d="m151.512 85.4c-2.294-3.973-7.374-5.334-11.347-3.041l-21.411 12.361c-3.973 2.294-5.334 7.375-3.041 11.348l20.3 35.161 3.402.439 32.155-18.599v-2.927z" fill="#3f6d8e"/><path d="m134.353 94.89c-1.592-2.757-1.778-5.935-.792-8.717l-14.807 8.549c-3.973 2.294-5.334 7.375-3.041 11.348l20.3 35.161 3.402.439 16.452-9.516z" fill="#365e7d"/><path d="m274.373 47.278h-37.125l-1.96 1.891v53.547l1.71 2.187h36.5l3.127-2.187v-53.547z" fill="#365e7d"/><path d="m255.957 49.169 1.96-1.891h-20.669l-1.96 1.891v53.547l1.71 2.187h20.669l-1.71-2.187z" fill="#294b64"/><ellipse cx="255.957" cy="303.25" fill="#90d8f9" rx="201.582" ry="201.582" transform="matrix(.707 -.707 .707 .707 -139.462 269.809)"/><path d="m87.812 303.25c0-105.7 81.356-192.387 184.863-200.886-5.514-.453-11.088-.695-16.718-.695-111.33 0-201.582 90.251-201.582 201.581s90.251 201.581 201.582 201.581c5.631 0 11.204-.242 16.718-.695-103.507-8.499-184.863-95.186-184.863-200.886z" fill="#75cef9"/><ellipse cx="255.957" cy="303.25" fill="#f4fbff" rx="161.581" ry="161.581" transform="matrix(.707 -.707 .707 .707 -139.462 269.809)"/><path d="m139.875 303.25c0-81.374 60.47-148.88 138.831-159.972-7.436-1.052-15.029-1.609-22.75-1.609-89.096 0-161.581 72.485-161.581 161.581s72.485 161.581 161.581 161.581c7.722 0 15.314-.557 22.75-1.609-78.361-11.091-138.831-78.598-138.831-159.972z" fill="#e4f6ff"/><path d="m298.309 7.833h-84.703c-4.96 0-8.982 4.021-8.982 8.982v23.373c0 4.96 4.021 8.982 8.982 8.982h84.703c4.96 0 8.981-4.021 8.981-8.982v-23.374c0-4.96-4.021-8.981-8.981-8.981z" fill="#3f6d8e"/><path d="m242.957 40.187v-23.373c0-4.96 4.021-8.982 8.982-8.982h-38.333c-4.96 0-8.982 4.021-8.982 8.982v23.373c0 4.96 4.021 8.982 8.982 8.982h38.333c-4.961 0-8.982-4.021-8.982-8.982z" fill="#365e7d"/><path d="m255.957 141.669v128.144l2.291 3.09 23.75 18.5h86.25l13.25 8.25 3.085 3.597h32.955c0-89.095-72.485-161.581-161.581-161.581z" fill="#dd636e"/><path d="m288.188 144.902c-10.418-2.117-21.197-3.233-32.231-3.233v128.144l2.291 3.09 23.75 18.5h6.189v-146.501z" fill="#da4a54"/><path d="m226.086 288.25c-9.308 0-16.213 0-27.003 0-8.284 0-15 6.716-15 15s6.716 15 15 15h27.003l1.495-3.18v-24.167z" fill="#ffaa5b"/><path d="m369.583 288.25c-10.319 0-74.615 0-83.757 0l-2.578 1.986v23.167l2.578 4.847h83.757c8.284 0 15-6.716 15-15s-6.715-15-15-15z" fill="#ffaa5b"/><path d="m199.083 303.25c-5.549 0-10.382-3.021-12.977-7.5-1.279 2.208-2.023 4.765-2.023 7.5 0 8.284 6.716 15 15 15h27.003l1.495-3.18v-15l-1.495 3.18c-9.307 0-16.212 0-27.003 0z" fill="#ff9838"/><path d="m369.583 303.25h-83.757l-2.578-4.847v15l2.578 4.847h83.757c8.284 0 15-6.716 15-15 0-2.735-.744-5.292-2.023-7.5-2.595 4.479-7.428 7.5-12.977 7.5z" fill="#ff9838"/><ellipse cx="255.957" cy="303.25" fill="#ffba7e" rx="33.437" ry="33.437" transform="matrix(.383 -.924 .924 .383 -122.161 423.674)"/><path d="m246.019 303.25c0-14.304 9.03-26.533 21.687-31.3-3.658-1.378-7.616-2.137-11.75-2.137-18.437 0-33.437 15-33.437 33.437s15 33.437 33.437 33.437c4.134 0 8.092-.759 11.75-2.137-12.656-4.767-21.687-16.996-21.687-31.3z" fill="#ffaa5b"/></g><g><path d="m46.918 302.917c0 115.288 93.794 209.082 209.082 209.082s209.081-93.793 209.081-209.082c0-105.736-78.899-193.378-180.913-207.177v-39.404h14.184c9.088 0 16.481-7.394 16.481-16.482v-23.372c0-9.088-7.394-16.482-16.481-16.482h-24.852c-4.143 0-7.5 3.358-7.5 7.5s3.357 7.5 7.5 7.5h24.852c.816 0 1.481.665 1.481 1.482v23.373c0 .817-.665 1.482-1.481 1.482-6.649 0-70.279 0-84.703 0-.817 0-1.482-.665-1.482-1.482v-23.373c0-.817.665-1.482 1.482-1.482h24.851c4.143 0 7.5-3.358 7.5-7.5s-3.357-7.5-7.5-7.5h-24.852c-9.089 0-16.482 7.394-16.482 16.482v23.373c0 9.088 7.394 16.482 16.482 16.482h14.183v39.403c-18.566 2.511-36.37 7.457-53.069 14.524l-16.712-28.946c-4.358-7.547-14.044-10.144-21.593-5.786l-21.41 12.361c-7.566 4.368-10.155 14.026-5.786 21.593l17.058 29.545c-48.339 38.33-79.401 97.546-79.401 163.886zm195.913-246.581h26.337v37.909c-8.451-.524-17.545-.546-26.337 0zm-120.58 45.65c-.223-.385-.096-.876.296-1.103l21.409-12.361c.386-.223.882-.089 1.104.295l16.031 27.768c-7.819 3.991-15.399 8.482-22.659 13.425zm120.554 7.308c8.799-.588 17.703-.586 26.501.007 100.833 6.861 180.775 91.073 180.775 193.617 0 107.017-87.064 194.082-194.081 194.082-107.018 0-194.082-87.064-194.082-194.082 0-102.582 80-186.817 180.887-193.624z"/><path d="m255.999 471.999c93.232 0 169.082-75.85 169.082-169.081 0-93.415-76.063-169.081-169.081-169.081h-.001c-93.231 0-169.081 75.85-169.081 169.081s75.85 169.081 169.081 169.081zm-137.011-239.525 5.958 3.44c3.583 2.07 8.173.845 10.245-2.745 2.071-3.587.842-8.174-2.745-10.245l-5.936-3.427c11.911-18.425 27.644-34.157 46.068-46.068l3.427 5.935c2.072 3.587 6.657 4.817 10.245 2.745 3.587-2.071 4.816-6.658 2.745-10.245l-3.439-5.957c19.03-9.824 40.356-15.797 62.943-16.885v51.028c0 4.142 3.357 7.5 7.5 7.5s7.5-3.358 7.5-7.5c0-10.298 0-40.838 0-51.028 21.686 1.019 43.262 6.744 62.94 16.89l-3.437 5.952c-2.071 3.587-.842 8.174 2.745 10.245 3.592 2.073 8.177.838 10.245-2.745l3.423-5.93c17.945 11.593 33.801 27.11 46.066 46.066l-5.93 3.424c-3.587 2.071-4.816 6.658-2.745 10.245 2.074 3.592 6.663 4.814 10.245 2.745l5.952-3.437c10.519 20.367 15.954 42.155 16.89 62.94-6.738 0-12.199 0-19.055 0-2.952-8.523-11.384-15-21.215-15h-79.441c-6.198-9.411-15.837-15.754-26.685-17.754v-27.613c0-4.142-3.357-7.5-7.5-7.5s-7.5 3.358-7.5 7.5v27.631c-11.114 2.067-20.662 8.633-26.675 17.736h-22.699c-12.406 0-22.5 10.093-22.5 22.5s10.094 22.5 22.5 22.5h22.698c7.331 11.097 19.909 18.438 34.176 18.438s26.845-7.34 34.176-18.438h79.45c9.777 0 18.114-6.271 21.21-15h19.06c-1.088 22.587-7.062 43.913-16.885 62.943l-5.957-3.439c-3.588-2.073-8.175-.842-10.245 2.745-2.071 3.587-.842 8.174 2.745 10.245l5.935 3.426c-11.911 18.425-27.644 34.157-46.068 46.068l-3.426-5.934c-2.071-3.587-6.657-4.816-10.245-2.746-3.587 2.071-4.816 6.658-2.745 10.245l3.439 5.957c-19.03 9.824-40.356 15.798-62.943 16.886v-6.898c0-4.142-3.357-7.5-7.5-7.5s-7.5 3.358-7.5 7.5v6.898c-22.587-1.088-43.913-7.061-62.943-16.885l3.439-5.957c2.071-3.587.842-8.174-2.745-10.245-3.588-2.073-8.175-.843-10.245 2.745l-3.427 5.935c-18.425-11.911-34.157-27.643-46.068-46.068l5.936-3.427c3.587-2.071 4.816-6.658 2.745-10.245-2.07-3.588-6.659-4.817-10.245-2.745l-5.958 3.44c-9.824-19.03-15.798-40.356-16.886-62.943h6.899c4.143 0 7.5-3.358 7.5-7.5s-3.357-7.5-7.5-7.5h-6.899c1.09-22.588 7.064-43.914 16.887-62.944zm177.263 62.943h73.375c4.136 0 7.5 3.364 7.5 7.5s-3.364 7.5-7.5 7.5h-73.375c.906-4.857.893-10.2 0-15zm-17.1 19.173c-4.28 8.453-13.047 14.265-23.151 14.265-14.439 0-25.938-11.803-25.938-25.938 0-14.222 11.574-25.937 25.938-25.937 18.562 0 31.793 19.248 23.151 37.61zm-63.403-4.173h-16.622c-4.136 0-7.5-3.364-7.5-7.5s3.364-7.5 7.5-7.5h16.622c-.932 5.016-.869 10.335 0 15z"/></g></g></svg>